<svg width="32" height="37" viewBox="0 0 32 37" fill="none" xmlns="http://www.w3.org/2000/svg">
<path d="M6.80249 32.7454H24.2943" stroke="black" stroke-width="1.5" stroke-linecap="round" stroke-linejoin="round"/>
<path d="M15.5484 19.1953C17.6952 19.1953 19.4355 17.1732 19.4355 14.6787C19.4355 12.1842 17.6952 10.162 15.5484 10.162C13.4017 10.162 11.6614 12.1842 11.6614 14.6787C11.6614 17.1732 13.4017 19.1953 15.5484 19.1953Z" stroke="black" stroke-width="1.5" stroke-linecap="round" stroke-linejoin="round"/>
<path d="M25.2661 14.6789C25.2661 24.8413 15.5485 32.7454 15.5485 32.7454C15.5485 32.7454 5.83081 24.8413 5.83081 14.6789C5.83081 11.6841 6.85463 8.81209 8.67704 6.6945C10.4995 4.57692 12.9712 3.38727 15.5485 3.38727C18.1257 3.38727 20.5975 4.57692 22.4199 6.6945C24.2423 8.81209 25.2661 11.6841 25.2661 14.6789V14.6789Z" stroke="black" stroke-width="1.5" stroke-linecap="round" stroke-linejoin="round"/>
</svg>
