<svg width="58" height="51" viewBox="0 0 58 51" fill="none" xmlns="http://www.w3.org/2000/svg">
<path d="M1.38863 9.03972V20.0842C-0.774169 27.3203 6.79559 29.9862 6.79559 29.9862C4.63281 37.984 10.7607 42.935 10.7607 42.935V44.4584C13.9319 53.1841 52.5746 51.4167 54.7374 44.4584C56.9002 37.5 54.7374 38.5 54.7374 29.9862C54.7374 25.9274 54.7374 26.1778 56.9002 17.0375C58.1618 11.7056 51.8537 17.0375 54.7374 9.03972C57.6211 1.04197 50.0287 17.0375 54.7374 1.80366C55.4088 -0.368517 44.6444 1.80366 47.5281 9.03972C50.4118 16.2758 53.0737 28.4628 49.3304 22.7502C45.5871 17.0375 25.9002 20.0842 25.9002 20.0842C27.3421 17.7992 24.4584 13.9907 24.0979 12.4673C23.5381 10.1016 19.7723 2.94621 17.97 6.75466C16.1677 10.5631 15.0863 11.7056 15.0863 11.7056C15.0863 11.7056 10.7607 11.4517 9.6793 12.4673C7.99714 10.6901 1.38863 4.08872 1.38863 9.03972Z" fill="#686868" stroke="#454545"/>
<path d="M18.9611 28.7322L19.4202 29.0341L19.8793 29.3359" stroke="#FFFEFE" stroke-width="0.5"/>
<path d="M14.3654 30.7479L14.357 31.3191L14.3487 31.8903" stroke="#FFFEFE" stroke-width="0.5"/>
<path d="M17.0222 30.0431L17.2574 30.5575L17.4926 31.0719" stroke="#FFFEFE" stroke-width="0.5"/>
<ellipse rx="1.81144" ry="3.03289" transform="matrix(0.950569 -0.310513 0.280855 0.95975 9.67929 20.0842)" fill="#DDF8A5"/>
<ellipse rx="1.81144" ry="3.03289" transform="matrix(0.950569 -0.310513 0.280855 0.95975 16.9391 18.9874)" fill="#DDF8A5"/>
<ellipse cx="15.8072" cy="19.3226" rx="0.720929" ry="0.761691" fill="#1D1D1D"/>
<ellipse cx="10.7607" cy="20.0843" rx="0.720929" ry="0.761691" fill="#1D1D1D"/>
</svg>
