<svg width="33" height="33" viewBox="0 0 33 33" fill="none" xmlns="http://www.w3.org/2000/svg">
<path d="M27.9716 7.02838H5.97164" stroke="black" stroke-width="2" stroke-linecap="round" stroke-linejoin="round"/>
<path d="M13.9716 13.0284V21.0284" stroke="black" stroke-width="2" stroke-linecap="round" stroke-linejoin="round"/>
<path d="M19.9716 13.0284V21.0284" stroke="black" stroke-width="2" stroke-linecap="round" stroke-linejoin="round"/>
<path d="M25.9716 7.02838V26.0284C25.9716 26.2936 25.8663 26.548 25.6787 26.7355C25.4912 26.923 25.2369 27.0284 24.9716 27.0284H8.97164C8.70643 27.0284 8.45207 26.923 8.26453 26.7355C8.077 26.548 7.97164 26.2936 7.97164 26.0284V7.02838" stroke="black" stroke-width="2" stroke-linecap="round" stroke-linejoin="round"/>
<path d="M21.9716 7.02838V5.02838C21.9716 4.49795 21.7609 3.98924 21.3859 3.61417C21.0108 3.23909 20.5021 3.02838 19.9716 3.02838H13.9716C13.4412 3.02838 12.9325 3.23909 12.5574 3.61417C12.1824 3.98924 11.9716 4.49795 11.9716 5.02838V7.02838" stroke="black" stroke-width="2" stroke-linecap="round" stroke-linejoin="round"/>
</svg>
