<svg width="65" height="72" viewBox="0 0 65 72" fill="none" xmlns="http://www.w3.org/2000/svg">
<ellipse cx="33.0401" cy="40.9253" rx="26.398" ry="23.0894" stroke="#3B3E3C" stroke-width="2"/>
<path d="M13.7951 25.0514L17.2864 13.0257L20.7778 1M20.7778 1L29.2933 18.6377M20.7778 1H22.4809L33.551 17.836L59.7787 4.04651M59.7787 4.04651L52.1148 25.0514M59.7787 4.04651H61.3115L57.224 26.3342M56.2022 30.9841L57.224 26.3342M57.224 26.3342C68.1239 36.5961 64.5474 61.9303 43.5993 63.5337" stroke="#3B3E3C" stroke-width="2"/>
<rect x="24.0137" y="32.2668" width="3.74681" height="6.09302" fill="#3B3E3C"/>
<rect x="33.8916" y="32.2668" width="3.74681" height="6.09302" fill="#3B3E3C"/>
<rect x="26.7386" y="34.8323" width="1.02186" height="1.28274" fill="#FFFEFE"/>
<rect x="36.6166" y="34.8323" width="1.02186" height="1.28274" fill="#FFFEFE"/>
<line y1="-1" x2="3.01178" y2="-1" transform="matrix(0.904766 0.425909 -0.469038 0.883178 25.7168 28.7393)" stroke="#3B3E3C" stroke-width="2"/>
<line y1="-1" x2="3.01178" y2="-1" transform="matrix(0.904766 -0.425909 0.469038 0.883178 33.551 30.022)" stroke="#3B3E3C" stroke-width="2"/>
<path d="M23.1621 50.0649C25.2058 51.7753 29.9745 54.0094 32.6995 49.2632C34.5161 51.5615 38.7966 54.6187 41.3853 48.4615" stroke="#3B3E3C" stroke-width="2"/>
<ellipse cx="31.5073" cy="63.0527" rx="1.7031" ry="1.92411" fill="#FFE3E3"/>
<path d="M44.7914 63.694C43.3572 68.8562 41.7414 70.1077 37.979 70.1077C34.2167 70.1077 33.0885 67.1355 31.1667 63.694C34.035 61.1911 34.2167 57.2803 37.979 57.2803C41.7414 57.2803 44.7914 60.1518 44.7914 63.694Z" fill="#FFC3C3"/>
<path d="M31.8479 62.9661C31.8479 66.5561 28.702 69.4663 24.8214 69.4663C20.9408 69.4663 20.9481 66.4901 19.9262 61.7699C20.9481 57.6712 22.605 55.3561 26.4856 55.3561C30.3662 55.3561 31.8479 59.3762 31.8479 62.9661Z" fill="#FFCBCB"/>
<path d="M31.6776 61.7329C31.9816 62.1145 32.1764 61.8865 32.2861 62.251M31.6776 61.7329L32.2861 62.251M31.6776 61.7329C31.4092 61.8719 31.1058 61.4717 30.8261 61.7329M32.2861 62.251C33.8916 57.9217 40.704 52.7907 43.5993 62.0906C44.6211 68.825 36.1057 75.5594 32.2075 64.0147M32.2861 62.251C32.4776 62.8875 32.409 63.4875 32.2075 64.0147M32.2075 64.0147C31.9038 64.8092 32.0182 64.6561 31.1667 64.8165C30.4854 64.4958 29.8908 64.3136 29.8863 63.6941M30.8261 61.7329C32.2075 56.639 24.0137 50.3856 20.9481 61.4492C19.245 69.1457 28.2714 75.2387 29.8863 63.6941M30.8261 61.7329C30.4937 62.0433 30.1946 62.4343 30.0271 62.8923M29.8863 63.6941C29.8842 63.4085 29.9363 63.1406 30.0271 62.8923M25.0355 61.7329C24.8652 62.3743 27.942 63.8544 30.0271 62.8923M32.6995 63.213C33.7213 63.9078 36.9231 64.5599 38.1494 62.8923" stroke="#8A1616" stroke-width="2"/>
<path d="M0 43.4909H11.9217" stroke="#3B3E3C" stroke-width="2"/>
<path d="M2.04372 49.4235L11.4107 48.3011" stroke="#3B3E3C" stroke-width="2"/>
<path d="M50.582 42.2081H61.8224" stroke="#3B3E3C" stroke-width="2"/>
<path d="M51.2632 46.6977L61.8224 48.4615" stroke="#3B3E3C" stroke-width="2"/>
</svg>
