<svg width="93" height="104" viewBox="0 0 93 104" fill="none" xmlns="http://www.w3.org/2000/svg">
<path d="M85.9788 59.7935C85.9788 78.2401 69.066 93.2946 48.0713 93.2946C27.0766 93.2946 10.1638 78.2401 10.1638 59.7935C10.1638 41.3469 27.0766 26.2924 48.0713 26.2924C69.066 26.2924 85.9788 41.3469 85.9788 59.7935Z" stroke="black"/>
<path d="M20.071 36.4178L30.2304 1M30.2304 1L42.6199 26.9731M30.2304 1H32.7083L48.8147 25.7925L86.9744 5.48626M86.9744 5.48626L75.8238 36.4178M86.9744 5.48626H89.2045L83.2575 38.3068M81.7708 45.1542L83.2575 38.3068M83.2575 38.3068C99.1161 53.4184 93.9125 90.7251 63.4343 93.0863" stroke="black"/>
<rect x="34.9384" y="47.0432" width="5.45139" height="8.97251" fill="black"/>
<rect x="49.3102" y="47.0432" width="5.45139" height="8.97251" fill="black"/>
<rect x="38.9031" y="50.821" width="1.48674" height="1.88895" fill="#FFFEFE"/>
<rect x="53.2749" y="50.821" width="1.48674" height="1.88895" fill="#FFFEFE"/>
<line y1="-0.5" x2="4.39164" y2="-0.5" transform="matrix(0.90277 0.430124 -0.464636 0.885502 37.4163 41.8485)" stroke="black"/>
<line y1="-0.5" x2="4.39164" y2="-0.5" transform="matrix(0.90277 -0.430124 0.464636 0.885502 48.8147 43.7374)" stroke="black"/>
<path d="M33.6995 73.2524C36.673 75.771 43.6111 79.0609 47.5757 72.0718C50.2188 75.4562 56.4466 79.9582 60.2131 70.8912" stroke="black"/>
<ellipse cx="45.8412" cy="92.378" rx="2.4779" ry="2.83343" fill="#FFE3E3"/>
<path d="M65.1688 93.3224C63.0822 100.924 60.7313 102.767 55.2572 102.767C49.7832 102.767 48.1418 98.3903 45.3456 93.3224C49.5189 89.6366 49.7832 83.8776 55.2572 83.8776C60.7313 83.8776 65.1688 88.1062 65.1688 93.3224Z" fill="#FFC3C3"/>
<path d="M46.3368 92.2505C46.3368 97.5371 41.7597 101.823 36.1137 101.823C30.4676 101.823 30.4782 97.4399 28.9915 90.4889C30.4782 84.4533 32.8888 81.0442 38.5349 81.0442C44.181 81.0442 46.3368 86.964 46.3368 92.2505Z" fill="#FFCBCB"/>
<path d="M46.089 90.4345C46.5313 90.9964 46.8148 90.6607 46.9743 91.1973M46.089 90.4345L46.9743 91.1973M46.089 90.4345C45.6984 90.6392 45.2571 90.0498 44.8501 90.4345M46.9743 91.1973C49.3103 84.8221 59.2219 77.2663 63.4343 90.9612C64.9211 100.878 52.5315 110.795 46.8599 93.7947M46.9743 91.1973C47.2529 92.1347 47.1531 93.0183 46.8599 93.7947M46.8599 93.7947C46.4181 94.9646 46.5846 94.7391 45.3456 94.9753C44.3545 94.503 43.4893 94.2347 43.4827 93.3224M44.8501 90.4345C46.8599 82.9332 34.9384 73.7245 30.4782 90.0167C28.0003 101.35 41.1332 110.323 43.4827 93.3224M44.8501 90.4345C44.3664 90.8916 43.9314 91.4673 43.6876 92.1418M43.4827 93.3224C43.4796 92.902 43.5555 92.5074 43.6876 92.1418M36.4252 90.4345C36.1774 91.379 40.6539 93.5585 43.6876 92.1418M47.5757 92.6141C49.0625 93.6372 53.7209 94.5975 55.505 92.1418" stroke="#8A1616" stroke-width="2"/>
<path d="M0 63.5715H17.3453" stroke="black"/>
<path d="M2.97348 72.3079L16.6019 70.655" stroke="black"/>
<path d="M73.5937 61.6825H89.9478" stroke="black"/>
<path d="M74.5849 68.2938L89.9479 70.8911" stroke="black"/>
</svg>
