<?xml version="1.0" encoding="utf-8"?>
<!-- Generator: Adobe Adobe Illustrator 24.2.0, SVG Export Plug-In . SVG Version: 6.00 Build 0)  -->
<svg version="1.1" id="レイヤー_1" xmlns="http://www.w3.org/2000/svg" xmlns:xlink="http://www.w3.org/1999/xlink" x="0px"
	 y="0px" width="250px" height="200px" viewBox="0 0 250 200" style="enable-background:new 0 0 250 200;" xml:space="preserve">
<style type="text/css">
	.st0{fill:#FEFEFE;}
	.st1{fill:#332918;}
	.st2{fill:#474948;}
	.st3{fill:#0A0808;}
	.st4{fill:#484A49;}
	.st5{fill:#494B4A;}
	.st6{fill:#362D1C;}
	.st7{fill:#C1C1C1;}
	.st8{fill:#C0C0C0;}
	.st9{fill:#C1C2C1;}
	.st10{fill:#080707;}
	.st11{fill:#BFBFBF;}
	.st12{fill:#BEBFBE;}
	.st13{fill:#989998;}
	.st14{fill:#B9B9B9;}
	.st15{fill:#BCBCBC;}
	.st16{fill:#F3F1EE;}
	.st17{fill:#FAFAFA;}
	.st18{fill:#FEFEFD;}
	.st19{fill:#FCFCFB;}
	.st20{fill:#F8F8F7;}
	.st21{fill:#FAF9F8;}
	.st22{fill:#F7F7F5;}
	.st23{fill:#F8BFAF;}
	.st24{fill:#F7BEAD;}
	.st25{fill:#F9C2B2;}
	.st26{fill:#392815;}
	.st27{fill:#090909;}
	.st28{fill:#040404;}
</style>
<g>
	<path class="st0" d="M190.34,146.29c-63.5,0-126.91,0-190.34,0c0-30.85,0-61.71,0-92.58c83.33,0,166.67,0,250,0
		c0,30.86,0,61.72,0,92.58C230.14,146.29,210.28,146.29,190.34,146.29z M170.04,95.59c0,0,0.08-0.01,0.14,0.01
		c0,0,0.07,0.01,0.1,0.13c0.35,0.1,0.78,0.37,1.04,0.25c0.28-0.12,0.39-0.61,0.61-0.99c0,0,0.03-0.06,0.15-0.07
		c0.56-0.17,1.13-0.34,1.68-0.38c0.13,1,0.54,1.23,1.58,0.91c0.25,0.32,0.45,0.78,0.78,0.93c0.53,0.24,0.91-0.14,1.21-0.59
		c0.46-0.69,1.01-1.32,1.47-2.01c1.38-2.07,1.98-4.27,0.91-6.66c-0.62-1.37-1.54-2.48-3.19-2.94c-1.09-0.58-2.19-1.16-3.25-1.9
		c0.01-1.58,0.02-3.17,0.02-4.75c0-1.36-0.34-1.63-1.68-1.44c-0.16-0.53-0.35-1.03-1.05-0.9c-0.71,0.13-0.77,0.69-0.77,1.28
		c0.01,0.89,0,1.78,0,2.67c0,0.9,0,1.81,0,2.71c-0.45,0-0.72,0-1.01-0.15c-0.05-0.9-0.13-1.81-0.15-2.71
		c-0.04-1.35-0.36-1.62-1.69-1.4c-0.11-0.58-0.39-1.03-1.04-0.94c-0.7,0.1-0.82,0.61-0.77,1.25c0.06,0.72,0.05,1.44,0.07,2.16
		c0.05,2.05,0.05,2.05-1.92,2.46c-0.08,0.02-0.17,0.07-0.24,0.05c-0.14-0.04-0.34-0.09-0.4-0.19c-0.33-0.67-0.9-0.69-1.5-0.56
		c-0.67,0.15-0.94,0.69-0.99,1.3c-0.08,0.94-0.11,1.88-0.09,2.83c0.04,1.6,0.13,3.2,0.21,4.95c-1.78-1.11-3.66-1.07-5.54-0.85
		c-1.49,0.17-2.97,0.41-4.46,0.49c0.31-1.42,0.6-2.85,0.93-4.27c0.06-0.24,0.23-0.52,0.43-0.63c1.27-0.75,2.57-1.47,3.88-2.08
		c-0.42,1.17-0.88,2.33-1.25,3.51c-0.11,0.37-0.11,0.96,0.11,1.19c0.21,0.21,0.77,0.09,1.28,0.19c0.28,0.32,0.51,0.81,0.86,0.93
		c0.6,0.21,0.96-0.27,1.15-0.81c0.46-1.29,1.04-2.57,1.33-3.9c0.36-1.67-1.29-4.24-3.16-4.5c-1.02-0.48-1.99-1.15-3.07-1.41
		c-2.57-0.62-5.12-0.4-7.61,0.6c-0.79,0.32-1.43,0.58-1.4,1.56c0.08,3.05,0.14,6.11,0.24,9.16c0.04,1.03,0.52,1.29,1.6,0.99
		c0.03,0.21,0.07,0.42-0.02,0.67c-1.18,0.27-2.35,0.54-3.54,0.7c-0.41-0.57-0.92-0.24-1.41-0.27c-0.27-0.31-0.59-0.9-0.78-0.86
		c-0.45,0.1-1.09,0.43-1.19,0.79c-0.22,0.83-0.28,1.74-0.2,2.6c0.26,2.68,1.38,5.11,2.3,7.59c0.29,0.79,0.64,1.31,1.67,0.98
		c0.57,1.14,0.97,1.24,2.1,0.67c-0.13,2.22-0.31,4.43-0.38,6.65c-0.08,2.6-0.11,5.21-0.09,7.82c0.01,1.04,0.52,1.32,1.57,1.07
		c0.29,0.53,0.55,1.17,1.34,0.93c0.83-0.25,0.57-0.97,0.56-1.54c0-0.69-0.06-1.37,0.03-2.08c1.45-0.54,2.92-1.07,4.36-1.64
		c1.75-0.69,3.49-1.42,5.28-2c0.02,1.3,0.08,2.61,0.04,3.91c-0.05,1.5-0.42,2.86-1.99,3.55c-0.5,0.22-0.8,0.66-0.53,1.23
		c0.28,0.58,0.77,0.66,1.44,0.47c0.32,0.61,0.68,1.28,1.51,0.86c1.18-0.59,2.28-1.33,2.64-2.72c0.2-0.77,0.44-1.57,0.43-2.36
		c-0.03-2.07-0.05-4.16-0.34-6.21c-0.45-3.24-1.45-6.33-3.5-8.96c-0.74-0.94-1.49-1.96-2.92-2.23c-1.95-1.62-4.16-2.28-6.68-1.93
		c-0.24,0.03-0.55-0.13-0.75-0.29c-0.43-0.35-0.98-0.49-1.26-0.05c-0.42,0.65-0.62,1.43-0.9,2.16c-0.03,0.08,0.03,0.22,0.08,0.32
		c0.49,0.97,0.19,1.93-0.05,2.73c-0.23-0.73-0.42-1.48-0.7-2.19c-0.85-2.22-1.73-4.42-1.71-6.89c0.08-0.02,0.15-0.05,0.2,0.07
		c0.12,0.83,0.42,1.05,1.22,0.86c2.5-0.6,4.99-1.26,7.49-1.82c2.78-0.62,5.59-1.14,8.53-0.77c-0.09,0.86-0.01,1.79-0.31,2.57
		c-0.54,1.39-1.35,2.67-1.97,4.04c-0.15,0.34-0.18,0.95,0.03,1.19c0.2,0.23,0.77,0.14,1.28,0.26c0.33,0.32,0.62,0.82,1.01,0.93
		c0.63,0.18,0.85-0.45,1.09-0.92c0.51-0.98,1.02-1.96,1.54-2.93c0.2-0.38,0.43-0.74,0.7-1.01c0.67,0.88,1.06,0.9,1.96,0.1
		c1.51-0.44,3.01-0.88,4.63-1.34C169.6,95.7,169.78,95.65,170.04,95.59z M172.54,123.56c0.2-0.08,0.4-0.16,0.75-0.26
		c3.66-0.96,7.31-1.92,10.97-2.89c0.53-0.14,0.75-0.63,0.52-1.04c-0.18-0.33-0.67-0.51-1.05-0.7c-0.14-0.07-0.37,0.04-0.58-0.05
		c-0.16-0.77-0.62-0.99-1.34-0.76c-0.53,0.16-1.06,0.33-1.59,0.47c-1.75,0.49-3.5,0.97-5.25,1.33c0.08-0.18,0.14-0.36,0.23-0.53
		c0.91-1.65,1.88-3.26,2.72-4.94c0.74-1.48,1.34-3.03,1.98-4.55c0.26-0.62-0.21-1.26-0.9-1.23c-0.24,0.01-0.48,0.1-0.73,0.04
		c-0.11-0.29-0.23-0.58-0.23-0.91c0.54-0.77,0.81-1.59,0.33-2.48c-0.37-0.69-0.88-1.22-1.86-1.2c-0.7-0.92-1.74-1.14-2.76-1.09
		c-1.77,0.1-3.52,0.38-5.29,0.46c-0.39-0.89-0.54-0.95-1.72-0.78c-0.03-0.16-0.06-0.31,0.01-0.58c0.19-0.11,0.36-0.26,0.56-0.33
		c2.08-0.69,4.16-1.37,6.25-2.02c0.24-0.07,0.59,0.01,0.81,0.15c0.51,0.31,0.96,0.25,1.36-0.14c0.48-0.46,1.06-0.93,0.73-1.69
		c-0.12-0.27-0.48-0.48-0.78-0.61c-0.24-0.1-0.55-0.03-0.86-0.15c-0.5-0.88-0.81-1.04-2.08-0.64c-2.83,0.88-5.64,1.84-8.45,2.77
		c-0.21,0.07-0.41,0.17-0.59,0.29c-0.49,0.35-0.65,1.13-0.32,1.63c0.36,0.56,0.85,0.55,1.46,0.29c0.04,0.11,0.09,0.22,0.07,0.42
		c-0.7,0.61-0.82,1.47-0.75,2.29c0.16,1.95,0.39,3.91,0.67,5.85c0.07,0.51,0.05,0.79-0.4,1.1c-0.29,0.2-0.41,0.64-0.63,1.09
		c0.1,0.15,0.2,0.3,0.36,0.56c0.37,0.03,0.75,0.06,1.26,0.1c0.29,0.36,0.59,0.71,0.86,1.19c0.02,0.07,0.04,0.15,0.05,0.34
		c0.05,0.18,0.09,0.37,0.12,0.67c0.02,0.07,0.05,0.15,0.06,0.35c0.64,1.71,1.28,3.42,1.92,5.24c0.09,0.09,0.18,0.19,0.3,0.43
		c-1.49,0.22-2.98,0.44-4.46,0.68c-0.49,0.08-1.01,0.17-1.43,0.41c-0.18,0.1-0.29,0.74-0.16,0.87c0.32,0.32,0.78,0.5,1.2,0.7
		c0.11,0.06,0.27,0.02,0.42,0.15c0.22,0.58,0.66,0.78,1.25,0.73c0.77-0.06,1.56-0.06,2.31-0.19c1.37-0.24,2.74-0.56,4.22-0.84
		C172.19,123.56,172.31,123.54,172.54,123.56z M243.83,91.31c0,0-0.04-0.06-0.03-0.2c-0.05-0.58-0.09-1.15-0.16-1.73
		c-0.24-1.98-0.79-3.85-2.07-5.41c-0.69-0.84-1.41-1.72-2.7-1.97c-0.82-0.37-1.62-0.81-2.48-1.07c-0.54-0.16-0.99,0.22-1.05,0.8
		c-0.06,0.55,0.3,0.85,0.83,0.97c1.94,0.43,3.9,3.16,3.68,5.17c-1.11,0.15-2.24,0.3-3.4,0.34c-0.47-0.06-0.95-0.12-1.43-0.29
		c-0.01-0.11-0.01-0.23,0.1-0.34c0.57-0.12,0.91-0.45,0.81-1.04c-0.1-0.61-0.55-0.84-1.15-0.81c-0.16,0.01-0.33,0-0.54-0.12
		c-0.18-0.65-0.73-0.71-1.27-0.9c0.23-0.32,0.52-0.61,0.68-0.96c0.13-0.28,0.24-0.69,0.12-0.95c-0.12-0.26-0.49-0.46-0.79-0.56
		c-0.23-0.07-0.53,0.07-0.81-0.01c-0.23-0.3-0.42-0.8-0.71-0.86c-0.31-0.07-0.8,0.17-1.06,0.42c-0.47,0.46-0.84,1.03-1.25,1.55
		c-0.85,1.09-2.34,1.3-3.52,0.38c-0.18-0.21-0.31-0.52-0.54-0.61c-0.31-0.12-0.69-0.07-1.08-0.21c-0.29-0.99-1.03-0.82-1.69-0.58
		c-1.54,0.56-3.05,1.2-4.58,1.78c-0.93,0.35-1.04,0.58-0.72,1.55c0.07,0.2,0.06,0.43,0.05,0.65c-0.08,1.83-0.24,3.65-0.24,5.48
		c-0.01,3.83,0.27,7.65,1.04,11.41c0.12,0.56-0.13,0.75-0.61,0.61c-1.3-0.39-1.83-0.08-2.05,1.26c-0.28,1.78,0.23,3.47,0.67,5.16
		c0.23,0.9,0.65,1.07,1.59,0.77c0.21,0.6,0.47,1.22,1.26,0.99c0.83-0.25,0.69-0.92,0.53-1.58c-0.26-1.12-0.47-2.25-0.68-3.32
		c0.53-0.1,1.1-0.04,1.27-0.27c0.74-1.02,1.89-1.23,2.94-1.59c6.09-2.11,12.4-2.89,18.8-2.85c-0.23,0.65-0.53,1.29-0.68,1.96
		c-0.08,0.38-0.04,0.96,0.2,1.17c0.22,0.2,0.77,0.03,1.27,0.11c0.13,0.53,0.35,1.15,0.95,1.03c0.39-0.08,0.8-0.61,0.99-1.04
		c0.37-0.82,0.65-1.7,0.87-2.58c0.36-1.4-0.39-2.38-1.9-2.56c-0.34-0.28-0.69-0.55-0.98-0.96c0.62-2.12,1.36-4.21,1.35-6.52
		c0,0,0.02-0.06,0.14-0.09C244.52,92.28,244.54,91.86,243.83,91.31z M105.54,99.37c0.71-0.52,1.42-1.04,2.26-1.59
		c0.21-0.04,0.41-0.08,0.76-0.07c1.08,0.03,1.33-0.18,1.46-1.24c0.28-0.23,0.56-0.47,0.95-0.72c0.08-0.02,0.16-0.04,0.24-0.07
		c1.13-0.54,2.07-1.5,3.45-1.53c0.21,0,0.57-0.5,0.58-0.78c0.01-0.28-0.28-0.67-0.55-0.82c-0.31-0.18-0.75-0.14-1.18-0.31
		c-0.34-0.81-0.99-0.94-1.7-0.67c-0.87,0.33-1.69,0.78-2.58,1.08c-0.88-1-1.76-2-2.63-3.01c-0.18-0.21-0.4-0.41-0.49-0.65
		c-0.4-1-0.72-1.17-1.77-1c-0.05-0.2-0.11-0.4-0.04-0.63c0.07-0.05,0.13-0.1,0.2-0.15c1.32-1.02,2.39-2.37,4.05-2.94
		c0.21-0.07,0.39-0.6,0.36-0.9c-0.03-0.24-0.36-0.53-0.62-0.64c-0.29-0.11-0.65-0.03-1.01-0.16c-0.33-0.84-0.84-1.08-1.7-0.7
		c-0.5,0.22-0.98,0.54-1.38,0.91c-4.06,3.62-8.11,7.26-12.16,10.89c-0.42,0.37-0.64,0.8-0.3,1.31c0.34,0.5,0.82,0.52,1.42,0.3
		c0.46,1.18,1.1,1.32,2,0.45c0.41-0.4,0.84-0.78,1.42-1.16c0.11,0,0.21,0.01,0.27,0.14c0.1,0.38,0.07,0.93,0.31,1.1
		c0.51,0.36,1.16,0.53,1.76,0.89c0.41,0.23,0.8,0.5,1.23,0.67c0.49,0.19,1.02,0.29,1.44,0.51c-1.53,1.11-3.1,2.17-4.59,3.34
		c-2.85,2.22-5.66,4.49-8.49,6.75c-0.43,0.34-0.65,0.79-0.32,1.32c0.34,0.53,0.82,0.5,1.42,0.32c0.5,1.09,1.07,1.25,1.89,0.59
		c3.31-2.63,6.62-5.26,9.96-7.87c0.48-0.38,1.08-0.62,1.64-0.79c0.41,1.04,0.81,2.07,1.29,3.3c-1.2-0.34-1.88,0.28-2.53,0.89
		c-3.63,3.39-7.25,6.8-10.87,10.21c-0.44,0.42-0.75,0.89-0.3,1.45c0.5,0.62,1.03,0.34,1.51,0.09c0.15,0.35,0.22,0.88,0.49,1.01
		c0.27,0.13,0.75-0.09,1.1-0.23c0.19-0.07,0.32-0.3,0.48-0.45c2.33-2.25,4.65-4.49,6.98-6.61c0,0.08,0.01,0.17-0.03,0.36
		c-0.21,0.25-0.41,0.51-0.64,0.75c-2.92,3.03-5.85,6.06-8.77,9.09c-0.44,0.46-0.76,0.95-0.23,1.51c0.5,0.52,1,0.29,1.45,0.03
		c0.18,0.36,0.31,0.97,0.56,1.02c0.36,0.08,0.93-0.13,1.21-0.41c1.13-1.14,2.15-2.39,3.27-3.53c2.23-2.28,4.5-4.52,6.77-6.76
		c0.21-0.2,0.49-0.33,0.75-0.34c0,0.86,0.11,1.74-0.03,2.58c-0.3,1.74-0.65,3.48-1.13,5.18c-0.3,1.06-1.11,1.7-2.29,1.74
		c-0.33,0.01-0.67,0.06-0.99,0.14c-0.82,0.21-1.07,1.05-0.4,1.55c0.31,0.23,0.88,0.12,1.33,0.29c0.14,0.72,0.62,0.94,1.29,0.83
		c0.44-0.07,0.87-0.17,1.3-0.24c1.2-0.19,2.05-0.81,2.7-1.86c1.19-1.94,1.55-4.1,1.69-6.27c0.3-4.67-0.37-9.23-1.98-13.63
		c-0.44-1.2-1.12-2.32-1.69-3.59C105.42,99.55,105.42,99.48,105.54,99.37z M125.11,123.08c0.99-0.2,1.97-0.41,3.01-0.51
		c0.28,0.64,0.77,0.68,1.46,0.55c0.1,0.17,0.18,0.34,0.29,0.5c0.38,0.58,1.19,0.68,1.53,0.09c0.51-0.88,0.88-1.84,1.39-2.83
		c0.13-0.1,0.26-0.2,0.52-0.29c0.32-0.1,0.65-0.16,0.95-0.29c0.75-0.35,0.82-1.05,0.17-1.58c-0.12-0.1-0.25-0.18-0.31-0.22
		c0.34-1.19,0.76-2.29,0.97-3.42c0.55-2.95,0.55-5.87-1.18-8.5c-0.74-1.13-1.67-2.13-3.18-2.55c-1.33-1.01-2.81-1.68-4.45-1.99
		c-3.14-0.6-6.2-0.2-9.22,0.75c-0.25,0.08-0.56,0.04-0.83,0c-0.4-0.07-0.86-0.36-1.16-0.24c-0.26,0.11-0.46,0.67-0.46,1.03
		c-0.02,4.22-0.09,8.45,0.06,12.67c0.06,1.77-0.1,3.58,0.69,5.36c0.43,0.98,0.91,1.24,1.78,1.46c0.49,0.27,0.99,0.8,1.46,0.77
		c1.8-0.1,3.59-0.37,5.51-0.59C124.41,123.21,124.69,123.13,125.11,123.08z M122.66,88.25c0.32-0.09,0.64-0.18,0.96-0.26
		c0.77-0.19,1.55-0.38,2.32-0.44c-0.47,3.56-0.95,7.13-1.38,10.69c-0.04,0.32,0.15,0.87,0.39,0.97c0.33,0.14,0.79-0.05,1.2,0.04
		c0.04,0.64,0.35,1.1,1.02,1.08c0.63-0.03,0.81-0.52,0.88-1.11c0.3-2.44,0.64-4.87,0.95-7.31c0.23-1.84,0.45-3.67,0.7-5.57
		c0,0,0.03-0.06,0.14-0.08c0.85-0.46,0.99-1.01,0.52-1.72c-0.19-0.29-0.34-0.67-0.34-1.01c0.02-1.35,0.1-2.7,0.17-4.05
		c0.04-0.76-0.29-1.15-1.08-1.08c-0.19,0.02-0.39,0-0.6-0.12c-0.13-0.56-0.47-0.91-1.06-0.8c-0.58,0.11-0.73,0.55-0.75,1.12
		c-0.05,1.49-0.13,2.98-0.27,4.47c-0.03,0.3-0.3,0.75-0.56,0.84c-1.16,0.44-2.36,0.77-3.55,0.97c0.09-0.62,0.19-1.24,0.27-1.86
		c0.07-0.56-0.09-1.01-0.73-1.09c-0.3-0.04-0.61,0-0.95-0.11c-0.11-0.58-0.46-0.88-1.05-0.82c-0.62,0.06-0.96,0.49-0.99,1.06
		c-0.06,1.13-0.08,2.27-0.04,3.4c0.02,0.53-0.11,0.79-0.64,0.94c-1.87,0.52-3.72,1.1-5.59,1.64c-0.25,0.07-0.58,0.14-0.8,0.05
		c-0.69-0.28-1.18,0.02-1.47,0.55c-0.16,0.28-0.17,0.78-0.02,1.06c0.31,0.6,0.88,0.64,1.49,0.53c0.28,0.27,0.51,0.62,0.84,0.79
		c0.23,0.12,0.6,0.02,0.88-0.05c1.92-0.5,3.83-1.02,5.78-1.39c0.16,1.09,0.32,2.18,0.48,3.27c0.15,0.96,0.53,1.18,1.59,0.93
		c0.04,0.07,0.08,0.15,0.11,0.22c0.2,0.52,0.55,0.88,1.13,0.72c0.6-0.17,0.77-0.66,0.67-1.25c-0.05-0.27-0.09-0.54-0.14-0.82
		c-0.22-1.41-0.45-2.82-0.65-4.3C122.51,88.33,122.53,88.26,122.66,88.25z M235.31,118.62c2.34-0.69,4.69-1.35,7.01-2.1
		c0.28-0.09,0.63-0.79,0.53-1.02c-0.14-0.33-0.66-0.51-1.05-0.69c-0.14-0.07-0.37,0.05-0.58-0.05c-0.16-0.84-0.68-0.98-1.41-0.75
		c-0.81,0.26-1.62,0.54-2.44,0.78c-1.13,0.33-2.26,0.63-3.41,0.83c-0.18-0.31-0.31-0.67-0.55-0.92c-0.88-0.92-0.58-1.73,0.04-2.65
		c0.6-0.89,1.14-1.84,1.52-2.84c0.58-1.53-0.17-2.6-1.88-2.9c-0.52-0.68-1.26-0.93-2.05-0.86c-1.09,0.1-2.18,0.31-3.26,0.51
		c-0.64,0.12-1.22,0.42-1.02,1.21c0.2,0.8,0.83,0.75,1.47,0.54c0.08-0.03,0.16-0.04,0.22,0.08c0.12,0.83,0.49,1.07,1.29,0.89
		c0.48-0.11,0.97-0.17,1.41-0.14c-0.37,0.64-0.67,1.33-1.11,1.92c-1.02,1.4-1.03,2.73,0.01,4.13c0.43,0.58,0.75,1.25,1.14,1.91
		c-0.28,0.11-0.4,0.18-0.53,0.21c-2.99,0.72-5.98,1.44-8.98,2.16c-0.55,0.13-1,0.48-0.84,1.03c0.1,0.35,0.6,0.61,0.97,0.82
		c0.15,0.09,0.43-0.04,0.64,0.06c0.25,0.9,0.94,0.91,1.66,0.77c0.78-0.15,1.56-0.37,2.34-0.55c1.74-0.41,3.49-0.83,5.23-1.11
		c-0.29,1.88-1.46,2.94-3.25,3.36c-0.97,0.23-1.97,0.35-2.95,0.56c-0.53,0.11-0.86,0.46-0.78,1.01c0.08,0.54,0.46,0.81,1.02,0.77
		c0.19-0.01,0.38-0.06,0.6,0.04c0.22,0.72,0.73,0.93,1.42,0.8c1.14-0.22,2.29-0.4,3.4-0.7c1.7-0.47,2.89-1.57,3.61-3.18
		c0.55-1.22,0.64-2.49,0.42-3.87C235.15,118.69,235.17,118.62,235.31,118.62z M11.52,117.07c-1.74,0.12-3.48,0.24-5.22,0.36
		c-0.53,0.03-1.09,0.09-1.05,0.76c0.05,0.7,0.65,0.63,1.16,0.6c1.93-0.13,3.87-0.27,5.89-0.31c0.18,0.4,0.36,0.81,0.54,1.21
		c3.12,7,8.29,11.94,15.24,15.27c-0.01,0.97-0.01,1.94-0.04,2.91c-0.06,1.87,0.62,3.46,1.72,4.92c2.46,3.24,7.02,2.85,8.84-0.79
		c0.37-0.73,0.56-1.55,0.8-2.25c0.81-0.23,1.59-0.45,2.43-0.69c0.14,0.34,0.27,0.77,0.5,1.14c0.54,0.9,0.97,1.92,1.71,2.62
		c3.78,3.58,8.82,2.53,10.73-1.7c0.45-1,0.69-2.09,1.16-3.14c1.17-0.34,2.37-0.62,3.52-1.03c10.01-3.57,17.09-10.09,20.53-20.38
		c0.81-0.4,0.86-0.63,0.28-1.43c0.69-2.87,0.88-5.78,0.6-8.7c-0.61-6.43-3.29-11.93-7.67-16.65c-0.29-0.31-0.46-0.88-0.42-1.31
		c0.13-1.6,0.38-3.2,0.58-4.8c0.82-6.56,1.63-13.13,2.43-19.69c0.04-0.32-0.02-0.78-0.22-0.98c-0.8-0.75-1.59-0.77-2.57-0.18
		c-7.91,4.71-15.82,9.42-23.73,14.14c-0.91,0.54-1.83,1.06-2.69,1.68c-0.89,0.65-0.95,0.69-1.6-0.19c-1.64-2.21-3.27-4.42-4.91-6.64
		c-3.22-4.36-6.44-8.72-9.67-13.06c-0.2-0.26-0.53-0.57-0.82-0.59c-0.9-0.06-1.71,0.65-1.98,1.6c-2.38,8.44-4.8,16.87-7.09,25.33
		c-0.6,2.22-1.57,4.07-3.1,5.82c-4.21,4.86-6.5,10.56-6.73,17.03c-0.02,0.66-0.09,1.31-0.3,1.96c-1.92,0.01-3.83,0.03-5.75,0.03
		c-0.52,0-1.02,0.06-1.03,0.68c-0.01,0.62,0.46,0.7,1,0.7c2.03-0.02,4.06-0.02,6.12,0.12c0.34,1.73,0.69,3.46,1.02,5.19
		C11.73,116.76,11.68,116.92,11.52,117.07z M193.34,98.4c0.44,0.86,0.8,1,2.01,0.79c0.84-0.15,1.69-0.3,2.53-0.31
		c-0.06,0.48-0.17,0.97-0.18,1.45c-0.11,3.07-0.2,6.14-0.31,9.21c-0.01,0.23-0.09,0.62-0.2,0.65c-1.29,0.32-2.47,1.06-3.91,0.85
		c-0.46-0.07-1.08,0.33-1.45,0.7c-0.17,0.16-0.03,0.94,0.21,1.13c0.3,0.24,0.86,0.18,1.32,0.37c0.36,0.82,1.03,0.98,1.79,0.76
		c2.39-0.69,4.81-1.32,7.16-2.16c2.58-0.93,5.08-2.07,7.62-3.11c0.53-0.22,0.81-0.62,0.6-1.09c-0.14-0.31-0.6-0.51-0.95-0.69
		c-0.18-0.09-0.44-0.03-0.68-0.15c-0.25-0.83-0.8-0.87-1.5-0.58c-2.12,0.88-4.24,1.76-6.35,2.47c0.05-1.49,0.11-2.99,0.16-4.48
		c0.06-1.47,0.14-2.93,0.18-4.4c0.02-0.64-0.04-1.27-0.07-1.91c0.04-0.16,0.32-0.25,0.6-0.33c0.82-0.23,1.68-0.36,2.43-0.72
		c0.29-0.14,0.48-0.79,0.45-1.18c-0.02-0.22-0.58-0.43-0.92-0.58c-0.19-0.08-0.44-0.02-0.68-0.14c-0.36-0.84-0.63-0.95-1.56-0.67
		c-2,0.59-4,1.2-6.02,1.72c-0.84,0.21-1.74,0.22-2.61,0.28c-0.69,0.04-1.36,0.56-1.34,1.12c0.02,0.61,0.52,0.97,1.32,0.93
		C193.11,98.31,193.22,98.29,193.34,98.4z"/>
	<path class="st1" d="M10.5,109.91c0.05-0.66,0.12-1.31,0.14-1.97c0.22-6.47,2.52-12.17,6.73-17.03c1.52-1.76,2.5-3.6,3.1-5.82
		c2.29-8.46,4.71-16.89,7.09-25.33c0.27-0.95,1.07-1.66,1.98-1.6c0.29,0.02,0.62,0.33,0.82,0.59c3.24,4.35,6.45,8.71,9.67,13.06
		c1.64,2.21,3.27,4.43,4.91,6.64c0.65,0.88,0.71,0.84,1.6,0.19c0.85-0.62,1.78-1.14,2.69-1.68c7.91-4.72,15.82-9.43,23.73-14.14
		c0.98-0.58,1.78-0.56,2.57,0.18c0.21,0.19,0.26,0.66,0.22,0.98c-0.8,6.57-1.61,13.13-2.43,19.69c-0.2,1.6-0.44,3.2-0.58,4.8
		c-0.04,0.43,0.13,1,0.42,1.31c4.38,4.72,7.07,10.22,7.67,16.65c0.27,2.91,0.09,5.83-0.66,8.77c-0.52,0.01-0.97-0.04-1.44-0.16
		c1.96-8.99-0.22-16.8-6.28-23.79c-0.22,1.03-0.41,1.84-0.55,2.65c-0.13,0.7-0.03,1.33,0.25,2.05c0.87,2.15,1.72,4.34,2.27,6.59
		c0.44,1.78,0.45,3.67,0.57,5.53c-0.54,0.02-1,0.02-1.46-0.05c-0.04-0.99-0.02-1.91-0.13-2.82c-1.04-8.11-5.07-14.44-11.74-19.06
		c-5.77-3.99-12.23-5.71-19.28-5.52c-4.56,0.13-8.91,1.03-12.99,2.98C20,88.08,13.93,95.2,12.32,105.7
		c-0.21,1.37-0.08,2.8-0.17,4.21C11.55,109.91,11.03,109.91,10.5,109.91z M73.38,67.42c-0.13,0.47-0.24,0.94-0.38,1.41
		c-1.96,6.44-3.92,12.87-5.86,19.32c-0.07,0.24,0.06,0.62,0.23,0.84c0.96,1.25,1.96,2.48,2.95,3.71c0.09,0.12,0.14,0.27,0.21,0.4
		c0.1-0.04,0.2-0.08,0.31-0.13c0.18-1.7,0.35-3.39,0.59-5.17c-0.01-0.1-0.02-0.19,0.01-0.43c0.14-1.17,0.28-2.33,0.48-3.58
		c-0.01-0.1-0.02-0.19,0.01-0.42c0.03-0.28,0.06-0.56,0.15-0.91c-0.01-0.1-0.02-0.19,0.02-0.43c0.53-4.34,1.06-8.67,1.66-13.08
		c-0.01-0.1-0.01-0.19,0.02-0.43c0.02-0.39,0.04-0.77,0.09-1.29c-0.02-0.18-0.04-0.36-0.06-0.54c-0.06,0-0.12-0.01-0.18-0.01
		C73.58,66.91,73.52,67.12,73.38,67.42z M64.09,86.05c0.58,0.46,1.15,0.93,1.67,1.35c2.35-7.57,4.68-15.11,7.09-22.9
		c-8.61,5.13-17,10.12-25.43,15.14C53.74,79.9,58.98,82.65,64.09,86.05z M28.44,82.36c2.93-1.36,5.99-2.31,9.31-2.87
		c-3.06-6.22-6.06-12.3-9.12-18.51c-2.42,8.61-4.79,17.07-7.14,25.45C23.79,85.08,26.06,83.75,28.44,82.36z M35.9,72.65
		c0.85,1.72,1.69,3.44,2.54,5.16c0.73,1.48,0.73,1.45,2.41,1.33c0.89-0.06,1.78-0.01,2.88-0.01c-4.47-6.05-8.78-11.86-13.08-17.68
		c-0.06,0.05-0.13,0.09-0.19,0.14C32.25,65.24,34.05,68.89,35.9,72.65z"/>
	<path class="st2" d="M142.04,92.55c1.18-0.27,2.35-0.54,3.65-0.84c0.36-0.09,0.59-0.17,0.7-0.2c0.36-1.91,0.69-3.71,1.05-5.6
		c-0.69,0.21-1.25,0.38-1.89,0.57c0.03,0.53,0.1,1.05,0.09,1.57c-0.03,0.98-0.1,1.96-0.15,2.93c-0.97,0.38-1.46,0.12-1.49-0.91
		c-0.11-3.05-0.16-6.11-0.24-9.16c-0.03-0.98,0.61-1.24,1.4-1.56c2.49-1,5.04-1.22,7.61-0.6c1.07,0.26,2.05,0.93,3.13,1.49
		c1.09,1.15,1.65,2.47,1.3,3.88c-0.36,1.46-1.08,2.83-1.65,4.24c-0.41-0.02-0.97,0.11-1.18-0.11c-0.22-0.23-0.22-0.82-0.11-1.19
		c0.36-1.19,0.83-2.34,1.27-3.63c-0.08-0.43-0.17-0.73-0.28-1.1c-0.45-0.46-0.89-0.86-1.36-1.32c-2.33-1.01-4.67-1.12-7.1-0.31
		c-1.15,0.09-1.15,0.91-1.22,1.77c-0.01,0.68-0.01,1.28-0.01,2.12c0.67-0.27,1.18-0.49,1.76-0.7c1.69-0.84,3.3-1.67,5-2.51
		c0.36,0,0.64,0,0.96,0.05c0.14,0.34,0.24,0.64,0.3,0.98c-0.26,0.25-0.45,0.49-0.71,0.63c-0.88,0.51-1.79,0.96-2.68,1.47
		c-0.2,0.11-0.32,0.34-0.48,0.53c0,0,0.01,0-0.04-0.02c-0.09,0.05-0.12,0.12-0.19,0.23c-0.11,0.46-0.17,0.88-0.27,1.35
		c-0.36,1.49-0.68,2.92-1.04,4.49c0.81-0.18,1.45-0.32,2.09-0.46c1.49-0.21,2.97-0.45,4.46-0.62c1.89-0.21,3.77-0.26,5.54,0.85
		c-0.08-1.74-0.17-3.34-0.21-4.95c-0.02-0.94,0.01-1.89,0.09-2.83c0.05-0.6,0.32-1.15,0.99-1.3c0.6-0.13,1.17-0.11,1.5,0.56
		c0.05,0.11,0.25,0.15,0.4,0.19c0.07,0.02,0.16-0.03,0.24-0.05c1.97-0.42,1.97-0.42,1.92-2.46c-0.02-0.72-0.01-1.45-0.07-2.16
		c-0.05-0.63,0.07-1.15,0.77-1.25c0.65-0.09,0.94,0.36,1.04,1.08c-0.01,1.46-0.01,2.77-0.01,4.12c0.72,0,1.29,0,1.87,0
		c0.28,0,0.55,0,1,0c0-0.91,0-1.81,0-2.71c0-0.89,0.01-1.78,0-2.67c0-0.59,0.06-1.15,0.77-1.28c0.7-0.13,0.89,0.38,1.05,1.04
		c-0.01,2.02-0.01,3.9-0.01,5.86c0.52,0.11,1.08,0.23,1.65,0.35c1.09,0.58,2.19,1.16,3.34,1.82c2.36,2.52,2.53,5.65,0.5,8.55
		c-0.6,0.86-1.22,1.7-1.84,2.55c-0.94,0.41-1.35,0.18-1.43-0.93c0.72-1.14,1.39-2.17,2.1-3.24c1.59-2.21,0.8-5.15-1.67-6.35
		c-0.4-0.19-0.77-0.34-1.19-0.52c-0.38-0.13-0.74-0.18-1.06-0.3c-0.57-0.21-0.75,0-0.71,0.62c-0.06,0.55-0.1,1.02-0.15,1.54
		c0.65-0.07,1.24-0.13,1.88-0.16c0.33,0.32,0.61,0.61,0.88,0.96c-0.09,0.71-0.51,0.95-1.2,0.91c-1.77,0.01-1.93,0.15-1.95,1.58
		c-0.13,0.88-0.25,1.69-0.39,2.72c0.88-0.48,1.58-0.86,2.34-1.25c0.45-0.23,0.84-0.44,1.24-0.64c0.93-0.47,1.35-0.27,1.56,0.81
		c-0.32,0.3-0.57,0.6-0.89,0.79c-0.87,0.53-1.78,1.02-2.73,1.52c-0.41,0.15-0.74,0.35-1.1,0.44c-0.55,0.14-0.76,0.46-0.74,1.02
		c-0.18,0.14-0.31,0.25-0.51,0.36c-0.13,0.01-0.2,0.03-0.34,0.02c-0.44-0.17-0.87-0.5-1.21-0.43c-1.16,0.27-2.29,0.69-3.5,1.05
		c-0.64,0.24-1.21,0.48-1.84,0.74c-0.92,0.73-1.25-0.22-1.74-0.57c-0.88,1.64-1.72,3.22-2.57,4.81c-0.41-0.05-0.98,0.04-1.18-0.19
		c-0.21-0.23-0.18-0.84-0.03-1.19c0.62-1.36,1.43-2.65,1.97-4.04c0.3-0.78,0.22-1.71,0.28-2.69c-0.61-0.91-1.47-1.04-2.33-1.03
		c-5.12,0.02-9.98,1.4-14.85,2.74c-0.08,0.02-0.15,0.05-0.35,0.09c-0.76,0.1-1.33-0.03-1.44-0.75c-0.1-0.71,0.44-0.91,1.02-1.03
		C141.66,92.74,141.85,92.63,142.04,92.55z M169.58,84.46c0.01-0.26,0.02-0.53,0.04-0.85c-0.67,0-1.25-0.02-1.82,0
		c-0.75,0.03-1.07,0.37-0.73,1.27c0,0.73,0,1.45,0,2.32c0.68-0.18,1.2-0.31,1.85-0.44c0.15-0.19,0.4-0.36,0.44-0.57
		C169.45,85.66,169.46,85.1,169.58,84.46z M163.44,84.36c-0.34,0.34-0.69,0.68-1.15,1.03c-0.12,0.01-0.24,0.02-0.44,0.03
		c-0.02,0.05-0.03,0.1-0.06,0.3c0.05,0.82,0.09,1.65,0.14,2.47c0.6-0.09,1.14-0.17,1.81-0.27c1.55-0.12,1.58-0.15,1.53-1.69
		c-0.01-0.33-0.03-0.66-0.02-1.14c0-0.39,0-0.78,0-1.28C164.58,84.03,164.07,84.19,163.44,84.36z M168.92,89.79
		c0.05-0.39,0.1-0.78,0.15-1.2c-1.85,0.31-1.85,0.31-1.79,1.79c-0.07,0.55-0.13,1.1-0.31,1.71c-0.94,0.28-1.29,0.07-1.4-0.85
		c-0.02-0.16-0.05-0.32-0.03-0.62c-0.05-0.4-0.09-0.81-0.14-1.23c-1.13,0.22-2.19,0.44-3.41,0.68c0.19,1.05,0.36,2.16,0.58,3.26
		c0.23,1.18,0.39,1.24,1.66,0.71c1.08-0.32,2.16-0.64,3.37-0.96c0.73-0.12,1.09-0.49,1.07-1.29
		C168.65,91.19,168.8,90.56,168.92,89.79z"/>
	<path class="st2" d="M242.27,105.52c-0.4,0.01-0.95,0.17-1.17-0.03c-0.24-0.21-0.28-0.79-0.2-1.17c0.14-0.67,0.44-1.31,0.72-2.07
		c0.1-0.34,0.15-0.57,0.23-0.89c-0.55-0.04-0.98-0.1-1.42-0.09c-4.45,0.05-8.89,0.29-13.22,1.34c-2.71,0.65-5.34,1.6-8.06,2.43
		c-0.4,0.34-0.75,0.67-1.17,1.01c-0.39,0.01-0.7,0.01-1.2,0.01c0.23,1.13,0.5,2.25,0.69,3.38c0.07,0.46-0.03,0.95-0.06,1.43
		c-0.88,0.41-1.3,0.25-1.54-0.65c-0.44-1.69-0.95-3.37-0.67-5.16c0.21-1.34,0.75-1.65,2.05-1.26c0.48,0.14,0.72-0.05,0.61-0.61
		c-0.77-3.77-1.05-7.58-1.04-11.41c0.01-1.83,0.16-3.65,0.24-5.48c0.01-0.22,0.02-0.45-0.05-0.65c-0.32-0.97-0.21-1.19,0.72-1.55
		c1.53-0.58,3.04-1.22,4.58-1.78c0.66-0.24,1.4-0.41,1.68,0.7c-0.29,0.38-0.54,0.72-0.87,0.87c-1.02,0.48-2.07,0.88-3.16,1.31
		c-0.62,0.32-1.08,0.72-1.14,1.51c-0.12,1.37-0.2,2.67-0.3,4.16c0.78-0.47,1.34-0.81,1.96-1.16c1.27-0.61,2.42-1.46,3.7-1.75
		c1.2-0.28,1.64-1.12,2.44-1.89c-0.91-0.26-1.91-0.05-2.32-1.11c-0.01-0.98,0.57-1.15,1.32-1.12c1.19,0.8,2.67,0.59,3.52-0.5
		c0.41-0.52,0.78-1.09,1.25-1.55c0.26-0.26,0.75-0.49,1.06-0.42c0.29,0.07,0.48,0.56,0.69,0.98c-0.55,0.79-1.09,1.45-1.74,2.26
		c1,0.08,1.79,0.14,2.57,0.21c0.54,0.08,1.08,0.14,1.26,0.9c-0.19,0.7-0.58,0.92-1.2,0.86c-0.63-0.06-1.26-0.06-1.97-0.12
		c-0.51-0.05-0.97,0-1.37-0.12c-0.63-0.19-0.98,0.06-1.31,0.58c-0.66,0.67-1.28,1.32-1.93,2c-0.54,0.56-1.05,1.09-1.61,1.65
		c-0.43,0.01-0.81-0.02-1.19-0.05c-0.24-0.02-0.54-0.14-0.72-0.05c-0.9,0.46-1.78,0.97-2.72,1.47c-0.25,0.26-0.46,0.51-0.73,0.78
		c-0.33,0.06-0.59,0.1-0.84,0.13c0,0.63,0,1.22,0,2.08c0.64-0.27,1.12-0.47,1.66-0.68c0.36-0.18,0.66-0.34,0.95-0.51
		c-0.01,0-0.01,0.01,0.05,0.01c0.08-0.06,0.1-0.12,0.12-0.17c-0.01,0.01,0.01,0.02,0.07,0.03c1.32-0.71,2.59-1.43,3.9-2.16
		c0.75-0.28,1.45-0.55,2.19-0.78c0.6,0.4,1.14,0.8,1.73,1.11c0.2,0.1,0.65,0.08,0.76-0.07c1.11-1.41,2.17-2.86,3.31-4.33
		c0.66-0.55,1.18-0.39,1.62,0.2c0.01,0.11,0.01,0.23-0.01,0.45c-0.2,0.39-0.35,0.7-0.55,0.96c-1.07,1.42-2.15,2.83-3.28,4.25
		c-0.05,0.15-0.12,0.33-0.05,0.41c0.36,0.45,0.75,0.87,1.16,1.35c0.71,1.02,1.45,1.96,2.08,2.96c0.3,0.48,0.41,1.09,0.65,1.78
		c0.34-0.04,0.91-0.1,1.55-0.15c0.89,0.01,1.7,0,2.51-0.01c0,0-0.01,0,0.08,0c1.1,0.02,2.11,0.04,3.12,0.06
		c0.34,0.28,0.69,0.55,1.07,0.94c0.08,0.52,0.25,0.97,0.15,1.33C243.12,103.13,242.68,104.32,242.27,105.52z M218.92,97.05
		c0,0.5-0.06,1,0.01,1.49c0.18,1.42,0.41,2.83,0.64,4.36c0.6-0.22,1.06-0.38,1.66-0.57c3.98-1.23,8.04-2.05,12.34-2.51
		c-0.94-1.27-1.79-2.43-2.67-3.69c-0.41-0.44-0.82-0.88-1.26-1.36c-1.27,1.14-2.48,2.22-3.8,3.36c-0.49,0.32-0.96,0.32-1.3-0.19
		c-0.37-0.57-0.08-1.06,0.33-1.46c0.44-0.43,0.92-0.82,1.44-1.33c0.69-0.5,1.38-1,2.18-1.59c-0.73-0.45-1.03-1.22-1.83-0.77
		c-2.1,1.18-4.19,2.38-6.4,3.6C219.86,96.59,219.45,96.8,218.92,97.05z"/>
	<path class="st2" d="M93.05,122.78c-0.45,0.41-0.96,0.65-1.45,0.13c-0.53-0.56-0.21-1.06,0.23-1.51c2.93-3.03,5.85-6.06,8.77-9.09
		c0.23-0.24,0.43-0.5,0.71-0.82c1.23-1.08,2.4-2.08,3.54-3.11c0.12-0.1,0.11-0.35,0.16-0.59c-0.12-0.6-0.23-1.13-0.38-1.8
		c-0.75,0.53-1.41,0.92-1.98,1.42c-1.92,1.68-3.84,3.37-5.69,5.13c-1.63,1.54-3.16,3.18-4.73,4.78c-0.49,0.4-1.02,0.68-1.52,0.06
		c-0.45-0.56-0.15-1.03,0.3-1.45c3.62-3.4,7.24-6.81,10.87-10.21c0.65-0.61,1.33-1.23,2.53-0.89c-0.48-1.23-0.88-2.26-1.29-3.42
		c-0.29-0.65-0.58-1.18-0.89-1.76c-0.34,0.22-0.6,0.37-0.84,0.54c-2.32,1.71-4.67,3.38-6.93,5.15c-1.7,1.32-3.29,2.78-4.92,4.18
		c-0.5,0.25-0.98,0.28-1.32-0.25c-0.33-0.52-0.11-0.97,0.32-1.32c2.82-2.26,5.63-4.53,8.49-6.75c1.49-1.16,3.06-2.23,4.69-3.38
		c0.51-0.35,0.91-0.65,1.32-0.96c-0.01-0.1-0.03-0.19-0.04-0.29c-1.35,0-2.71,0-4.06,0c-0.59-0.25-1.24-0.41-1.75-0.78
		c-0.24-0.17-0.22-0.72-0.27-1.21c0.07-0.19,0.09-0.28,0.15-0.38c0.21-0.2,0.38-0.38,0.61-0.58c0.96-0.25,1.27,0.26,1.37,1.18
		c2.02,0.06,4.03,0.18,6.05,0.17c0.6,0,1.2-0.35,1.82-0.54c-1-2.35-2.67-3.85-4.29-5.48c-0.41-0.54-0.52-1.07-0.06-1.55
		c0.5-0.52,1.08-0.44,1.63-0.03c0.05,0.2,0.11,0.4,0.18,0.72c1.41,1.75,2.8,3.38,4.26,5.08c0.13-0.08,0.4-0.26,0.67-0.44
		c0.84-0.4,1.66-0.85,2.53-1.18c0.71-0.27,1.37-0.14,1.7,0.79c-0.25,0.4-0.52,0.94-0.76,0.93c-1.04-0.04-1.74,0.58-2.57,1.08
		c-0.87,0.52-1.79,0.9-2.12,1.95c-0.06,0.2-0.49,0.42-0.73,0.4c-0.96-0.09-1.61,0.43-2.32,0.99c-0.35,0.21-0.67,0.37-0.92,0.61
		c-0.14,0.13-0.13,0.41-0.18,0.67c0.23,0.46,0.44,0.87,0.67,1.33c0.46,1.26,0.98,2.43,1.32,3.65c0.49,1.79,0.84,3.61,1.23,5.49
		c0.05,0.48,0.11,0.89,0.17,1.37c-0.02,2.01,0.15,3.96-0.08,5.88c-0.2,1.68-0.71,3.35-1.3,4.95c-0.54,1.47-1.7,2.36-3.36,2.45
		c-0.16,0.01-0.31,0.1-0.47,0.16c-0.45-0.04-1.02,0.07-1.33-0.16c-0.67-0.5-0.42-1.34,0.4-1.55c0.32-0.08,0.66-0.13,0.99-0.14
		c1.18-0.04,1.99-0.68,2.29-1.74c0.47-1.7,0.83-3.44,1.13-5.18c0.14-0.84,0.03-1.72,0.04-2.73c-0.06-0.91-0.13-1.67-0.21-2.57
		c-0.32,0.27-0.54,0.42-0.73,0.61c-2.2,2.16-4.43,4.28-6.57,6.48C96.37,119.07,94.73,120.95,93.05,122.78z"/>
	<path class="st2" d="M129.47,123.06c-0.58,0.2-1.07,0.15-1.36-0.61c0.16-0.63,0.33-1.13,0.55-1.79c-1.25,0.4-2.37,0.75-3.55,1.11
		c-0.64,0.16-1.21,0.33-1.85,0.49c-2.09,0.24-4.11,0.47-6.13,0.71c-0.85-0.11-1.33-0.37-1.76-1.35c-0.79-1.78-0.63-3.59-0.69-5.36
		c-0.15-4.22-0.08-8.45-0.06-12.67c0-0.36,0.2-0.92,0.46-1.03c0.29-0.13,0.76,0.17,1.16,0.24c0.27,0.05,0.57,0.08,0.83,0
		c3.02-0.95,6.08-1.35,9.22-0.75c1.64,0.32,3.12,0.98,4.52,2.07c2.58,2.45,3.18,5.44,2.75,8.69c-0.22,1.63-0.72,3.22-1.06,4.68
		c0.25,0.46,0.47,0.86,0.65,1.3c-0.31,0.26-0.55,0.64-0.83,0.68c-1.17,0.16-1.51,1.02-1.87,1.97
		C130.09,122.01,129.78,122.54,129.47,123.06z M125.72,111.77c-1.73,0.74-1.73,0.74-1.72,2.48c-0.17,2-0.35,4-0.53,6.16
		c0.74-0.24,1.3-0.42,2.01-0.6c1.33-0.41,2.65-0.81,3.97-1.24c0.24-0.08,0.53-0.26,0.64-0.47c1.19-2.3,1.98-4.7,1.81-7.48
		c-0.09-0.56-0.18-1.12-0.26-1.82c-0.41-1.71-1.33-3.06-2.97-4.01c-0.77-0.29-1.55-0.58-2.41-0.96c-0.37-0.08-0.74-0.16-1.09-0.23
		c-0.13,0.37-0.24,0.67-0.45,1.03c-0.12,0.14-0.34,0.28-0.34,0.42c-0.02,1.77-0.02,3.54-0.02,5.41c0.55-0.28,1.1-0.56,1.78-0.85
		c1.01-0.46,2.01-0.93,3.03-1.37c0.97-0.42,1.37-0.2,1.49,0.93c-0.29,0.24-0.55,0.54-0.88,0.7
		C128.47,110.52,127.15,111.14,125.72,111.77z M118.01,104.41c-0.85-0.08-0.78,0.89-1.33,1.17c-0.17,0.08-0.34,0.36-0.34,0.55
		c0,2.99,0.03,5.98,0.02,9.11c0.09,1.46,0.2,2.91,0.26,4.37c0.06,1.45,0.4,1.74,2.02,1.57c0.8-0.1,1.59-0.21,2.39-0.3
		c0.45-0.05,0.66-0.23,0.69-0.73c0.1-1.68,0.26-3.36,0.43-5.19c0.03-0.54,0.06-1.08,0.1-1.74c-1.33,0.57-2.62,1.01-3.8,1.66
		c-0.63,0.35-1.14,0.5-1.81,0.07c-0.34-0.79-0.21-1.17,0.54-1.54c0.32-0.16,0.65-0.3,1.1-0.46c1.13-0.45,2.25-0.93,3.4-1.34
		c0.57-0.2,0.76-0.52,0.77-1.1c0.03-1.91,0.1-3.82,0.21-5.86c0.08-0.34,0.16-0.68,0.27-1.11
		C121.24,103.63,119.65,103.76,118.01,104.41z"/>
	<path class="st3" d="M55.79,137.96c-0.34,1.05-0.58,2.14-1.03,3.14c-1.91,4.23-6.95,5.28-10.73,1.7c-0.74-0.7-1.17-1.73-1.71-2.62
		c-0.22-0.37-0.35-0.8-0.5-1.14c-0.84,0.24-1.62,0.46-2.43,0.69c-0.25,0.7-0.44,1.52-0.8,2.25c-1.82,3.64-6.39,4.03-8.84,0.79
		c-1.11-1.46-1.78-3.06-1.72-4.92c0.03-0.97,0.03-1.94,0.04-3.06c0.11-0.67,0.22-1.19,0.32-1.77c0.36-2.03,1.14-3.84,2.2-5.52
		c1.06-1.69,2.61-2.59,4.66-2.25c2.08,0.34,3.85,1.21,4.52,3.41c0.36,1.19,0.56,2.43,0.85,3.71c0.17,0.04,0.4,0.1,0.68,0.19
		c0.22,0.01,0.51,0.04,0.58-0.07c0.28-0.44,0.5-0.92,0.78-1.42c1.26-2.06,3-3.38,5.32-3.91c2.35-0.53,4.7,0.27,5.73,2.19
		c0.69,1.27,1.08,2.71,1.61,4.13c0.13,0.62,0.26,1.17,0.38,1.78c0.03,0.39,0.06,0.72,0.1,1.12
		C55.79,136.97,55.79,137.46,55.79,137.96z M54.16,134.08c-0.23-0.77-0.46-1.53-0.7-2.42c-0.22-0.47-0.41-0.96-0.67-1.41
		c-0.95-1.65-2.85-2.37-4.8-1.81c-1.85,0.46-3.25,1.53-4.22,3.15c-0.26,0.44-0.46,0.93-0.67,1.4c-0.14,0.33-0.24,0.67-0.44,1.21
		c0.02,0.05,0.13,0.32,0.25,0.62c0.43-0.09,0.81-0.17,1.34-0.23c0.47,0,0.95-0.06,1.42,0.01c0.71,0.1,1.44,0.21,2.1,0.47
		c0.23,0.09,0.28,0.61,0.42,0.93c-0.28,0.09-0.65,0.34-0.82,0.24c-1.18-0.66-2.41-0.56-3.65-0.38c-0.28,0.04-0.68,0.27-0.76,0.51
		c-0.26,0.74-0.74,1.52,0.05,2.26c0.13,0.12,0.19,0.34,0.24,0.53c0.72,2.34,2.25,3.82,4.74,4.44c0.6,0.03,1.22,0.16,1.79,0.05
		c2-0.39,3.34-1.59,4.09-3.61c0.18-0.56,0.36-1.12,0.58-1.84c0.01-0.52,0.02-1.04,0.04-1.69c-0.01-0.23-0.02-0.46-0.02-0.83
		C54.37,135.19,54.27,134.71,54.16,134.08z M30.45,130.5c-0.29,0.98-0.59,1.96-0.97,3.04c-0.07,0.7-0.15,1.39-0.21,2.24
		c0,0.69,0,1.39,0,2.08c-0.02,1.89,0.73,3.46,2.05,4.75c1.26,1.23,2.93,1.53,4.64,0.53c1.13-0.66,1.57-1.82,2.11-2.91
		c0.18-0.36,0.53-0.99,0.43-1.08c-0.6-0.54-0.3-1.24-0.46-1.85c-0.3-1.13-1.45-1.88-2.63-1.63c-0.39,0.08-0.73,0.4-1.12,0.47
		c-0.3,0.05-0.63-0.12-0.95-0.19c0.08-0.31,0.11-0.65,0.26-0.92c0.09-0.15,0.38-0.19,0.59-0.27c1.29-0.48,2.55-0.31,3.64,0.26
		c0.46-0.73,0.89-1.37,1.27-2.04c0.14-0.25,0.28-0.59,0.24-0.85c-0.18-1.03-0.44-2.05-0.7-3.19c-0.64-1.76-2.12-2.32-3.77-2.52
		c-1.48-0.18-2.54,0.61-3.27,1.83C31.19,128.97,30.89,129.71,30.45,130.5z M41.74,135.83c-0.21-0.61-0.34-1.27-0.66-1.83
		c-0.28-0.5-0.77-0.46-1.2-0.05c-0.91,0.86-1.19,2.91-0.54,3.99c0.46,0.77,1.13,0.79,1.54,0C41.22,137.3,41.46,136.62,41.74,135.83z
		"/>
	<path class="st4" d="M145.53,119.41c-0.95,0.32-1.46,0.04-1.47-1.01c-0.02-2.61,0-5.21,0.09-7.82c0.07-2.22,0.25-4.44,0.33-6.73
		c-0.05-0.08-0.06-0.07-0.06-0.07c0.22-0.96,0.53-1.92,0.03-2.89c-0.05-0.1-0.11-0.23-0.08-0.32c0.28-0.73,0.48-1.52,0.9-2.16
		c0.28-0.43,0.82-0.29,1.26,0.05c0.2,0.16,0.52,0.32,0.75,0.29c2.52-0.35,4.74,0.31,6.75,2.01c1.36,1.33,2.36,2.82,2.98,4.49
		c0.63,1.68,1.07,3.43,1.59,5.21c0.11,0.59,0.22,1.1,0.32,1.7c0.02,0.49,0.05,0.9,0.08,1.32c0.14,1.92,0.18,3.82-0.32,5.7
		c-0.29,1.1-0.89,1.96-1.88,2.54c-0.26,0.15-0.5,0.34-0.74,0.51c-0.57,0.26-1.06,0.18-1.34-0.4c-0.27-0.56,0.03-1.01,0.53-1.23
		c1.58-0.69,1.95-2.04,1.99-3.55c0.04-1.3-0.02-2.61-0.06-4.05c-0.09-0.6-0.15-1.06-0.24-1.63c-3.25,1.37-6.41,2.7-9.62,4.04
		c-0.42,0.15-0.78,0.3-1.21,0.47c-0.19,0.17-0.4,0.31-0.4,0.47c-0.01,0.58,0.08,1.16,0.06,1.74
		C145.75,118.53,145.62,118.97,145.53,119.41z M148.28,100.44c-1.63,0.31-1.63,0.31-1.85,2.03c-0.09,1.47-0.17,2.95-0.26,4.52
		c0.66,0,1.19,0,1.86,0c2.3-0.61,4.6-1.23,6.91-1.84c-0.49-1.46-1.83-3.02-3.22-3.88C150.72,100.59,149.56,100.55,148.28,100.44z
		 M156.2,107.98c-0.47-1.3-0.46-1.28-1.81-0.9c-2.74,0.77-5.48,1.51-8.4,2.3c-0.08,1.29-0.18,2.8-0.28,4.37
		c0.67-0.15,1.25-0.27,1.96-0.43c2.91-1.2,5.83-2.4,8.79-3.62C156.37,109.12,156.28,108.62,156.2,107.98z"/>
	<path class="st4" d="M111.78,90.09c-0.6,0.23-1.18,0.19-1.48-0.41c-0.15-0.29-0.14-0.78,0.02-1.06c0.3-0.53,0.78-0.83,1.47-0.55
		c0.23,0.09,0.55,0.03,0.8-0.05c1.86-0.54,3.72-1.11,5.59-1.64c0.53-0.15,0.66-0.41,0.64-0.94c-0.04-1.13-0.02-2.27,0.04-3.4
		c0.03-0.57,0.37-1,0.99-1.06c0.59-0.06,0.94,0.24,1.03,0.93c-0.6,1.25-0.38,2.43-0.22,3.69c0.61-0.21,1.13-0.39,1.64-0.56
		c1.19-0.37,2.39-0.7,3.55-1.14c0.26-0.1,0.53-0.54,0.56-0.84c0.14-1.49,0.22-2.98,0.27-4.47c0.02-0.57,0.18-1.01,0.75-1.12
		c0.59-0.11,0.93,0.23,1.05,0.93c-0.03,0.8-0.04,1.45-0.07,2.11c-0.05,1.26-0.56,2.57,0.44,3.7c0.03,0.04,0.03,0.1,0.02,0.22
		c-0.12,0.25-0.18,0.52-0.33,0.61c-0.62,0.36-0.68,0.93-0.71,1.61c-0.36,2.78-0.7,5.5-1.07,8.21c-0.19,1.42-0.43,2.84-0.64,4.25
		c-0.4,0.05-0.87,0.24-1.19,0.1c-0.23-0.1-0.42-0.65-0.39-0.97c0.43-3.57,0.91-7.13,1.4-10.83c0.07-0.64,0.11-1.14,0.16-1.74
		c-1.34,0.45-2.57,0.85-3.85,1.27c-1.48,0.48-1.48,0.48-1.27,1.87c0.09,0.67,0.25,1.27,0.26,1.87c0.03,1,0.58,2,0.01,3.01
		c-0.96,0.32-1.35,0.1-1.49-0.86c-0.17-1.09-0.32-2.18-0.49-3.4c-0.09-0.54-0.16-0.94-0.26-1.43
		C116.59,88.7,114.18,89.39,111.78,90.09z"/>
	<path class="st4" d="M228.46,107.64c-0.08,0.02-0.16,0.04-0.24,0.06c-0.63,0.21-1.26,0.27-1.47-0.54c-0.2-0.79,0.38-1.09,1.02-1.21
		c1.08-0.2,2.17-0.41,3.26-0.51c0.79-0.07,1.53,0.18,2.09,0.97c0.44,0.87,0.33,1.64-0.04,2.34c-0.54,1.03-1.21,1.98-1.74,3.02
		c-0.19,0.36-0.3,0.94-0.14,1.27c0.51,1.03,1.16,2,1.79,3.04c0.31-0.11,0.64-0.22,0.98-0.34c1.13-0.31,2.27-0.61,3.39-0.94
		c0.82-0.24,1.63-0.52,2.44-0.78c0.73-0.24,1.26-0.09,1.39,0.86c-0.36,0.37-0.66,0.73-1.03,0.86c-1.77,0.6-3.56,1.14-5.41,1.71
		c-1.36,0.38-1.36,0.38-1.25,1.74c0,3.03-1.99,5.23-4.72,5.79c-0.84,0.17-1.67,0.35-2.51,0.52c-0.19,0.03-0.38,0.08-0.58,0.09
		c-0.56,0.04-0.94-0.23-1.02-0.77c-0.08-0.55,0.25-0.9,0.78-1.01c0.98-0.2,1.98-0.33,2.95-0.56c1.79-0.42,2.96-1.47,3.28-3.48
		c0-0.54-0.02-0.96-0.06-1.49c-3.17,0.82-6.18,1.59-9.2,2.37c-0.22,0.03-0.5,0.16-0.65,0.08c-0.37-0.22-0.86-0.48-0.97-0.82
		c-0.16-0.55,0.29-0.9,0.84-1.03c2.99-0.72,5.98-1.44,8.98-2.16c0.13-0.03,0.26-0.1,0.53-0.21c-0.39-0.66-0.7-1.33-1.14-1.91
		c-1.04-1.39-1.03-2.73-0.01-4.13c0.43-0.59,0.74-1.28,1.19-1.99c0.22-0.4,0.35-0.74,0.49-1.07c-0.06-0.1-0.11-0.2-0.17-0.29
		C230.51,107.28,229.48,107.46,228.46,107.64z"/>
	<path class="st2" d="M166.65,101.99c0.03,0.16,0.06,0.31,0.04,0.56c-0.28,0.44-0.71,0.78-0.73,1.13c-0.1,1.98,0.01,3.95,0.53,5.74
		c0.62,0.21,1.12,0.38,1.69,0.54c1.35-0.51,2.68-0.95,3.92-1.55c1.3-0.63,2.25-1.67,2.91-3.04c0.26-0.78-0.37-0.75-0.74-0.78
		c-1.98-0.19-3.93,0-5.82,0.67c-0.27,0.1-0.46,0.42-0.74,0.66c-0.09,0.1-0.14,0.18-0.25,0.27c-0.44-0.15-1.11-0.26-1.13-0.47
		c-0.06-0.45,0.04-1.1,0.35-1.39c0.48-0.45,1.17-0.66,1.78-0.97c1.76-0.2,3.52-0.48,5.29-0.58c1.02-0.06,2.06,0.17,2.82,1.19
		c0.48,1.09,0.24,2.01-0.32,2.84c-0.32,0.46-0.49,0.9-0.36,1.48c-0.45,0.34-0.85,0.65-1.25,0.97c-0.9,0.7-1.79,1.4-2.74,2.13
		c-0.46,0.06-1,0.24-1.24,0.05c-0.42-0.34-0.69-0.29-1.1-0.02c-2.07,0.73-1.63,0.41-1.57,2.08c0.2,2.02,0.83,3.85,1.66,5.61
		c0.2,0.42,0.3,0.88,0.39,1.35c-0.48,0.17-0.92,0.3-1.35,0.44c-0.09-0.09-0.18-0.19-0.26-0.41c0.01-0.21,0.02-0.3,0-0.37
		c-0.56-1.59-1.13-3.17-1.71-4.75c-0.02-0.06-0.13-0.08-0.2-0.12c-0.02-0.07-0.05-0.15-0.02-0.32c-0.02-0.29-0.09-0.49-0.15-0.68
		c-0.02-0.07-0.04-0.15-0.01-0.32c0.01-0.49-0.04-0.87-0.11-1.43c-0.37,0.13-0.65,0.24-0.94,0.34c-0.37-0.03-0.75-0.06-1.15-0.2
		c-0.12-0.26-0.21-0.41-0.31-0.55c0.19-0.33,0.31-0.78,0.6-0.98c0.45-0.31,0.47-0.6,0.4-1.1c-0.27-1.94-0.51-3.89-0.67-5.85
		c-0.07-0.82,0.05-1.68,0.85-2.35C165.67,101.43,166.21,101.43,166.65,101.99z"/>
	<path class="st5" d="M168.7,120.99c0.42-0.21,0.85-0.35,1.39-0.55c0.41-0.6,0.72-1.14,1.06-1.73c1.37-2.55,2.71-5.06,4.09-7.61
		c0.08-0.14,0.12-0.24,0.19-0.4c0.31-0.86,0.58-1.66,0.9-2.51c0.43-0.61,0.94-0.84,1.61-0.61c0.11,0.29,0.23,0.58,0.3,0.97
		c-0.19,0.36-0.37,0.62-0.47,0.9c-1.2,3.57-3.09,6.79-5,10c-0.17,0.29-0.31,0.59-0.56,1.06c1.06-0.28,1.9-0.5,2.75-0.72
		c1.75-0.48,3.5-0.97,5.25-1.45c0.53-0.15,1.06-0.31,1.59-0.47c0.72-0.23,1.19-0.01,1.33,0.88c-0.3,0.35-0.54,0.69-0.87,0.81
		c-0.93,0.34-1.89,0.6-2.84,0.87c-2.04,0.58-4.07,1.15-6.18,1.71c-0.64,0.13-1.21,0.28-1.86,0.43c-0.45,0.07-0.84,0.13-1.22,0.2
		c-1.96,0.33-3.93,0.66-5.89,0.99c-0.14-0.01-0.3,0.03-0.41-0.03c-0.42-0.21-0.89-0.38-1.2-0.7c-0.13-0.13-0.01-0.77,0.16-0.87
		c0.42-0.24,0.94-0.33,1.43-0.41C165.74,121.5,167.23,121.29,168.7,120.99z"/>
	<path class="st4" d="M239.05,99.58c0,0,0,0,0.06-0.06c-0.33-0.66-0.31-1.25-0.09-1.92c0.31-0.93,0.51-1.9,0.79-2.91
		c0.12-0.62,0.22-1.17,0.33-1.86c-1.77,0.75-3.39,1.44-5.07,2.15c-1.29,0.21-1.6-0.06-1.53-1.32c0.15-0.19,0.24-0.38,0.42-0.55
		c0.41,0,0.77,0.07,1.06-0.05c1.65-0.68,3.29-1.41,4.99-2.12c0.14-0.42,0.23-0.84,0.35-1.42c-1.38,0.26-2.55,0.49-3.78,0.72
		c-0.35,0.09-0.63,0.17-0.96,0.21c-0.9-0.72-0.8-1.47,0.19-1.88c0.23-0.09,0.46-0.16,0.69-0.24c1.13-0.15,2.25-0.3,3.36-0.45
		c0.22-2.01-1.75-4.74-3.68-5.17c-0.53-0.12-0.88-0.42-0.83-0.97c0.06-0.58,0.51-0.97,1.05-0.8c0.86,0.26,1.66,0.7,2.54,1.15
		c1.45,1.38,2.24,3,2.69,4.8c0.35,1.44,0.36,2.97,1.01,4.4c-0.67,0.67-0.75,1.48-0.8,2.37c-0.42,1.64-0.82,3.21-1.22,4.78
		c-0.17,0.67-0.49,1.1-1.28,0.94C239.27,99.36,239.15,99.51,239.05,99.58z"/>
	<path class="st2" d="M193.34,113.12c-0.45-0.07-1,0-1.3-0.25c-0.24-0.2-0.38-0.97-0.21-1.13c0.37-0.36,0.99-0.76,1.45-0.7
		c1.44,0.21,2.62-0.53,3.91-0.85c0.12-0.03,0.2-0.42,0.2-0.65c0.11-3.07,0.2-6.14,0.31-9.21c0.02-0.49,0.12-0.97,0.22-1.57
		c0.2-0.59,0.37-1.06,0.59-1.53c0.21-0.05,0.36-0.1,0.58-0.15c0.64,0.19,0.8,0.57,0.72,1.16c-0.13,0.99-0.24,1.98-0.28,2.98
		c-0.09,2.11-0.12,4.22-0.2,6.33c-0.02,0.62-0.09,1.23-0.16,2.01c0.73-0.29,1.29-0.51,1.85-0.73c2.12-0.88,4.24-1.75,6.36-2.63
		c0.7-0.29,1.25-0.25,1.49,0.7c-0.19,0.35-0.33,0.69-0.56,0.79c-2.99,1.26-5.96,2.55-9,3.68
		C197.37,112.09,195.33,112.54,193.34,113.12z"/>
	<path class="st6" d="M55.85,137.97c-0.06-0.5-0.06-1,0.01-1.56c0.5-0.17,0.94-0.27,1.36-0.39c8.21-2.31,14.63-6.98,18.86-14.44
		c0.88-1.55,1.4-3.3,2.16-4.97c0.58-0.01,1.09-0.02,1.6-0.02c-3.32,10.26-10.4,16.78-20.41,20.36
		C58.28,137.35,57.09,137.63,55.85,137.97z"/>
	<path class="st7" d="M107.15,109.4c-0.41-1.81-0.76-3.63-1.25-5.42c-0.33-1.23-0.86-2.4-1.29-3.71c0.27-0.25,0.53-0.39,0.79-0.53
		c0.57,1.16,1.26,2.27,1.7,3.48c1.6,4.4,2.28,8.96,1.98,13.63c-0.14,2.17-0.51,4.34-1.69,6.27c-0.64,1.05-1.49,1.68-2.7,1.86
		c-0.44,0.07-0.87,0.17-1.3,0.24c-0.67,0.1-1.15-0.11-1.29-0.9c0.15-0.12,0.31-0.21,0.46-0.22c1.66-0.09,2.82-0.98,3.36-2.45
		c0.59-1.6,1.1-3.27,1.3-4.95c0.22-1.91,0.06-3.87,0.13-5.89C107.95,110.01,107.89,109.71,107.15,109.4z"/>
	<path class="st8" d="M217.44,110.93c0-0.54,0.11-1.03,0.03-1.49c-0.18-1.13-0.45-2.26-0.69-3.38c0.5,0,0.82,0,1.25,0.02
		c0.22,0.16,0.32,0.31,0.57,0.67c0.26-0.75,0.43-1.24,0.6-1.73c2.67-0.82,5.3-1.76,8.01-2.42c4.33-1.04,8.77-1.29,13.22-1.34
		c0.44-0.01,0.87,0.05,1.42,0.09c-0.08,0.33-0.13,0.55-0.22,0.82c-6.45,0.14-12.76,0.91-18.85,3.03c-1.05,0.37-2.2,0.57-2.94,1.59
		c-0.17,0.23-0.74,0.17-1.27,0.27c0.22,1.07,0.42,2.2,0.68,3.32c0.15,0.67,0.3,1.33-0.53,1.58
		C217.93,112.22,217.67,111.59,217.44,110.93z"/>
	<path class="st6" d="M28.39,133.1c-0.11,0.52-0.21,1.04-0.33,1.63c-6.94-3.11-12.11-8.05-15.23-15.05c-0.18-0.4-0.36-0.81-0.54-1.3
		c0.58-0.1,1.15-0.11,1.7-0.07c0.01,0.19,0.03,0.33,0.08,0.46c2.8,6.44,7.45,11.11,13.71,14.24
		C27.95,133.1,28.19,133.07,28.39,133.1z"/>
	<path class="st4" d="M93.06,95.22c-0.5,0.29-0.98,0.27-1.32-0.23c-0.34-0.51-0.12-0.94,0.3-1.31c4.05-3.63,8.1-7.27,12.16-10.89
		c0.41-0.36,0.89-0.69,1.38-0.91c0.85-0.38,1.36-0.13,1.68,0.82c-0.21,0.33-0.38,0.6-0.62,0.76c-0.61,0.4-1.31,0.69-1.88,1.14
		c-1.3,1.03-2.59,2.1-3.81,3.22C98.31,90.27,95.69,92.76,93.06,95.22z"/>
	<path class="st7" d="M156.11,122.28c0.2-0.21,0.44-0.4,0.69-0.55c0.99-0.58,1.59-1.44,1.88-2.54c0.5-1.88,0.47-3.79,0.32-5.7
		c-0.03-0.41-0.06-0.83-0.01-1.32c0.93-0.42,1.21-1.02,0.67-1.5c-0.24-0.21-0.69-0.18-1.05-0.26c-0.52-1.72-0.97-3.47-1.6-5.14
		c-0.63-1.67-1.62-3.16-2.93-4.46c1.32,0.16,2.07,1.18,2.8,2.12c2.05,2.63,3.05,5.72,3.5,8.96c0.29,2.05,0.31,4.14,0.34,6.21
		c0.01,0.78-0.23,1.58-0.43,2.36c-0.36,1.39-1.46,2.13-2.64,2.72C156.84,123.59,156.48,122.92,156.11,122.28z"/>
	<path class="st7" d="M93.11,95.26c2.58-2.5,5.19-4.98,7.85-7.42c1.23-1.13,2.51-2.19,3.81-3.22c0.57-0.45,1.27-0.74,1.88-1.14
		c0.24-0.16,0.4-0.43,0.63-0.7c0.36-0.05,0.72-0.13,1.01-0.02c0.26,0.1,0.59,0.4,0.62,0.64c0.03,0.29-0.15,0.82-0.36,0.9
		c-1.66,0.57-2.73,1.92-4.05,2.94c-0.07,0.05-0.13,0.1-0.26,0.16c-0.61-0.39-1.19-0.48-1.69,0.05c-0.45,0.47-0.35,1,0,1.56
		c-0.24,0.17-0.46,0.23-0.62,0.37c-1.39,1.25-2.77,2.52-4.13,3.79c-0.12,0.11-0.14,0.34-0.21,0.51c-0.17,0.18-0.33,0.37-0.61,0.56
		c-0.26,0.12-0.41,0.23-0.56,0.34c-0.42,0.39-0.85,0.77-1.27,1.17C94.26,96.61,93.62,96.47,93.11,95.26z"/>
	<path class="st9" d="M93.05,122.86c1.68-1.91,3.32-3.79,5.05-5.57c2.15-2.2,4.38-4.33,6.57-6.48c0.19-0.19,0.41-0.34,0.73-0.61
		c0.08,0.9,0.15,1.66,0.2,2.49c-0.26,0.24-0.54,0.37-0.75,0.57c-2.26,2.25-4.53,4.49-6.77,6.76c-1.12,1.15-2.14,2.39-3.27,3.53
		c-0.28,0.28-0.85,0.49-1.21,0.41C93.36,123.91,93.23,123.3,93.05,122.86z"/>
	<path class="st7" d="M92.22,117.39c1.58-1.67,3.11-3.31,4.73-4.86c1.85-1.76,3.77-3.44,5.69-5.13c0.57-0.5,1.24-0.9,1.98-1.42
		c0.15,0.67,0.26,1.2,0.32,1.82c-1.27,1.15-2.48,2.2-3.69,3.26c-2.33,2.24-4.65,4.49-6.98,6.73c-0.16,0.15-0.29,0.38-0.48,0.45
		c-0.36,0.14-0.84,0.36-1.1,0.23C92.44,118.35,92.37,117.82,92.22,117.39z"/>
	<path class="st7" d="M89.57,109.57c1.59-1.44,3.18-2.9,4.87-4.22c2.27-1.77,4.62-3.44,6.93-5.15c0.24-0.18,0.5-0.33,0.84-0.54
		c0.31,0.58,0.6,1.11,0.88,1.69c-0.55,0.36-1.14,0.6-1.63,0.98c-3.33,2.6-6.65,5.23-9.96,7.87
		C90.69,110.86,90.12,110.7,89.57,109.57z"/>
	<path class="st7" d="M201.04,108.76c-0.57,0.3-1.13,0.52-1.86,0.81c0.06-0.78,0.13-1.39,0.16-2.01c0.07-2.11,0.11-4.22,0.2-6.33
		c0.04-1,0.15-1.99,0.28-2.98c0.08-0.59-0.09-0.98-0.69-1.22c0.85-0.26,1.74-0.45,2.61-0.69c0.68-0.19,1.32-0.47,1.5-1.27
		c0.22,0,0.47-0.06,0.66,0.02c0.34,0.15,0.9,0.35,0.92,0.58c0.03,0.39-0.16,1.05-0.45,1.18c-0.76,0.36-1.62,0.49-2.43,0.72
		c-0.28,0.08-0.57,0.17-0.6,0.33c0.02,0.64,0.08,1.28,0.07,1.91c-0.04,1.47-0.12,2.93-0.18,4.4
		C201.15,105.69,201.1,107.18,201.04,108.76z"/>
	<path class="st8" d="M193.35,113.17c1.99-0.63,4.03-1.08,5.97-1.8c3.04-1.13,6.01-2.42,9-3.68c0.24-0.1,0.37-0.45,0.57-0.73
		c0.24-0.05,0.5-0.11,0.68-0.02c0.35,0.18,0.81,0.38,0.95,0.69c0.22,0.47-0.07,0.88-0.6,1.09c-2.54,1.03-5.04,2.18-7.62,3.11
		c-2.34,0.84-4.76,1.47-7.16,2.16C194.39,114.21,193.71,114.05,193.35,113.17z"/>
	<path class="st9" d="M126.15,99.18c0.21-1.49,0.45-2.91,0.64-4.33c0.36-2.71,0.7-5.43,1.13-8.21c0.64-0.13,1.2-0.19,1.76-0.25
		c-0.22,1.84-0.44,3.68-0.67,5.51c-0.31,2.44-0.65,4.87-0.95,7.31c-0.07,0.59-0.25,1.09-0.88,1.11
		C126.51,100.35,126.2,99.89,126.15,99.18z"/>
	<path class="st7" d="M174.97,119.73c-0.85,0.28-1.7,0.51-2.75,0.78c0.24-0.46,0.39-0.77,0.56-1.06c1.9-3.22,3.8-6.43,5-10
		c0.09-0.28,0.28-0.54,0.47-0.84c0.29-0.09,0.53-0.18,0.77-0.19c0.69-0.04,1.16,0.6,0.9,1.23c-0.65,1.52-1.25,3.07-1.98,4.55
		c-0.84,1.68-1.81,3.3-2.72,4.94C175.11,119.31,175.05,119.5,174.97,119.73z"/>
	<path class="st9" d="M133.18,118.76c-0.22-0.4-0.44-0.81-0.69-1.27c0.34-1.46,0.85-3.05,1.06-4.68c0.43-3.25-0.17-6.25-2.7-8.67
		c1.39,0.31,2.32,1.31,3.06,2.44c1.73,2.63,1.73,5.55,1.18,8.5c-0.21,1.13-0.63,2.23-0.97,3.42c0.06,0.04,0.19,0.13,0.31,0.22
		c0.64,0.52,0.58,1.23-0.17,1.58c-0.3,0.14-0.63,0.2-1.01,0.22c0.15-0.65,0.37-1.24,0.62-1.91
		C133.55,118.69,133.37,118.72,133.18,118.76z"/>
	<path class="st5" d="M164.74,101.37c-0.52,0.32-1,0.34-1.37-0.22c-0.33-0.5-0.17-1.29,0.32-1.63c0.18-0.13,0.38-0.23,0.59-0.29
		c2.81-0.93,5.62-1.88,8.45-2.77c1.27-0.4,1.58-0.24,2.08,0.76c-0.09,0.35-0.14,0.61-0.28,0.8c-0.65,0.96-1.01,1.02-2.01,0.51
		c-0.16-0.08-0.42-0.03-0.61,0.03c-2.1,0.68-4.21,1.35-6.29,2.07C165.28,100.74,165.03,101.12,164.74,101.37z"/>
	<path class="st4" d="M142.33,103.19c-0.93,0.4-1.28-0.12-1.57-0.9c-0.93-2.49-2.05-4.92-2.3-7.59c-0.08-0.86-0.02-1.77,0.2-2.6
		c0.1-0.36,0.74-0.69,1.19-0.79c0.19-0.04,0.52,0.55,0.75,0.96c-0.72,0.97-0.53,1.99-0.29,2.88c0.62,2.23,1.38,4.41,2.15,6.6
		C142.64,102.29,142.69,102.73,142.33,103.19z"/>
	<path class="st5" d="M203.21,95c-0.16,0.87-0.81,1.14-1.49,1.33c-0.87,0.24-1.76,0.43-2.67,0.69c-0.19,0.11-0.34,0.16-0.63,0.21
		c-1.79,0.35-3.44,0.7-5.1,1.05c-0.11,0.01-0.22,0.02-0.33,0.03c-0.79,0.04-1.3-0.32-1.32-0.93c-0.02-0.56,0.65-1.08,1.34-1.12
		c0.87-0.05,1.77-0.06,2.61-0.28c2.02-0.51,4.01-1.13,6.02-1.72C202.57,94,202.84,94.1,203.21,95z"/>
	<path class="st9" d="M175.31,95.4c0.56-0.89,1.19-1.73,1.79-2.59c2.02-2.9,1.86-6.03-0.45-8.53c1.53,0.35,2.46,1.46,3.08,2.83
		c1.07,2.39,0.47,4.59-0.91,6.66c-0.46,0.69-1,1.32-1.47,2.01c-0.31,0.45-0.69,0.84-1.21,0.59
		C175.81,96.22,175.62,95.76,175.31,95.4z"/>
	<path class="st7" d="M142.21,94.54c4.88-1.41,9.75-2.8,14.87-2.81c0.87,0,1.72,0.13,2.3,0.97c-2.88-0.19-5.68,0.33-8.46,0.95
		c-2.51,0.56-5,1.21-7.49,1.82C142.62,95.66,142.32,95.44,142.21,94.54z"/>
	<path class="st10" d="M10.42,109.9c0.6,0.01,1.13,0.01,1.8,0c1.89-0.01,3.64-0.03,5.39,0.02c0.26,0.01,0.51,0.37,0.76,0.57
		c-0.23,0.23-0.43,0.5-0.69,0.66c-0.17,0.1-0.43,0.05-0.65,0.05c-1.58,0.02-3.16,0.03-4.82,0.04c-0.57,0.01-1.07,0.02-1.56,0.04
		c-2.03,0-4.06,0-6.09,0.02c-0.53,0.01-1.01-0.08-1-0.7c0.01-0.62,0.51-0.68,1.03-0.68C6.51,109.92,8.43,109.9,10.42,109.9z"/>
	<path class="st7" d="M226.29,125.56c0.82-0.24,1.66-0.41,2.49-0.58c2.73-0.56,4.72-2.76,4.78-5.8c0.57-0.2,1.07-0.31,1.56-0.43
		c0.26,1.31,0.17,2.58-0.39,3.8c-0.73,1.6-1.91,2.71-3.61,3.18c-1.11,0.31-2.26,0.48-3.4,0.7
		C227.03,126.56,226.52,126.35,226.29,125.56z"/>
	<path class="st10" d="M79.9,116.57c-0.57,0.02-1.07,0.02-1.74,0.03c-1.64,0.06-3.13,0.11-4.7,0.16c-0.64-0.01-1.2-0.01-1.84,0
		c-1.46,0.04-2.85,0.08-4.23,0.11c-0.47,0.01-0.94-0.05-0.95-0.66c-0.01-0.61,0.45-0.65,0.93-0.67c1.69-0.05,3.38-0.11,5.15-0.15
		c0.62,0.01,1.16,0.02,1.77,0.01c1.54-0.11,3-0.21,4.46-0.31c0.46,0.06,0.91,0.11,1.43,0.17C80.82,115.93,80.77,116.16,79.9,116.57z
		"/>
	<path class="st10" d="M14.02,118.26c-0.58,0.02-1.15,0.03-1.77,0.08c-1.97,0.17-3.91,0.31-5.84,0.44c-0.5,0.03-1.11,0.1-1.16-0.6
		c-0.05-0.68,0.52-0.73,1.05-0.76c1.74-0.11,3.48-0.24,5.37-0.34c0.67-0.05,1.19-0.11,1.78-0.17c1.54-0.09,3-0.21,4.46-0.24
		c0.32-0.01,0.86,0.3,0.92,0.55c0.13,0.55-0.34,0.7-0.84,0.73C16.66,118.05,15.34,118.16,14.02,118.26z"/>
	<path class="st8" d="M149.71,85.05c0.16-0.18,0.29-0.41,0.48-0.52c0.88-0.51,1.79-0.97,2.68-1.47c0.25-0.14,0.45-0.39,0.77-0.63
		c0.6-0.04,1.11-0.04,1.61-0.04c0.09,0.31,0.19,0.62,0.25,0.98c-1.31,0.79-2.61,1.5-3.88,2.26c-0.2,0.12-0.37,0.4-0.43,0.63
		c-0.33,1.42-0.63,2.84-0.93,4.33c-0.64,0.2-1.28,0.34-2.09,0.52c0.36-1.56,0.68-3,1.1-4.49c0.3-0.13,0.54-0.15,0.71-0.27
		c0.37-0.26,1.04-0.6,1.01-0.84C150.91,84.73,150.17,85.17,149.71,85.05z"/>
	<path class="st11" d="M236.48,88.27c-0.21,0.13-0.45,0.2-0.68,0.3c-0.99,0.41-1.09,1.16-0.2,1.93c-0.55,0.92-1.13,1.76-1.72,2.59
		c-0.1,0.19-0.19,0.38-0.4,0.59c-0.7,0.32-0.91,0.68-0.34,1.21c0.2,0.19,0.36,0.42,0.52,0.64c0.94,1.34,1.87,2.69,2.81,4.04
		c-0.57,0.07-1.14,0.13-1.48,0.17c-0.24-0.69-0.34-1.3-0.65-1.78c-0.63-1-1.36-1.94-2.06-3.02c0.32-0.78-0.06-1.36-1.07-1.72
		c1.08-1.41,2.16-2.82,3.23-4.24c0.2-0.26,0.35-0.57,0.55-0.9C235.51,88.09,235.98,88.15,236.48,88.27z"/>
	<path class="st8" d="M164.79,101.41c0.25-0.29,0.5-0.67,0.84-0.79c2.08-0.72,4.19-1.4,6.29-2.07c0.19-0.06,0.45-0.11,0.61-0.03
		c1,0.52,1.36,0.45,2.01-0.51c0.13-0.2,0.18-0.45,0.29-0.74c0.3-0.05,0.61-0.12,0.84-0.02c0.3,0.13,0.66,0.34,0.78,0.61
		c0.33,0.76-0.25,1.23-0.73,1.69c-0.4,0.39-0.85,0.45-1.36,0.14c-0.22-0.14-0.58-0.22-0.81-0.15c-2.09,0.65-4.17,1.34-6.25,2.02
		c-0.2,0.07-0.37,0.22-0.6,0.38c-0.49-0.51-1.03-0.5-1.67-0.17C164.92,101.66,164.88,101.56,164.79,101.41z"/>
	<path class="st7" d="M173.31,122.14c2.04-0.57,4.08-1.14,6.11-1.72c0.95-0.27,1.91-0.53,2.84-0.87c0.33-0.12,0.57-0.46,0.88-0.75
		c0.21-0.08,0.44-0.2,0.58-0.13c0.38,0.18,0.87,0.37,1.05,0.7c0.22,0.41,0,0.9-0.52,1.04c-3.65,0.97-7.31,1.93-11.04,2.83
		c-0.08-0.14-0.08-0.23-0.08-0.37C173.2,122.59,173.26,122.37,173.31,122.14z"/>
	<path class="st7" d="M233.96,115.68c-0.33,0.17-0.66,0.29-0.97,0.4c-0.63-1.05-1.29-2.01-1.79-3.04c-0.16-0.33-0.04-0.91,0.14-1.27
		c0.53-1.03,1.2-1.99,1.74-3.02c0.37-0.7,0.49-1.47,0.08-2.29c1.63,0.15,2.39,1.22,1.81,2.74c-0.38,1-0.92,1.96-1.52,2.84
		c-0.62,0.92-0.93,1.74-0.04,2.65C233.64,114.95,233.77,115.31,233.96,115.68z"/>
	<path class="st11" d="M142.38,103.23c0.31-0.5,0.26-0.94,0.07-1.49c-0.76-2.18-1.52-4.37-2.15-6.6c-0.25-0.89-0.44-1.91,0.29-2.82
		c0.52-0.14,1.02-0.46,1.44,0.16c-0.19,0.14-0.38,0.25-0.58,0.29c-0.58,0.12-1.12,0.32-1.02,1.03c0.11,0.73,0.67,0.85,1.38,0.78
		c0.17,2.42,1.05,4.63,1.89,6.85c0.27,0.72,0.47,1.46,0.71,2.28c0.01,0.08,0.02,0.07,0.02,0.07
		C143.39,104.51,143,104.41,142.38,103.23z"/>
	<path class="st8" d="M147.38,115.42c3.15-1.33,6.31-2.66,9.56-4.03c0.08,0.58,0.15,1.04,0.22,1.56c-1.74,0.78-3.48,1.51-5.23,2.2
		c-1.44,0.57-2.91,1.09-4.44,1.63c-0.08,0-0.11-0.03-0.11-0.11C147.39,116.21,147.39,115.81,147.38,115.42z"/>
	<path class="st9" d="M155.59,88.39c0.51-1.45,1.23-2.82,1.6-4.28c0.35-1.41-0.21-2.73-1.25-3.85c1.76,0.15,3.41,2.72,3.05,4.39
		c-0.29,1.33-0.87,2.61-1.33,3.9c-0.19,0.54-0.55,1.02-1.15,0.81C156.15,89.24,155.93,88.76,155.59,88.39z"/>
	<path class="st9" d="M239.14,99.58c0.02-0.07,0.13-0.22,0.21-0.2c0.79,0.16,1.11-0.27,1.28-0.94c0.4-1.57,0.8-3.14,1.28-4.78
		c0.63-0.25,1.17-0.42,1.72-0.6c0.04,2.25-0.7,4.34-1.35,6.52C241.24,99.62,240.23,99.6,239.14,99.58z"/>
	<path class="st8" d="M222.44,120.72c3.02-0.84,6.03-1.62,9.2-2.44c0.04,0.53,0.06,0.95,0.06,1.43c-1.78,0.47-3.52,0.88-5.26,1.29
		c-0.78,0.19-1.55,0.4-2.34,0.55C223.38,121.7,222.69,121.69,222.44,120.72z"/>
	<path class="st7" d="M234.81,117.45c1.78-0.56,3.58-1.1,5.35-1.71c0.38-0.13,0.67-0.49,1.04-0.8c0.23-0.08,0.45-0.2,0.6-0.13
		c0.39,0.18,0.91,0.37,1.05,0.69c0.1,0.23-0.25,0.93-0.53,1.02c-2.32,0.75-4.67,1.41-7.11,2.05
		C235.01,118.16,234.91,117.8,234.81,117.45z"/>
	<path class="st7" d="M242.66,91.23c-0.67-1.37-0.68-2.89-1.04-4.34c-0.44-1.81-1.24-3.43-2.64-4.78c1.18,0.14,1.89,1.02,2.58,1.86
		c1.29,1.56,1.84,3.43,2.07,5.41c0.07,0.57,0.1,1.15,0.08,1.79C243.32,91.23,242.99,91.23,242.66,91.23z"/>
	<path class="st7" d="M128.92,84.36c-0.01-0.05-0.01-0.12-0.04-0.16c-1-1.13-0.5-2.44-0.44-3.7c0.03-0.66,0.04-1.32,0.08-2.05
		c0.21-0.07,0.4-0.06,0.6-0.07c0.79-0.07,1.12,0.32,1.08,1.08c-0.07,1.35-0.15,2.7-0.17,4.05c0,0.34,0.15,0.72,0.34,1.01
		c0.48,0.71,0.34,1.26-0.58,1.66c-0.02-0.66,0.04-1.26,0.09-1.87C129.45,84.33,129.18,84.35,128.92,84.36z"/>
	<path class="st9" d="M158.42,100.9c0.8-1.62,1.64-3.2,2.52-4.84c0.49,0.34,0.82,1.3,1.75,0.65c0.07,0.1,0.08,0.15,0.08,0.2
		c-0.22,0.37-0.45,0.74-0.65,1.12c-0.52,0.97-1.04,1.95-1.54,2.93c-0.24,0.47-0.46,1.09-1.09,0.92
		C159.09,101.76,158.81,101.26,158.42,100.9z"/>
	<path class="st9" d="M242.32,105.57c0.36-1.24,0.8-2.43,1.15-3.65c0.1-0.37-0.07-0.81-0.11-1.29c1.44,0.02,2.19,1,1.83,2.4
		c-0.23,0.88-0.5,1.75-0.87,2.58c-0.19,0.42-0.6,0.95-0.99,1.04C242.72,106.76,242.5,106.13,242.32,105.57z"/>
	<path class="st7" d="M173.27,82.36c-0.58-0.04-1.14-0.16-1.66-0.27c0-1.96,0-3.84,0.02-5.8c1.33-0.39,1.68-0.12,1.67,1.24
		C173.3,79.11,173.29,80.69,173.27,82.36z"/>
	<path class="st7" d="M121.33,93.72c0.52-1.04-0.03-2.04-0.06-3.04c-0.02-0.6-0.18-1.2-0.2-1.87c0.52-0.18,0.97-0.3,1.42-0.41
		c0.22,1.41,0.45,2.82,0.67,4.23c0.04,0.27,0.09,0.54,0.14,0.82c0.1,0.59-0.07,1.09-0.67,1.25c-0.58,0.16-0.94-0.2-1.13-0.72
		C121.46,93.9,121.41,93.83,121.33,93.72z"/>
	<path class="st8" d="M111.79,90.15c2.4-0.76,4.8-1.45,7.25-2.16c0.09,0.49,0.17,0.9,0.24,1.36c-1.92,0.58-3.84,1.1-5.76,1.59
		c-0.29,0.07-0.65,0.17-0.88,0.05C112.31,90.83,112.07,90.48,111.79,90.15z"/>
	<path class="st6" d="M13.37,116.92c-0.52,0.06-1.04,0.12-1.63,0.17c-0.06-0.17-0.01-0.33-0.04-0.48c-0.33-1.73-0.68-3.46-1.04-5.27
		c0.48-0.09,0.98-0.1,1.52-0.04C12.6,113.23,12.99,115.07,13.37,116.92z"/>
	<path class="st12" d="M168.12,109.97c-0.5-0.17-1.01-0.34-1.63-0.54c-0.52-1.79-0.63-3.76-0.53-5.74c0.02-0.36,0.45-0.69,0.74-1.07
		c1.23-0.32,1.37-0.26,1.77,0.69c-0.6,0.37-1.3,0.59-1.77,1.03c-0.31,0.29-0.41,0.94-0.35,1.39c0.03,0.2,0.69,0.31,1.16,0.54
		C167.77,107.54,167.95,108.76,168.12,109.97z"/>
	<path class="st7" d="M164.28,123.81c1.96-0.39,3.92-0.72,5.89-1.06c0.38-0.06,0.77-0.13,1.22-0.13c0.23,0.35,0.4,0.65,0.57,0.94
		c-1.37,0.29-2.73,0.61-4.1,0.85c-0.76,0.13-1.54,0.13-2.31,0.19C164.95,124.65,164.51,124.46,164.28,123.81z"/>
	<path class="st9" d="M110.24,94.36c0.78-0.48,1.48-1.1,2.52-1.06c0.24,0.01,0.51-0.53,0.78-0.87c0.4-0.01,0.83-0.04,1.15,0.13
		c0.27,0.15,0.55,0.55,0.55,0.82c-0.01,0.28-0.37,0.78-0.58,0.78c-1.39,0.02-2.32,0.99-3.45,1.53c-0.07,0.04-0.16,0.05-0.32,0.02
		C110.62,95.22,110.43,94.79,110.24,94.36z"/>
	<path class="st13" d="M110.19,94.38c0.25,0.41,0.44,0.84,0.64,1.34c-0.26,0.3-0.54,0.53-0.91,0.82c-0.56,0.41-1.03,0.77-1.5,1.14
		c-0.21,0.04-0.41,0.08-0.76,0.11c-0.96-0.03-1.77-0.05-2.59-0.07c0.66-0.54,1.31-1.07,2.27-0.97c0.24,0.02,0.67-0.2,0.73-0.4
		C108.4,95.28,109.32,94.9,110.19,94.38z"/>
	<path class="st7" d="M168.79,81.77c-0.57,0.07-1.14,0.07-1.86,0.07c0-1.35,0-2.67,0.02-4.06c1.32-0.41,1.65-0.15,1.68,1.2
		C168.66,79.89,168.73,80.8,168.79,81.77z"/>
	<path class="st7" d="M117.13,123.04c2.01-0.29,4.03-0.53,6.12-0.71c0.29,0.36,0.52,0.66,0.74,0.96c-1.79,0.21-3.59,0.48-5.39,0.58
		C118.14,123.89,117.64,123.36,117.13,123.04z"/>
	<path class="st14" d="M145.54,91.02c0-1.02,0.07-2,0.1-2.98c0.01-0.52-0.06-1.04-0.09-1.57c0.64-0.19,1.2-0.37,1.89-0.57
		c-0.35,1.9-0.69,3.7-1.05,5.6c-0.1,0.03-0.34,0.11-0.63,0.18C145.66,91.48,145.62,91.27,145.54,91.02z"/>
	<path class="st11" d="M177.99,107.57c-0.73-0.21-1.25,0.01-1.73,0.63c-0.17,0.05-0.25,0.05-0.33,0.05
		c-0.17-0.54,0.01-0.98,0.32-1.44c0.57-0.83,0.81-1.75,0.36-2.81c0.88-0.16,1.39,0.38,1.76,1.07
		C178.86,105.96,178.59,106.78,177.99,107.57z"/>
	<path class="st12" d="M220.02,85.21c1.04-0.43,2.09-0.84,3.11-1.32c0.33-0.16,0.58-0.5,0.89-0.81c0.38-0.04,0.76-0.08,1.07,0.04
		c0.22,0.09,0.36,0.4,0.54,0.67c-0.75,0.03-1.34,0.2-1.39,1.2c-1.02,0.42-1.97,0.77-2.95,1.05
		C221.05,85.39,220.63,85.16,220.02,85.21z"/>
	<path class="st9" d="M145.58,119.44c0.04-0.47,0.17-0.91,0.19-1.35c0.02-0.58-0.07-1.16-0.06-1.74c0-0.15,0.21-0.3,0.45-0.42
		c0.16,0.17,0.2,0.33,0.23,0.55c0.08,0.25,0.17,0.42,0.25,0.6c0.14-0.1,0.27-0.19,0.46-0.29c0.13-0.01,0.2-0.02,0.27-0.03
		c0,0,0.03,0.03,0.05,0.04c0.05,0.7,0.11,1.38,0.11,2.07c0,0.57,0.27,1.29-0.56,1.54C146.18,120.65,145.93,120.01,145.58,119.44z"/>
	<path class="st11" d="M122.31,84.94c-0.52,0.26-1.04,0.44-1.64,0.65c-0.16-1.26-0.38-2.43,0.24-3.63c0.34-0.05,0.65-0.09,0.95-0.06
		c0.64,0.08,0.8,0.53,0.73,1.09C122.5,83.62,122.4,84.24,122.31,84.94z"/>
	<path class="st8" d="M164.58,95.88c1.14-0.36,2.27-0.78,3.43-1.05c0.33-0.08,0.76,0.26,1.21,0.49c0.06,0.21,0.07,0.33,0.08,0.46
		c-1.51,0.44-3.01,0.88-4.6,1.25C164.61,96.6,164.6,96.24,164.58,95.88z"/>
	<path class="st11" d="M193.34,98.34c1.65-0.41,3.31-0.76,5.04-1.11c-0.09,0.47-0.26,0.94-0.46,1.46c-0.88,0.2-1.73,0.35-2.57,0.5
		C194.14,99.41,193.78,99.27,193.34,98.34z"/>
	<path class="st9" d="M129.53,123.09c0.26-0.56,0.56-1.08,0.98-1.64c0.8-0.19,1.5-0.35,2.2-0.5c-0.43,0.93-0.8,1.89-1.31,2.77
		c-0.34,0.59-1.14,0.49-1.53-0.09C129.76,123.47,129.67,123.29,129.53,123.09z"/>
	<path class="st15" d="M175.9,91.23c-0.67,1.03-1.35,2.07-2.07,3.14c-0.61,0.21-1.17,0.38-1.8,0.48c-0.07-0.52-0.07-0.97-0.06-1.42
		c0.89-0.5,1.79-0.99,2.67-1.52c0.32-0.19,0.57-0.49,0.93-0.76C175.73,91.15,175.81,91.19,175.9,91.23z"/>
	<path class="st7" d="M232.98,84.77c-0.78-0.01-1.57-0.07-2.57-0.15c0.65-0.81,1.18-1.48,1.75-2.2c0.3-0.1,0.59-0.24,0.82-0.17
		c0.3,0.09,0.68,0.3,0.79,0.56c0.11,0.25,0.01,0.66-0.12,0.95C233.5,84.1,233.21,84.39,232.98,84.77z"/>
	<path class="st12" d="M122.34,86.93c1.22-0.41,2.44-0.81,3.79-1.26c-0.05,0.61-0.09,1.11-0.16,1.68c-0.8,0.26-1.57,0.44-2.35,0.64
		c-0.32,0.08-0.64,0.17-1.04,0.2C122.45,87.73,122.39,87.33,122.34,86.93z"/>
	<path class="st7" d="M109.27,92.71c-0.25,0.23-0.52,0.41-0.64,0.49c-1.45-1.7-2.85-3.33-4.25-5.02c1.02-0.35,1.34-0.18,1.74,0.82
		c0.1,0.24,0.31,0.45,0.49,0.65C107.49,90.66,108.37,91.66,109.27,92.71z"/>
	<path class="st11" d="M235.07,87.58c-0.51-0.59-1.02-0.75-1.76-0.2c-0.93-0.05-1.74-0.12-2.53-0.24c0.13-0.25,0.25-0.45,0.37-0.65
		c0.63,0.03,1.27,0.03,1.9,0.09c0.62,0.06,1.01-0.16,1.23-0.8c0.19-0.05,0.36-0.04,0.52-0.05c0.6-0.03,1.05,0.2,1.15,0.81
		C236.03,87.12,235.69,87.46,235.07,87.58z"/>
	<path class="st12" d="M125.17,121.78c1.12-0.36,2.24-0.71,3.49-1.11c-0.22,0.66-0.39,1.16-0.57,1.74c-1,0.27-1.99,0.48-3.04,0.6
		C125.05,122.55,125.11,122.16,125.17,121.78z"/>
	<path class="st13" d="M132.74,120.92c-0.74,0.19-1.43,0.34-2.2,0.49c0.25-0.92,0.59-1.78,1.76-1.94c0.29-0.04,0.53-0.42,0.83-0.68
		c0.23-0.07,0.41-0.11,0.73-0.17c-0.25,0.67-0.47,1.25-0.69,1.9C133.05,120.69,132.92,120.79,132.74,120.92z"/>
	<path class="st7" d="M105.01,97.72c0.87,0,1.68,0.02,2.58,0.07c-0.63,0.55-1.34,1.07-2.16,1.58c-0.52-0.36-0.89-0.85-1.53-0.42
		c0.06-0.21,0.06-0.48,0.19-0.62C104.34,98.08,104.67,97.93,105.01,97.72z"/>
	<path class="st8" d="M228.45,107.71c1.03-0.25,2.06-0.43,3.08-0.61c0.06,0.1,0.11,0.2,0.17,0.29c-0.14,0.33-0.27,0.67-0.47,1.01
		c-0.54,0.09-1.03,0.16-1.51,0.27C228.93,108.86,228.55,108.61,228.45,107.71z"/>
	<path class="st13" d="M242.64,91.28c0.35-0.05,0.68-0.05,1.08-0.04c0.07,0,0.11,0.06,0.1,0.17c-0.05,0.58-0.1,1.05-0.14,1.52
		c0,0-0.02,0.06-0.04,0.09c-0.56,0.21-1.11,0.38-1.72,0.56C241.89,92.77,241.97,91.96,242.64,91.28z"/>
	<path class="st13" d="M128.9,84.42c0.29-0.07,0.55-0.09,0.97-0.11c-0.05,0.62-0.11,1.21-0.15,1.88c0.01,0.07-0.02,0.13-0.03,0.17
		c-0.58,0.09-1.14,0.14-1.76,0.21c-0.04-0.6,0.02-1.18,0.64-1.53C128.72,84.94,128.77,84.67,128.9,84.42z"/>
	<path class="st12" d="M98.92,96.65c1.35-0.06,2.7-0.06,4.06-0.06c0.01,0.1,0.03,0.19,0.04,0.29c-0.41,0.3-0.82,0.61-1.28,0.92
		c-0.57-0.13-1.09-0.23-1.58-0.42C99.72,97.21,99.33,96.94,98.92,96.65z"/>
	<path class="st13" d="M171.91,93.42c0.06,0.45,0.06,0.9,0.06,1.43c0.01,0.08-0.02,0.14-0.1,0.17c-0.59,0.22-1.1,0.4-1.61,0.59
		c0,0-0.07-0.01-0.1-0.1c-0.04-0.28-0.04-0.47-0.04-0.66c-0.07-0.54,0.14-0.86,0.69-0.99C171.16,93.77,171.5,93.57,171.91,93.42z"/>
	<path class="st13" d="M164.52,95.88c0.08,0.36,0.09,0.72,0.12,1.15c-0.76,0.87-1.15,0.85-1.84-0.08c-0.03-0.1-0.03-0.15-0.04-0.28
		C163.31,96.36,163.88,96.12,164.52,95.88z"/>
	<path class="st13" d="M122.28,86.94c0.12,0.39,0.17,0.79,0.24,1.26c0.01,0.07-0.01,0.14-0.02,0.17c-0.46,0.14-0.91,0.26-1.42,0.37
		C120.8,87.41,120.8,87.41,122.28,86.94z"/>
	<path class="st16" d="M101.26,111.13c1.21-1.12,2.42-2.18,3.69-3.26c0.01,0.16,0.02,0.4-0.1,0.5c-1.14,1.02-2.31,2.03-3.52,3.06
		C101.27,111.37,101.27,111.28,101.26,111.13z"/>
	<path class="st13" d="M234.74,117.45c0.16,0.35,0.26,0.7,0.4,1.11c0.03,0.05,0.01,0.12,0,0.16c-0.51,0.15-1.01,0.26-1.57,0.39
		C233.39,117.83,233.39,117.83,234.74,117.45z"/>
	<path class="st13" d="M125.11,121.78c0,0.39-0.06,0.77-0.12,1.22c-0.29,0.14-0.57,0.21-0.92,0.29c-0.29-0.3-0.51-0.59-0.74-0.95
		C123.9,122.11,124.47,121.94,125.11,121.78z"/>
	<path class="st13" d="M172.01,123.57c-0.23-0.3-0.4-0.59-0.56-0.95c0.58-0.21,1.15-0.36,1.79-0.49c0.01,0.24-0.05,0.46-0.16,0.77
		c-0.26,0.27-0.46,0.45-0.66,0.63C172.31,123.54,172.19,123.56,172.01,123.57z"/>
	<path class="st5" d="M166.5,115.32c0.08-0.02,0.19,0,0.21,0.06c0.58,1.58,1.14,3.17,1.71,4.75c0.03,0.07,0.01,0.17,0.01,0.32
		C167.78,118.81,167.14,117.1,166.5,115.32z"/>
	<path class="st13" d="M103.92,99c0.62-0.48,1,0,1.46,0.38c0.05,0.1,0.05,0.17,0.04,0.31c-0.26,0.2-0.52,0.34-0.81,0.53
		C104.36,99.86,104.14,99.46,103.92,99z"/>
	<path class="st9" d="M170.27,95.67c0.5-0.24,1.01-0.43,1.58-0.62c-0.13,0.32-0.24,0.8-0.52,0.93
		C171.07,96.09,170.64,95.83,170.27,95.67z"/>
	<path class="st9" d="M108.49,97.69c0.4-0.39,0.87-0.75,1.4-1.12C109.89,97.54,109.64,97.74,108.49,97.69z"/>
	<path class="st5" d="M165.34,112.85c0.22-0.11,0.5-0.21,0.87-0.34c0.07,0.56,0.12,0.95,0.12,1.37
		C165.99,113.56,165.7,113.2,165.34,112.85z"/>
	<path class="st7" d="M243.74,92.92c-0.01-0.46,0.04-0.93,0.1-1.47C244.54,91.86,244.52,92.28,243.74,92.92z"/>
	<path class="st9" d="M169.36,95.77c-0.06-0.12-0.07-0.25-0.08-0.43c0.07-0.08,0.15-0.09,0.3-0.06c0.18,0.14,0.28,0.23,0.38,0.32
		C169.78,95.65,169.6,95.7,169.36,95.77z"/>
	<path class="st7" d="M172.48,123.55c0.15-0.2,0.35-0.38,0.6-0.59c0.05,0.06,0.05,0.15,0.06,0.29
		C172.94,123.4,172.74,123.48,172.48,123.55z"/>
	<path class="st8" d="M170,95.59c-0.14-0.09-0.23-0.18-0.36-0.31c0.11-0.15,0.24-0.27,0.42-0.4c0.05,0.17,0.05,0.36,0.05,0.63
		C170.12,95.58,170.04,95.59,170,95.59z"/>
	<path class="st5" d="M166.33,114.31c0.08,0.14,0.15,0.34,0.17,0.57C166.41,114.73,166.36,114.55,166.33,114.31z"/>
	<path class="st5" d="M163.8,112.14c0.11,0.09,0.2,0.24,0.29,0.44C163.98,112.5,163.89,112.35,163.8,112.14z"/>
	<path class="st17" d="M96.51,94.57c0.07-0.11,0.22-0.22,0.44-0.33c0.04,0.09,0.02,0.18-0.02,0.3
		C96.8,94.58,96.69,94.58,96.51,94.57z"/>
	<path class="st18" d="M13.45,116.92c-0.46-1.85-0.84-3.69-1.2-5.61c1.61-0.08,3.19-0.1,4.77-0.11c0.22,0,0.49,0.05,0.65-0.05
		c0.27-0.16,0.47-0.44,0.69-0.66c-0.25-0.2-0.5-0.56-0.76-0.57c-1.75-0.05-3.5-0.03-5.32-0.02c-0.05-1.4-0.18-2.83,0.03-4.2
		C13.93,95.2,20,88.08,29.4,83.6c4.08-1.95,8.43-2.85,12.99-2.98c7.05-0.19,13.5,1.52,19.28,5.52c6.68,4.62,10.7,10.95,11.74,19.06
		c0.12,0.91,0.1,1.83,0.06,2.83c-2.46,0.23-4.85,0.38-7.23,0.51c-0.52,0.03-1.02,0.14-1.01,0.74c0.01,0.61,0.5,0.72,1.03,0.68
		c2.36-0.17,4.71-0.35,7.12-0.46c-0.28,2-0.61,3.94-0.94,5.89c-1.69,0.06-3.38,0.12-5.07,0.17c-0.48,0.01-0.94,0.05-0.93,0.67
		c0.01,0.61,0.48,0.67,0.95,0.66c1.38-0.03,2.77-0.06,4.3-0.06c0.07,0.35,0.03,0.68-0.1,0.98c-3.08,7.29-8.43,12.34-15.55,15.63
		c-0.2,0.09-0.49,0.01-0.73,0.02c-0.52-1.36-0.92-2.79-1.61-4.07c-1.04-1.92-3.38-2.72-5.73-2.19c-2.32,0.53-4.06,1.84-5.38,3.91
		c-0.72,0.33-1.32,0.63-1.34,1.45c-0.24-0.06-0.48-0.11-0.64-0.15c-0.29-1.28-0.49-2.52-0.85-3.71c-0.67-2.2-2.44-3.07-4.52-3.41
		c-2.04-0.34-3.59,0.56-4.66,2.25c-1.05,1.68-1.84,3.48-2.2,5.52c-0.2,0.04-0.44,0.07-0.61-0.02c-6.25-3.13-10.91-7.79-13.71-14.24
		c-0.05-0.12-0.07-0.27-0.08-0.46c1.35-0.16,2.67-0.27,3.99-0.36c0.5-0.03,0.97-0.18,0.84-0.73c-0.06-0.25-0.6-0.55-0.92-0.55
		C16.44,116.71,14.98,116.83,13.45,116.92z M37.59,122.74c1.85-0.32,3.33-1.26,4.45-2.83c0.15,0.24,0.24,0.42,0.36,0.57
		c1.5,1.89,3.45,2.99,5.87,2.6c2.37-0.37,4.02-1.81,4.74-4.16c0.13-0.44,0.24-0.98,0.09-1.38c-0.1-0.28-0.65-0.57-0.99-0.57
		c-0.45,0.01-0.58,0.42-0.41,0.88c0.07,0.19,0.1,0.43,0.05,0.63c-0.41,1.74-2.59,3.46-4.29,3.4c-2.15-0.07-3.99-1.67-4.35-3.71
		c-0.05-0.27-0.32-0.65-0.55-0.71c-0.23-0.06-0.57,0.2-0.81,0.38c-0.16,0.13-0.23,0.37-0.34,0.57c-2.22,3.79-6.34,4.21-9.27,0.96
		c-0.31-0.35-0.69-0.73-1.09-0.29c-0.16,0.17-0.03,0.79,0.16,1.05C32.77,122.19,34.9,122.98,37.59,122.74z M35.09,97.63
		c-0.69,0.03-1.39,0.08-2.08,0.08c-0.66,0-0.9,0.2-0.85,0.94c0.13,2.04,0.17,4.09,0.19,6.14c0.01,0.58,0.28,0.65,0.72,0.62
		c0.69-0.04,1.38-0.1,2.07-0.13c0.99-0.05,1.42-0.48,1.45-1.49c0.01-0.33,0-0.66,0-0.96c-0.68-0.35-1.34-0.77-1.27-1.57
		c0.03-0.38,0.57-0.72,0.88-1.07C36.52,98.84,36.24,98.18,35.09,97.63z M48.15,98.84c0-1.22-0.4-1.65-1.52-1.6
		c-1.91,0.07-2.63-0.41-2.38,2.44c0.15,1.68,0.14,3.38,0.2,5.07c0.01,0.39,0.05,0.75,0.58,0.7c0.71-0.06,1.43-0.09,2.13-0.19
		c0.23-0.03,0.6-0.2,0.64-0.36c0.18-0.8,0.27-1.61,0.4-2.49c-0.79,0.11-1-0.35-1.2-0.87c-0.23-0.62,0.29-0.85,0.63-0.99
		C48.44,100.2,48.06,99.54,48.15,98.84z M35.72,93.48c0.5,0.52,0.98,1.06,1.5,1.55c0.14,0.13,0.4,0.14,0.6,0.21
		c-0.03-0.22,0.02-0.5-0.09-0.63c-0.48-0.57-0.97-1.14-1.54-1.62C35.87,92.72,35.52,92.83,35.72,93.48z M42.96,93.17
		c-0.12,0.22-0.29,0.42-0.34,0.66c-0.07,0.28-0.05,0.58-0.07,0.88c0.21-0.17,0.48-0.3,0.63-0.52c0.28-0.4,0.53-0.84,0.73-1.29
		c0.1-0.21,0.06-0.48,0.08-0.73c-0.22,0.14-0.45,0.25-0.64,0.42C43.21,92.71,43.14,92.91,42.96,93.17z"/>
	<path class="st19" d="M64.05,86.01c-5.07-3.36-10.31-6.11-16.62-6.37c8.44-5.02,16.82-10.02,25.43-15.14
		c-2.41,7.79-4.75,15.33-7.09,22.9C65.25,86.98,64.67,86.52,64.05,86.01z"/>
	<path class="st19" d="M28.38,82.39c-2.33,1.36-4.59,2.69-6.9,4.05c2.35-8.38,4.72-16.84,7.14-25.45
		c3.06,6.21,6.06,12.29,9.12,18.51C34.43,80.05,31.37,81,28.38,82.39z"/>
	<path class="st20" d="M78.74,115.03c-1.46,0.17-2.92,0.26-4.5,0.31c-0.07-0.35-0.02-0.64,0.03-0.94c0.25-1.66,0.5-3.33,0.81-5
		c0.81-0.07,1.57-0.05,2.3-0.2c0.31-0.06,0.54-0.47,0.81-0.73c-0.29-0.19-0.57-0.54-0.87-0.55c-0.74-0.04-1.49,0.07-2.24,0.12
		c-0.2-1.84-0.2-3.74-0.64-5.52c-0.56-2.25-1.4-4.43-2.27-6.59c-0.29-0.71-0.38-1.35-0.25-2.05c0.15-0.81,0.33-1.62,0.55-2.65
		C78.52,98.23,80.71,106.04,78.74,115.03z"/>
	<path class="st21" d="M71.85,83.89c-0.14,1.17-0.28,2.33-0.48,3.59c-0.05,0.2-0.03,0.31-0.02,0.42c-0.18,1.7-0.35,3.39-0.53,5.09
		c-0.1,0.04-0.2,0.08-0.31,0.13c-0.07-0.14-0.11-0.29-0.21-0.4c-0.98-1.24-1.98-2.46-2.95-3.71c-0.17-0.22-0.3-0.6-0.23-0.84
		c1.94-6.44,3.9-12.88,5.86-19.32c0.14-0.46,0.25-0.94,0.49-1.45c0.19-0.03,0.27-0.02,0.35,0c-0.02,0.39-0.04,0.77-0.11,1.24
		c-0.05,0.2-0.04,0.31-0.03,0.42c-0.53,4.34-1.06,8.67-1.65,13.1c-0.05,0.2-0.04,0.31-0.03,0.42c-0.03,0.28-0.06,0.56-0.14,0.92
		C71.82,83.67,71.84,83.78,71.85,83.89z"/>
	<path class="st20" d="M35.88,72.6c-1.82-3.71-3.62-7.36-5.42-11.01c0.06-0.05,0.13-0.09,0.19-0.14c4.3,5.82,8.61,11.64,13.08,17.68
		c-1.1,0-1.99-0.05-2.88,0.01c-1.68,0.12-1.68,0.15-2.41-1.33C37.59,76.09,36.75,74.37,35.88,72.6z"/>
	<path class="st10" d="M75,108.06c0.82-0.06,1.57-0.17,2.31-0.14c0.3,0.02,0.58,0.36,0.87,0.55c-0.27,0.25-0.5,0.66-0.81,0.73
		c-0.72,0.15-1.48,0.13-2.37,0.2c-0.65,0.02-1.17,0.03-1.68,0.04c-2.36,0.17-4.71,0.35-7.07,0.52c-0.52,0.04-1.02-0.07-1.03-0.68
		c-0.01-0.6,0.5-0.71,1.01-0.74c2.39-0.13,4.77-0.28,7.23-0.43C74,108.08,74.47,108.08,75,108.06z"/>
	<path class="st15" d="M73.86,67.32c-0.1,0.05-0.18,0.04-0.33,0.02c0-0.22,0.05-0.43,0.11-0.64c0.06,0,0.12,0.01,0.18,0.01
		C73.84,66.89,73.86,67.07,73.86,67.32z"/>
	<path class="st15" d="M71.88,83.85c-0.04-0.07-0.06-0.18-0.03-0.31C71.9,83.62,71.9,83.72,71.88,83.85z"/>
	<path class="st15" d="M72.05,82.52c-0.04-0.07-0.06-0.18-0.03-0.31C72.06,82.29,72.07,82.38,72.05,82.52z"/>
	<path class="st15" d="M71.38,87.86c-0.05-0.07-0.06-0.18-0.03-0.31C71.4,87.63,71.41,87.72,71.38,87.86z"/>
	<path class="st15" d="M73.72,69c-0.04-0.07-0.05-0.18-0.02-0.31C73.75,68.77,73.75,68.87,73.72,69z"/>
	<path class="st22" d="M175.93,91.19c-0.12,0-0.21-0.04-0.34-0.11c-0.29-1.06-0.7-1.26-1.64-0.79c-0.4,0.2-0.79,0.42-1.29,0.6
		c-0.09-0.63-0.07-1.23-0.03-1.86c0.02-0.03,0.05-0.09,0.12-0.1c0.75-0.06,1.43-0.09,2.1-0.2c0.25-0.04,0.56-0.26,0.66-0.49
		c0.09-0.22,0.04-0.71-0.12-0.79c-0.45-0.25-0.98-0.36-1.47-0.53c-0.28-0.29-0.55-0.58-0.88-0.97c-0.05-1.11-0.03-1.13,0.97-0.97
		c0.09,0.01,0.19-0.05,0.29-0.09C176.74,86.04,177.52,88.98,175.93,91.19z"/>
	<path class="st15" d="M164.1,94.05c-1.15,0.54-1.3,0.48-1.53-0.69c-0.22-1.1-0.4-2.21-0.58-3.26c1.22-0.24,2.28-0.45,3.41-0.68
		c0.05,0.42,0.1,0.82,0.06,1.29c-0.59,0.1-1.1,0.14-1.69,0.19C163.87,91.93,163.99,92.99,164.1,94.05z"/>
	<path class="st21" d="M164.17,94.05c-0.18-1.07-0.29-2.13-0.4-3.17c0.59-0.05,1.1-0.09,1.67-0.12c0.09,0.17,0.12,0.33,0.13,0.49
		c0.11,0.91,0.46,1.13,1.51,0.85c0.2,0.33,0.3,0.66,0.39,1C166.39,93.42,165.31,93.74,164.17,94.05z"/>
	<path class="st22" d="M152.24,81.39c-1.62,0.83-3.24,1.67-4.93,2.42c-0.08-0.31-0.09-0.53-0.08-0.82c0.08-0.4,0.13-0.75,0.25-1.1
		c1.38-0.28,2.7-0.57,4.03-0.8C151.73,81.05,151.99,81.28,152.24,81.39z"/>
	<path class="st7" d="M152.31,81.39c-0.32-0.11-0.58-0.34-0.8-0.3c-1.33,0.23-2.65,0.52-4.08,0.76c-0.27-0.4-0.43-0.77-0.59-1.14
		c2.37-0.82,4.7-0.71,7,0.35c-0.21,0.18-0.41,0.26-0.61,0.33C152.95,81.39,152.67,81.39,152.31,81.39z"/>
	<path class="st15" d="M172.61,89.06c-0.02,0.6-0.04,1.2,0,1.85c-0.64,0.42-1.34,0.8-2.22,1.28c0.14-1.03,0.26-1.84,0.46-2.72
		C171.49,89.28,172.05,89.17,172.61,89.06z"/>
	<path class="st15" d="M167.53,93.1c-0.16-0.33-0.25-0.66-0.4-1.03c0.02-0.59,0.08-1.13,0.22-1.77c0.55-0.18,1.04-0.28,1.52-0.38
		c-0.07,0.63-0.22,1.26-0.2,1.89C168.69,92.62,168.33,92.99,167.53,93.1z"/>
	<path class="st9" d="M173.92,86.98c0.5,0.11,1.02,0.22,1.47,0.47c0.15,0.08,0.21,0.57,0.12,0.79c-0.09,0.22-0.41,0.44-0.66,0.49
		c-0.67,0.12-1.36,0.14-2.12,0.14c-0.04-0.36,0.01-0.66,0.06-0.96C173.42,87.93,173.83,87.7,173.92,86.98z"/>
	<path class="st9" d="M161.94,85.42c0.12-0.01,0.24-0.02,0.47-0.02c0.43,0.3,0.74,0.59,1.05,0.94c0.05,0.58,0.1,1.1,0.14,1.61
		c-0.54,0.08-1.07,0.16-1.68,0.25c-0.05-0.83-0.09-1.65-0.11-2.57C161.9,85.5,161.92,85.46,161.94,85.42z"/>
	<path class="st11" d="M168.79,86.75c-0.52,0.14-1.03,0.27-1.71,0.45c0-0.87,0-1.59,0.09-2.4c0.55-0.07,1-0.07,1.47,0
		C168.68,85.49,168.73,86.12,168.79,86.75z"/>
	<path class="st13" d="M146.78,80.71c0.22,0.37,0.38,0.74,0.59,1.15c-0.01,0.38-0.06,0.73-0.2,1.14c-0.8,0.35-1.22-0.08-1.6-0.59
		C145.63,81.62,145.63,80.8,146.78,80.71z"/>
	<path class="st20" d="M163.68,87.94c-0.12-0.5-0.17-1.02-0.18-1.61c0.04-0.08,0.1-0.1,0.17-0.1c0.36-0.19,0.65-0.39,0.94-0.59
		c0.21-0.14,0.42-0.27,0.62-0.4c0.02,0.33,0.04,0.66,0.05,0.99C165.33,87.78,165.3,87.8,163.68,87.94z"/>
	<path class="st15" d="M174.27,84.85c-0.07,0.08-0.17,0.15-0.26,0.14c-1-0.15-1.02-0.14-1.03,0.95c-0.58,0.13-1.17,0.19-1.82,0.25
		c0.05-0.52,0.09-1,0.22-1.54c0.41-0.03,0.74,0.06,1.06,0.04c0.24-0.02,0.46-0.2,0.69-0.31C173.5,84.51,173.87,84.65,174.27,84.85z"
		/>
	<path class="st12" d="M165.24,85.17c-0.22,0.21-0.43,0.34-0.64,0.47c-0.29,0.19-0.58,0.39-0.94,0.51c-0.08-0.66-0.09-1.23-0.1-1.81
		c0.51-0.16,1.02-0.32,1.69-0.52C165.26,84.32,165.26,84.71,165.24,85.17z"/>
	<path class="st13" d="M168.62,84.73c-0.46,0-0.91,0-1.45,0c-0.44-0.75-0.13-1.08,0.63-1.11c0.57-0.02,1.15,0,1.82,0
		c-0.01,0.32-0.03,0.59-0.13,0.9C169.01,84.1,168.82,84.45,168.62,84.73z"/>
	<path class="st13" d="M172.73,87.89c0.02,0.32-0.03,0.61-0.06,0.98c0.02,0.07-0.01,0.13-0.03,0.16c-0.58,0.14-1.14,0.26-1.77,0.37
		C170.79,88.04,170.96,87.9,172.73,87.89z"/>
	<path class="st13" d="M168.89,89.86c-0.51,0.17-0.99,0.26-1.53,0.37c-0.13-1.33-0.13-1.33,1.71-1.64
		C169.02,89.01,168.97,89.4,168.89,89.86z"/>
	<path class="st15" d="M145.56,82.48c0.39,0.44,0.8,0.87,1.59,0.58c0.07,0.22,0.08,0.45,0.09,0.76c-0.51,0.3-1.02,0.51-1.69,0.78
		C145.56,83.76,145.56,83.16,145.56,82.48z"/>
	<path class="st13" d="M149.71,85.05c0.46,0.12,1.2-0.32,1.29,0.45c0.03,0.24-0.64,0.58-1.01,0.84c-0.17,0.12-0.41,0.15-0.68,0.22
		c0-0.42,0.07-0.83,0.22-1.31c0.12-0.11,0.16-0.16,0.2-0.21C149.73,85.05,149.72,85.06,149.71,85.05z"/>
	<path class="st16" d="M153.27,81.44c0.16-0.12,0.37-0.2,0.6-0.33c0.47,0.36,0.91,0.76,1.37,1.22c-0.49,0.05-1,0.05-1.56,0.04
		C153.51,82.08,153.41,81.78,153.27,81.44z"/>
	<path class="st16" d="M168.63,84.8c0.2-0.35,0.39-0.7,0.82-0.24c0.01,0.55,0.01,1.1-0.09,1.63c-0.04,0.21-0.28,0.38-0.5,0.57
		C168.73,86.12,168.68,85.49,168.63,84.8z"/>
	<path class="st13" d="M163.5,84.35c0.07,0.57,0.08,1.15,0.09,1.8c0,0.08-0.06,0.1-0.1,0.11c-0.35-0.28-0.66-0.57-1.03-0.87
		C162.76,85.04,163.1,84.7,163.5,84.35z"/>
	<path class="st13" d="M173.08,84.32c-0.19,0.15-0.41,0.33-0.65,0.35c-0.32,0.03-0.65-0.07-1.04-0.1c-0.13-0.55,0.05-0.77,0.62-0.55
		C172.35,84.14,172.7,84.2,173.08,84.32z"/>
	<path class="st8" d="M149.67,85.04c0.02,0.06-0.02,0.11-0.11,0.17C149.55,85.16,149.58,85.09,149.67,85.04z"/>
	<path class="st13" d="M161.89,85.42c0.03,0.05,0,0.08-0.06,0.13C161.82,85.52,161.83,85.47,161.89,85.42z"/>
	<path class="st17" d="M230.94,96.25c0.85,1.15,1.7,2.31,2.63,3.58c-4.3,0.46-8.37,1.27-12.42,2.44c-0.24-1.29-0.43-2.51-0.54-3.74
		c-0.02-0.25,0.19-0.63,0.41-0.76c0.92-0.55,1.88-1.05,2.85-1.52c0.78-0.37,1.59-0.67,2.39-1c-0.46,0.41-0.94,0.8-1.38,1.23
		c-0.41,0.4-0.7,0.9-0.33,1.46c0.33,0.51,0.81,0.51,1.4,0.21c0.32,0.36,0.48,0.9,0.77,0.98c0.32,0.09,0.83-0.17,1.15-0.41
		C228.91,97.93,229.91,97.08,230.94,96.25z"/>
	<path class="st8" d="M226.28,95.19c-0.83,0.38-1.64,0.68-2.42,1.05c-0.97,0.47-1.92,0.97-2.85,1.52c-0.22,0.13-0.43,0.52-0.41,0.76
		c0.11,1.23,0.3,2.45,0.47,3.75c-0.45,0.24-0.91,0.41-1.51,0.62c-0.23-1.53-0.46-2.94-0.64-4.36c-0.06-0.49-0.01-0.99,0.11-1.47
		c0.21,0.15,0.27,0.33,0.4,0.41c0.23,0.16,0.5,0.27,0.76,0.41c0.08-0.26,0.19-0.52,0.23-0.79c0.03-0.24-0.02-0.49-0.04-0.74
		c2.09-1.19,4.19-2.39,6.29-3.57c0.8-0.45,1.1,0.33,1.83,0.77C227.69,94.14,227,94.64,226.28,95.19z"/>
	<path class="st8" d="M226.5,88.89c0.62-0.65,1.23-1.29,1.96-1.96c0.75,0.1,1.38,0.22,2,0.39c-0.44,0.52-0.88,0.98-1.3,1.45
		c-0.55,0.61-1.08,1.23-1.62,1.85c-0.7,0.27-1.39,0.54-2.19,0.77c-0.26-0.07-0.45-0.18-0.56-0.12c-1.07,0.56-2.13,1.13-3.17,1.74
		c-0.13,0.08-0.14,0.38-0.2,0.58c0,0-0.01-0.01-0.05,0c-0.07,0.06-0.1,0.11-0.13,0.16c0,0,0-0.01-0.07-0.01
		c-0.45,0.02-0.96-0.18-0.94,0.52c-0.48,0.2-0.97,0.4-1.6,0.67c0-0.86,0-1.45,0-2.08c0.24-0.04,0.51-0.08,0.88-0.09
		c0.15,0.1,0.17,0.18,0.21,0.24c0.12,0.17,0.26,0.34,0.39,0.5c0.06-0.2,0.17-0.41,0.18-0.61c0.02-0.32-0.03-0.64-0.05-0.96
		c0.89-0.49,1.76-1.01,2.66-1.46c0.19-0.09,0.48,0.03,0.72,0.05c0.38,0.03,0.76,0.06,1.24,0.09c0.29,0.1,0.51,0.32,0.67,0.28
		c0.34-0.08,0.66-0.28,0.97-0.46C227.24,90,227.22,89.4,226.5,88.89z"/>
	<path class="st17" d="M236.55,99.59c-1.01-1.36-1.95-2.71-2.89-4.06c-0.16-0.22-0.32-0.46-0.52-0.64
		c-0.57-0.53-0.36-0.89,0.29-1.21c0.04,1.24,0.34,1.51,1.64,1.37c0.42,0.97,0.84,1.15,1.87,0.77c0.95-0.35,1.9-0.71,2.85-1.07
		c-0.25,0.95-0.45,1.92-0.76,2.85c-0.22,0.67-0.25,1.26,0.09,1.92C238.25,99.59,237.44,99.6,236.55,99.59z"/>
	<path class="st17" d="M221.32,86.1c0.95-0.35,1.9-0.69,2.91-1.05c0.48,0.99,1.48,0.78,2.39,1.04c-0.8,0.76-1.24,1.61-2.44,1.89
		c-1.28,0.29-2.43,1.14-3.7,1.68c-0.07-1.14-0.17-2.24,0.52-3.23C221.14,86.29,221.23,86.2,221.32,86.1z"/>
	<path class="st17" d="M227.59,90.66c0.5-0.66,1.03-1.28,1.57-1.89c0.42-0.47,0.86-0.93,1.35-1.46c0.12-0.09,0.19-0.1,0.25-0.12
		c0.8,0.07,1.61,0.14,2.48,0.21c-1,1.44-2.06,2.89-3.18,4.3c-0.11,0.14-0.56,0.17-0.76,0.07C228.73,91.46,228.19,91.06,227.59,90.66
		z"/>
	<path class="st7" d="M230.92,96.19c-1.01,0.88-2.01,1.74-3.06,2.53c-0.32,0.24-0.82,0.5-1.15,0.41c-0.29-0.08-0.46-0.63-0.72-1.01
		c1.17-1.12,2.38-2.21,3.65-3.34C230.09,95.26,230.5,95.7,230.92,96.19z"/>
	<path class="st11" d="M220.96,86.45c-0.65,0.96-0.56,2.05-0.54,3.21c-0.56,0.42-1.12,0.75-1.9,1.22c0.1-1.49,0.18-2.8,0.36-4.13
		c0.32,0,0.56,0.07,0.78,0.03C220.09,86.7,220.53,86.56,220.96,86.45z"/>
	<path class="st13" d="M221,86.42c-0.48,0.14-0.91,0.28-1.35,0.36c-0.22,0.04-0.46-0.03-0.74-0.09c-0.03-0.76,0.43-1.16,1.05-1.48
		c0.66-0.05,1.09,0.19,1.33,0.83C221.23,86.2,221.14,86.29,221,86.42z"/>
	<path class="st16" d="M221.5,93.61c0-0.21,0-0.52,0.14-0.6c1.04-0.61,2.1-1.18,3.17-1.74c0.11-0.06,0.3,0.05,0.5,0.14
		C224.09,92.18,222.82,92.9,221.5,93.61z"/>
	<path class="st13" d="M226.46,88.92c0.76,0.48,0.78,1.08,0.08,1.51c-0.31,0.19-0.63,0.38-0.97,0.46c-0.16,0.04-0.38-0.18-0.61-0.32
		C225.41,90,225.92,89.47,226.46,88.92z"/>
	<path class="st13" d="M230.78,87.14c-0.08,0.07-0.14,0.09-0.25,0.12c-0.68-0.1-1.31-0.22-2.01-0.35c0.22-0.5,0.57-0.75,1.2-0.56
		c0.4,0.12,0.86,0.07,1.37,0.12C231.03,86.69,230.91,86.89,230.78,87.14z"/>
	<path class="st13" d="M220.33,96.37c0.07,0.23,0.12,0.48,0.09,0.72c-0.04,0.27-0.15,0.53-0.23,0.79c-0.25-0.13-0.52-0.24-0.76-0.41
		c-0.13-0.09-0.19-0.26-0.34-0.44C219.45,96.8,219.86,96.59,220.33,96.37z"/>
	<path class="st13" d="M231.17,93.24c1.06,0.35,1.44,0.92,1.09,1.65c-0.4-0.37-0.79-0.79-1.15-1.24
		C231.05,93.57,231.11,93.39,231.17,93.24z"/>
	<path class="st13" d="M220.22,91.94c0.07,0.31,0.12,0.63,0.11,0.95c-0.01,0.21-0.12,0.41-0.18,0.61c-0.13-0.17-0.27-0.33-0.39-0.5
		c-0.05-0.06-0.06-0.15-0.14-0.26C219.76,92.45,219.97,92.2,220.22,91.94z"/>
	<path class="st13" d="M219.15,105.04c-0.11,0.47-0.28,0.96-0.54,1.71c-0.26-0.37-0.36-0.51-0.51-0.69
		C218.4,105.71,218.75,105.38,219.15,105.04z"/>
	<path class="st16" d="M220.32,94.25c-0.09-0.7,0.43-0.49,0.88-0.51C220.97,93.91,220.68,94.08,220.32,94.25z"/>
	<path class="st16" d="M221.31,93.75c-0.02-0.04,0.01-0.09,0.08-0.16C221.42,93.63,221.39,93.68,221.31,93.75z"/>
	<path class="st17" d="M97.66,93.65c0-0.16,0.02-0.38,0.14-0.5c1.37-1.28,2.75-2.54,4.13-3.79c0.16-0.14,0.38-0.21,0.64-0.31
		c1.66,1.56,3.33,3.06,4.33,5.41c-0.62,0.19-1.22,0.54-1.82,0.54c-2.01,0.01-4.03-0.1-6.05-0.17
		C98.93,93.91,98.62,93.41,97.66,93.65z"/>
	<path class="st13" d="M107.14,109.47c0.76,0.24,0.82,0.54,0.23,1.28C107.25,110.36,107.19,109.95,107.14,109.47z"/>
	<path class="st19" d="M131.86,110.75c0.19,2.64-0.59,5.04-1.78,7.34c-0.11,0.21-0.4,0.39-0.64,0.47c-1.32,0.43-2.65,0.83-4.04,1.16
		c-0.03-0.52,0.01-0.96,0.04-1.39c0.11-1.59,0.22-3.18,0.35-4.81c0.05-0.1,0.07-0.16,0.15-0.23c0.97-0.41,1.88-0.83,2.79-1.22
		C129.77,111.62,130.82,111.19,131.86,110.75z"/>
	<path class="st19" d="M122.6,104.77c-0.06,1.91-0.13,3.82-0.16,5.74c-0.01,0.58-0.2,0.9-0.77,1.1c-1.15,0.4-2.27,0.89-3.47,1.26
		c-0.06-2.18-0.04-4.29,0.03-6.41c0.39-0.36,0.66-0.89,1.05-1.01C120.36,105.13,121.49,104.98,122.6,104.77z"/>
	<path class="st19" d="M122.11,115.11c-0.13,1.68-0.29,3.36-0.39,5.05c-0.03,0.49-0.23,0.68-0.69,0.73c-0.8,0.08-1.59,0.2-2.48,0.23
		c-0.2-1.35-0.31-2.64-0.41-3.93c-0.03-0.4,0-0.8,0-1.32c0.86,0.44,1.44,0.33,2.11-0.17C120.74,115.33,121.48,115.29,122.11,115.11z
		"/>
	<path class="st17" d="M128.71,104.88c1.58,0.85,2.49,2.19,2.84,3.98c-0.33,0.12-0.59,0.17-0.84,0.22
		c-0.19-1.03-0.59-1.26-1.55-0.83c-1.01,0.45-2.02,0.91-3.09,1.3c-0.06-0.93,0.05-1.81-0.09-2.64c-0.18-1.02,0.66-1.5,1.03-2.21
		c0.07-0.13,0.9,0.13,1.39,0.2C128.49,104.9,128.6,104.88,128.71,104.88z"/>
	<path class="st11" d="M122.13,115.04c-0.65,0.26-1.39,0.29-1.88,0.66c-0.67,0.5-1.25,0.61-2.11,0.17c0,0.52-0.02,0.92,0,1.32
		c0.1,1.29,0.21,2.57,0.34,3.92c-1.47,0.25-1.8-0.05-1.86-1.5c-0.06-1.46-0.17-2.91-0.2-4.44c0.13-0.08,0.19-0.08,0.25-0.09
		c0.63,0.31,1.14,0.15,1.77-0.19c1.18-0.65,2.47-1.09,3.8-1.66C122.21,113.88,122.18,114.42,122.13,115.04z"/>
	<path class="st14" d="M116.66,115.01c-0.04,0.07-0.11,0.07-0.22,0.08c-0.07-2.99-0.1-5.98-0.1-8.97c0-0.19,0.17-0.47,0.34-0.55
		c0.56-0.28,0.49-1.25,1.4-1.1c0.08,0.71,0.09,1.35,0.1,2c-0.01,2.11-0.03,4.21-0.03,6.4c-0.32,0.23-0.64,0.38-0.96,0.54
		C116.43,113.78,116.3,114.16,116.66,115.01z"/>
	<path class="st12" d="M128.68,104.83c-0.08,0.05-0.19,0.07-0.3,0.06c-0.48-0.07-1.32-0.33-1.39-0.2c-0.37,0.71-1.21,1.18-1.03,2.21
		c0.14,0.83,0.03,1.71,0.03,2.65c-0.55,0.36-1.1,0.64-1.66,0.92c0-1.87-0.01-3.64,0.02-5.41c0-0.14,0.22-0.28,0.47-0.45
		c0.67-0.03,1.21-0.03,1.86-0.03c-0.16-0.3-0.26-0.48-0.35-0.66C127.11,104.19,127.88,104.49,128.68,104.83z"/>
	<path class="st8" d="M125.77,113.56c-0.11,1.59-0.21,3.18-0.32,4.77c-0.03,0.44-0.07,0.88-0.11,1.39
		c-0.57,0.26-1.14,0.44-1.88,0.68c0.19-2.16,0.36-4.16,0.61-6.24C124.68,113.9,125.22,113.73,125.77,113.56z"/>
	<path class="st8" d="M130.67,109.12c0.29-0.1,0.55-0.15,0.87-0.2c0.16,0.56,0.24,1.12,0.32,1.75c-1.05,0.51-2.1,0.94-3.13,1.39
		c-0.91,0.39-1.82,0.81-2.81,1.14c-0.08-0.53-0.08-0.99-0.09-1.44c1.31-0.63,2.63-1.24,3.93-1.89
		C130.09,109.71,130.35,109.41,130.67,109.12z"/>
	<path class="st8" d="M118.23,106.46c-0.07-0.62-0.08-1.27-0.09-1.99c1.51-0.71,3.11-0.83,4.78-0.94c-0.11,0.44-0.19,0.78-0.29,1.18
		c-1.13,0.28-2.26,0.42-3.34,0.74C118.89,105.57,118.62,106.1,118.23,106.46z"/>
	<path class="st13" d="M125.78,111.76c0.07,0.46,0.07,0.92,0.09,1.45c-0.01,0.14-0.03,0.2-0.08,0.3c-0.57,0.22-1.11,0.39-1.71,0.57
		C123.99,112.51,123.99,112.51,125.78,111.76z"/>
	<path class="st13" d="M126.29,103.86c0.14,0.22,0.24,0.4,0.4,0.7c-0.65,0-1.19,0-1.8,0c0.03-0.31,0.14-0.61,0.27-0.97
		C125.51,103.67,125.87,103.74,126.29,103.86z"/>
	<path class="st23" d="M29.57,133.45c0.29-0.98,0.59-1.96,0.96-2.94c0.89-0.45,1.73-0.85,2.49-1.36c1.26-0.84,2.53-1.28,4.02-0.57
		c0.5,0.24,1.08,0.35,1.62,0.52c0.23,1.02,0.49,2.04,0.68,3.07c0.05,0.26-0.09,0.6-0.24,0.85c-0.38,0.67-0.81,1.3-1.27,2.04
		c-1.1-0.57-2.35-0.74-3.64-0.26c-0.21,0.08-0.5,0.12-0.59,0.27c-0.16,0.27-0.18,0.61-0.26,0.92c0.32,0.07,0.65,0.24,0.95,0.19
		c0.39-0.07,0.73-0.39,1.12-0.47c1.19-0.25,2.33,0.5,2.63,1.63c0.16,0.6-0.13,1.3,0.46,1.85c0.1,0.09-0.25,0.72-0.43,1.08
		c-0.54,1.08-0.98,2.25-2.11,2.91c-1.71,1-3.38,0.7-4.64-0.53c-1.32-1.29-2.08-2.86-2.05-4.75c0.01-0.69,0-1.39,0.04-2.2
		c0.32-0.06,0.61-0.03,0.88,0.05c0.75,0.23,1.49,0.49,2.3,0.76c0-0.63,0-1.09,0-1.55c-0.81-0.3-1.6-0.56-2.36-0.89
		C29.89,133.94,29.75,133.65,29.57,133.45z"/>
	<path class="st22" d="M73.54,116.77c1.49-0.05,2.98-0.1,4.54-0.16c-0.61,1.66-1.13,3.41-2,4.96c-4.23,7.46-10.65,12.13-18.86,14.44
		c-0.43,0.12-0.86,0.22-1.36,0.32c-0.1-0.34-0.14-0.67-0.11-1.07c3.73-1.64,7.06-3.72,9.96-6.47
		C69.29,125.41,72.01,121.48,73.54,116.77z"/>
	<path class="st24" d="M54.42,138.35c-0.18,0.56-0.36,1.12-0.65,1.73c-1.3,0.86-2.48,1.72-3.72,2.45c-0.66,0.38-1.57,0.26-2.12,0.94
		c-2.43-0.5-3.95-1.98-4.68-4.32c-0.06-0.18-0.11-0.4-0.24-0.53c-0.8-0.74-0.32-1.53-0.05-2.26c0.08-0.24,0.48-0.47,0.76-0.51
		c1.24-0.18,2.48-0.28,3.65,0.38c0.18,0.1,0.54-0.15,0.82-0.24c-0.14-0.32-0.19-0.84-0.42-0.93c-0.66-0.25-1.39-0.37-2.1-0.47
		c-0.46-0.06-0.94-0.01-1.5-0.08c0.13-0.55,0.33-1.03,0.55-1.54c0.87,0.9,0.87,0.89,1.74,0.19c0.31-0.25,0.59-0.42,0.83,0.13
		c0.09,0.2,0.39,0.32,0.6,0.47c0.24,0.17,0.49,0.34,0.75,0.49c0.22,0.13,0.45,0.23,0.67,0.34c0.05-0.05,0.11-0.1,0.16-0.16
		c-0.14-0.3-0.29-0.59-0.47-0.97c0.73,0.22,1.76-0.47,1.89,0.95c0.8-0.66,0.91-0.03,1.04,0.49c-0.3,0.11-0.56,0.19-0.83,0.28
		c0.08,0.52,0.15,0.98,0.23,1.5c1.07-0.3,2.09-0.59,3.11-0.89c0.01,0.23,0.02,0.46-0.04,0.78c-0.7,0.19-1.33,0.31-1.96,0.38
		c-1.24,0.15-1.35,0.32-0.99,1.66C52.45,138.53,53.44,138.44,54.42,138.35z"/>
	<path class="st25" d="M51.99,134.88c-0.18-0.49-0.3-1.12-1.09-0.46c-0.13-1.43-1.16-0.73-1.89-0.95c0.18,0.38,0.33,0.68,0.47,0.97
		c-0.05,0.05-0.11,0.1-0.16,0.16c-0.22-0.11-0.45-0.21-0.67-0.34c-0.26-0.15-0.5-0.32-0.75-0.49c-0.21-0.15-0.51-0.27-0.6-0.47
		c-0.23-0.55-0.52-0.38-0.83-0.13c-0.88,0.7-0.87,0.71-1.74-0.19c-0.22,0.51-0.42,0.99-0.63,1.53c-0.38,0.14-0.76,0.22-1.19,0.31
		c-0.12-0.3-0.23-0.57-0.25-0.62c0.19-0.54,0.29-0.88,0.44-1.21c0.21-0.47,0.4-0.96,0.67-1.4c0.97-1.62,2.37-2.69,4.3-3.08
		c0.71,0.29,1.38,0.45,1.96,0.76c0.52,0.28,0.94,0.75,1.43,1.11c0.66,0.48,1.33,0.94,2,1.41c0.23,0.77,0.46,1.53,0.63,2.39
		c-0.16,0.1-0.25,0.11-0.33,0.04c-0.23-0.32-0.48-0.57-0.72-0.82c-0.05,0.05-0.11,0.09-0.16,0.14c0.03,0.34,0.07,0.68,0.06,1.05
		C52.6,134.71,52.29,134.79,51.99,134.88z"/>
	<path class="st6" d="M73.47,116.76c-1.46,4.71-4.18,8.65-7.75,12.03c-2.9,2.74-6.23,4.83-9.96,6.41c-0.19-0.53-0.31-1.08-0.44-1.7
		c0.24-0.07,0.53,0.01,0.73-0.08c7.12-3.28,12.46-8.34,15.55-15.63c0.13-0.3,0.16-0.63,0.17-0.99
		C72.27,116.75,72.83,116.76,73.47,116.76z"/>
	<path class="st21" d="M38.65,129.03c-0.53-0.11-1.1-0.21-1.6-0.46c-1.48-0.72-2.75-0.28-4.02,0.57c-0.77,0.51-1.61,0.92-2.45,1.33
		c0.31-0.76,0.62-1.5,1.02-2.18c0.73-1.22,1.79-2.01,3.27-1.83C36.51,126.65,37.99,127.22,38.65,129.03z"/>
	<path class="st24" d="M41.74,135.89c-0.28,0.73-0.52,1.41-0.84,2.04c-0.41,0.79-1.08,0.77-1.54,0c-0.65-1.08-0.37-3.13,0.54-3.99
		c0.43-0.4,0.92-0.44,1.2,0.05C41.4,134.55,41.53,135.21,41.74,135.89z"/>
	<path class="st16" d="M47.97,143.53c0.52-0.74,1.43-0.61,2.09-1c1.25-0.73,2.42-1.59,3.68-2.41c-0.61,1.93-1.95,3.13-3.95,3.52
		C49.21,143.75,48.59,143.61,47.97,143.53z"/>
	<path class="st22" d="M53.46,131.72c-0.67-0.41-1.34-0.86-2-1.35c-0.49-0.36-0.91-0.83-1.43-1.11c-0.58-0.31-1.25-0.47-1.9-0.75
		c1.81-0.64,3.7,0.08,4.66,1.73C53.05,130.69,53.24,131.18,53.46,131.72z"/>
	<path class="st26" d="M29.52,133.5c0.23,0.15,0.37,0.44,0.6,0.54c0.76,0.33,1.55,0.59,2.36,0.89c0,0.46,0,0.92,0,1.55
		c-0.81-0.27-1.55-0.53-2.3-0.76c-0.27-0.09-0.56-0.11-0.89-0.13C29.33,134.94,29.4,134.24,29.52,133.5z"/>
	<path class="st26" d="M53.75,134.28c0.09-0.01,0.19-0.02,0.35-0.04c0.17,0.47,0.27,0.95,0.36,1.5c-1.03,0.36-2.05,0.65-3.11,0.95
		c-0.08-0.52-0.15-0.98-0.23-1.5c0.27-0.09,0.52-0.17,0.83-0.28c0.35-0.12,0.65-0.21,1.06-0.32
		C53.32,134.47,53.53,134.38,53.75,134.28z"/>
	<path class="st26" d="M54.44,138.27c-1,0.17-1.99,0.26-2.97,0.35c-0.37-1.34-0.25-1.51,0.99-1.66c0.63-0.08,1.26-0.2,1.96-0.31
		C54.47,137.16,54.46,137.67,54.44,138.27z"/>
	<path class="st24" d="M41.29,132.58c-0.02-0.86,0.58-1.16,1.26-1.45c-0.18,0.46-0.4,0.94-0.68,1.38
		C41.8,132.61,41.52,132.58,41.29,132.58z"/>
	<path class="st17" d="M151.77,101.38c1.33,0.75,2.67,2.31,3.17,3.77c-2.31,0.62-4.61,1.23-6.97,1.76c0.05-1.78,0.16-3.47,0.27-5.16
		c0,0,0,0,0.06-0.03C149.49,101.59,150.63,101.49,151.77,101.38z"/>
	<path class="st17" d="M156.2,108.11c0.09,0.51,0.17,1.02,0.27,1.59c-2.96,1.22-5.87,2.42-8.85,3.55c-0.02-0.84,0.1-1.62,0.06-2.38
		c-0.04-0.7,0.36-0.81,0.88-0.92c1.4-0.31,2.8-0.63,4.2-0.96C153.9,108.71,155.05,108.4,156.2,108.11z"/>
	<path class="st12" d="M156.2,108.05c-1.15,0.36-2.29,0.66-3.44,0.94c-1.4,0.34-2.8,0.66-4.2,0.96c-0.52,0.11-0.91,0.22-0.88,0.92
		c0.04,0.77-0.07,1.54-0.12,2.4c-0.58,0.21-1.17,0.34-1.83,0.49c0.1-1.57,0.19-3.07,0.28-4.37c2.91-0.8,5.66-1.54,8.4-2.3
		C155.74,106.71,155.73,106.68,156.2,108.05z"/>
	<path class="st7" d="M148.23,101.75c-0.11,1.69-0.22,3.39-0.34,5.16c-0.54,0.08-1.07,0.08-1.73,0.08c0.09-1.57,0.18-3.05,0.36-4.57
		C147.15,102.17,147.69,101.96,148.23,101.75z"/>
	<path class="st13" d="M148.23,101.75c-0.54,0.21-1.08,0.42-1.69,0.61c0.11-1.6,0.11-1.6,1.8-1.84
		C148.35,100.98,148.29,101.36,148.23,101.75C148.23,101.75,148.23,101.75,148.23,101.75z"/>
	<path class="st8" d="M148.29,101.72c0-0.36,0.06-0.75,0.12-1.2c1.15,0.02,2.31,0.06,3.33,0.8
		C150.63,101.49,149.49,101.59,148.29,101.72z"/>
	<path class="st13" d="M158.61,110.47c0.36,0.01,0.82-0.02,1.05,0.2c0.54,0.48,0.26,1.08-0.66,1.43
		C158.83,111.58,158.72,111.06,158.61,110.47z"/>
	<path class="st13" d="M147.39,116.68c-0.08,0.08-0.15,0.09-0.32,0.07c-0.29-0.13-0.48-0.24-0.66-0.35c-0.04-0.15-0.08-0.3-0.17-0.5
		c0.31-0.19,0.67-0.34,1.09-0.49C147.39,115.81,147.39,116.21,147.39,116.68z"/>
	<path class="st17" d="M168.19,109.97c-0.24-1.21-0.41-2.42-0.61-3.71c0.02-0.15,0.06-0.24,0.2-0.29c0.3,0.38,0.43,0.84,0.73,1.05
		c0.18,0.13,0.65-0.09,0.95-0.23c0.52-0.26,0.98-0.73,1.52-0.84c1.31-0.26,2.66-0.37,3.99-0.53c-0.61,1.33-1.56,2.37-2.86,3
		C170.86,109.02,169.54,109.46,168.19,109.97z"/>
	<path class="st11" d="M171.11,118.76c-0.31,0.54-0.62,1.08-0.98,1.65c-0.2-0.41-0.3-0.87-0.5-1.29c-0.83-1.77-1.46-3.59-1.6-5.62
		c0.56-0.24,1.06-0.41,1.57-0.51c0.29,1.69,0.55,3.3,0.88,4.9C170.56,118.21,170.9,118.47,171.11,118.76z"/>
	<path class="st7" d="M175.01,105.38c-1.38,0.2-2.73,0.31-4.04,0.57c-0.54,0.11-1,0.59-1.52,0.84c-0.3,0.15-0.77,0.36-0.95,0.23
		c-0.3-0.22-0.44-0.67-0.69-1.07c0.18-0.26,0.37-0.59,0.64-0.68c1.88-0.67,3.83-0.86,5.82-0.67
		C174.64,104.63,175.28,104.6,175.01,105.38z"/>
	<path class="st13" d="M175.89,108.28c0.12-0.04,0.2-0.04,0.34-0.04c-0.22,0.81-0.49,1.61-0.84,2.47c-0.13,0.04-0.18,0.06-0.27,0.13
		c-0.13,0.06-0.2,0.09-0.34,0.11c-0.77,0.27-1.49,0.52-2.19,0.83c-0.51,0.23-0.65,0.04-0.63-0.44c0.89-0.7,1.79-1.4,2.68-2.1
		C175.04,108.94,175.44,108.63,175.89,108.28z"/>
	<path class="st11" d="M171.89,111.39c0.04,0.44,0.18,0.63,0.69,0.4c0.7-0.31,1.42-0.56,2.17-0.78c-0.44,0.5-0.89,0.99-1.42,1.38
		c-0.2,0.15-0.7,0.21-0.82,0.09c-0.55-0.57-1.05-0.24-1.58-0.04c-0.41,0.15-0.84,0.25-1.28,0.29c-0.02-0.48-0.02-0.89-0.03-1.3
		c0.35-0.27,0.62-0.32,1.04,0.02C170.89,111.63,171.43,111.44,171.89,111.39z"/>
	<path class="st13" d="M169.55,111.42c0.07,0.4,0.07,0.81,0.08,1.33c0,0.11-0.03,0.16-0.03,0.16c-0.5,0.17-1,0.34-1.56,0.52
		C167.93,111.83,167.49,112.15,169.55,111.42z"/>
	<path class="st17" d="M169.61,112.99c0-0.08,0.03-0.13,0.04-0.17c0.43-0.15,0.87-0.25,1.28-0.4c0.54-0.19,1.03-0.53,1.58,0.04
		c0.12,0.13,0.62,0.06,0.82-0.09c0.53-0.39,0.98-0.87,1.48-1.37c0.09-0.08,0.16-0.12,0.29-0.09c0.07,0.11,0.08,0.17,0.09,0.22
		c-1.34,2.51-2.68,5.01-4.05,7.57c-0.25-0.24-0.59-0.5-0.66-0.82C170.16,116.29,169.9,114.68,169.61,112.99z"/>
	<path class="st11" d="M175.24,111.11c-0.05-0.02-0.07-0.07-0.08-0.21c0.04-0.13,0.09-0.15,0.19-0.14
		C175.36,110.86,175.32,110.97,175.24,111.11z"/>
	<path class="st8" d="M239.81,94.69c-0.97,0.42-1.92,0.78-2.87,1.13c-1.03,0.38-1.45,0.2-1.8-0.79c1.62-0.75,3.23-1.44,5-2.19
		C240.02,93.52,239.93,94.07,239.81,94.69z"/>
	<path class="st22" d="M233.96,93.1c0.51-0.85,1.09-1.68,1.69-2.57c0.29-0.13,0.58-0.22,0.93-0.24c0.33,1,0.65,1.15,1.52,0.9
		c0.59-0.17,1.23-0.18,1.84-0.26c-1.64,0.71-3.28,1.44-4.93,2.12C234.73,93.17,234.36,93.1,233.96,93.1z"/>
	<path class="st12" d="M240,90.93c-0.67,0.08-1.31,0.09-1.9,0.26c-0.87,0.25-1.19,0.1-1.46-0.91c1.16-0.29,2.33-0.51,3.71-0.77
		C240.23,90.09,240.15,90.51,240,90.93z"/>
	<path class="st6" d="M73.38,109.49c0.46-0.07,0.97-0.08,1.56-0.08c-0.17,1.66-0.42,3.33-0.67,4.99c-0.04,0.3-0.1,0.59-0.1,0.95
		c-0.5,0.06-1.03,0.06-1.65,0.04C72.77,113.44,73.1,111.5,73.38,109.49z"/>
	<path class="st8" d="M146.39,116.47c0.19,0.04,0.38,0.15,0.61,0.28c-0.09,0.13-0.23,0.22-0.36,0.32
		C146.56,116.89,146.48,116.72,146.39,116.47z"/>
	<path class="st27" d="M37.51,122.75c-2.61,0.23-4.74-0.56-6.3-2.61c-0.2-0.26-0.32-0.88-0.16-1.05c0.4-0.44,0.77-0.06,1.09,0.29
		c2.93,3.26,7.05,2.83,9.27-0.96c0.11-0.19,0.18-0.44,0.34-0.57c0.24-0.19,0.58-0.44,0.81-0.38c0.23,0.06,0.51,0.43,0.55,0.71
		c0.35,2.04,2.19,3.63,4.35,3.71c1.71,0.06,3.89-1.66,4.29-3.4c0.05-0.2,0.01-0.44-0.05-0.63c-0.16-0.46-0.04-0.88,0.41-0.88
		c0.34,0,0.89,0.28,0.99,0.57c0.14,0.4,0.04,0.94-0.09,1.38c-0.71,2.35-2.37,3.79-4.74,4.16c-2.43,0.38-4.37-0.71-5.87-2.6
		c-0.12-0.15-0.21-0.32-0.36-0.57C40.92,121.48,39.44,122.42,37.51,122.75z"/>
	<path class="st28" d="M35.15,97.64c1.09,0.54,1.37,1.2,1.04,2.53c-0.31,0.36-0.84,0.69-0.88,1.07c-0.07,0.8,0.59,1.22,1.27,1.57
		c0,0.3,0.01,0.63,0,0.96c-0.03,1.01-0.46,1.44-1.45,1.49c-0.69,0.04-1.38,0.09-2.07,0.13c-0.44,0.03-0.71-0.04-0.72-0.62
		c-0.02-2.05-0.06-4.1-0.19-6.14c-0.05-0.74,0.19-0.94,0.85-0.94C33.7,97.71,34.39,97.66,35.15,97.64z"/>
	<path class="st28" d="M48.15,98.92c-0.09,0.62,0.29,1.28-0.53,1.62c-0.34,0.14-0.85,0.36-0.63,0.99c0.19,0.53,0.41,0.98,1.2,0.87
		c-0.13,0.88-0.22,1.7-0.4,2.49c-0.04,0.17-0.41,0.33-0.64,0.36c-0.71,0.1-1.42,0.13-2.13,0.19c-0.53,0.04-0.56-0.32-0.58-0.7
		c-0.06-1.69-0.05-3.39-0.2-5.07c-0.25-2.84,0.47-2.36,2.38-2.44C47.75,97.2,48.14,97.63,48.15,98.92z"/>
	<path class="st27" d="M35.68,93.43c-0.16-0.6,0.19-0.71,0.5-0.44c0.57,0.47,1.06,1.05,1.54,1.62c0.12,0.14,0.07,0.42,0.09,0.63
		c-0.2-0.07-0.46-0.07-0.6-0.21C36.7,94.54,36.21,94,35.68,93.43z"/>
	<path class="st27" d="M43,93.12c0.14-0.21,0.21-0.41,0.35-0.53c0.19-0.17,0.42-0.28,0.64-0.42c-0.02,0.24,0.02,0.52-0.08,0.73
		c-0.2,0.45-0.45,0.89-0.73,1.29c-0.15,0.21-0.42,0.35-0.63,0.52c0.02-0.29,0-0.6,0.07-0.88C42.67,93.59,42.84,93.38,43,93.12z"/>
	<path class="st24" d="M53.76,134.21c-0.23,0.17-0.45,0.26-0.72,0.34c-0.09-0.35-0.13-0.69-0.16-1.03c0.05-0.05,0.11-0.09,0.16-0.14
		C53.29,133.64,53.53,133.89,53.76,134.21z"/>
</g>
</svg>
