<svg width="390" height="98" viewBox="0 0 390 98" fill="none" xmlns="http://www.w3.org/2000/svg">
<ellipse cx="45.8807" cy="56.3351" rx="36.6573" ry="32.001" stroke="#3B3E3C" stroke-width="2"/>
<path d="M19.1564 34.3344L24.0046 17.6672L28.8528 1M28.8528 1L40.6777 25.4452M28.8528 1H31.2178L46.5902 24.3341L83.011 5.22236M83.011 5.22236L72.3685 34.3344M83.011 5.22236H85.1395L79.4635 36.1123M78.0445 42.5569L79.4635 36.1123M79.4635 36.1123C94.5994 50.3349 89.6329 85.4472 60.5436 87.6695" stroke="#3B3E3C" stroke-width="2"/>
<rect x="33.3463" y="44.3347" width="5.20297" height="8.44472" fill="#3B3E3C"/>
<rect x="47.0632" y="44.3347" width="5.20297" height="8.44472" fill="#3B3E3C"/>
<rect x="37.1303" y="47.8904" width="1.41899" height="1.77784" fill="#FFFEFE"/>
<rect x="50.8472" y="47.8904" width="1.41899" height="1.77784" fill="#FFFEFE"/>
<line y1="-1" x2="4.18081" y2="-1" transform="matrix(0.905082 0.425237 -0.469743 0.882803 35.7113 39.4457)" stroke="#3B3E3C" stroke-width="2"/>
<line y1="-1" x2="4.18081" y2="-1" transform="matrix(0.905082 -0.425237 0.469743 0.882803 46.5902 41.2234)" stroke="#3B3E3C" stroke-width="2"/>
<path d="M32.1638 69.0023C35.0018 71.3727 41.6238 74.4691 45.4077 67.8911C47.9304 71.0764 53.8744 75.3136 57.4692 66.78" stroke="#3B3E3C" stroke-width="2"/>
<ellipse cx="43.7522" cy="87.0028" rx="2.36499" ry="2.66675" fill="#FFE3E3"/>
<path d="M62.1991 87.8916C60.2076 95.0463 57.9638 96.7808 52.7392 96.7808C47.5146 96.7808 45.948 92.6614 43.2792 87.8916C47.2624 84.4227 47.5146 79.0024 52.7392 79.0024C57.9638 79.0024 62.1991 82.9823 62.1991 87.8916Z" fill="#FFC3C3"/>
<path d="M44.2252 86.8829C44.2252 91.8584 39.8567 95.8919 34.468 95.8919C29.0792 95.8919 29.0893 91.7669 27.6703 85.2249C29.0893 79.5443 31.3901 76.3357 36.7789 76.3357C42.1677 76.3357 44.2252 81.9073 44.2252 86.8829Z" fill="#FFCBCB"/>
<path d="M43.9887 85.1736C44.4109 85.7025 44.6815 85.3865 44.8337 85.8916M43.9887 85.1736L44.8337 85.8916M43.9887 85.1736C43.616 85.3663 43.1947 84.8116 42.8063 85.1736M44.8337 85.8916C47.0632 79.8914 56.5232 72.7801 60.5436 85.6694C61.9626 95.003 50.1377 104.337 44.7245 88.3361M44.8337 85.8916C45.0996 86.7738 45.0043 87.6054 44.7245 88.3361M44.7245 88.3361C44.3029 89.4373 44.4617 89.225 43.2793 89.4473C42.3333 89.0028 41.5076 88.7503 41.5012 87.8917M42.8063 85.1736C44.7245 78.1136 33.3463 69.4466 29.0893 84.7804C26.7244 95.4475 39.2588 103.892 41.5012 87.8917M42.8063 85.1736C42.3447 85.6038 41.9294 86.1457 41.6968 86.7805M41.5012 87.8917C41.4983 87.496 41.5707 87.1246 41.6968 86.7805M34.7653 85.1736C34.5288 86.0625 38.8013 88.1139 41.6968 86.7805M45.4077 87.225C46.8267 88.188 51.2729 89.0917 52.9757 86.7805" stroke="#8A1616" stroke-width="2"/>
<path d="M0 59.8909H16.5549" stroke="#3B3E3C" stroke-width="2"/>
<path d="M2.83798 68.1133L15.8454 66.5577" stroke="#3B3E3C" stroke-width="2"/>
<path d="M70.2401 58.1129H85.849" stroke="#3B3E3C" stroke-width="2"/>
<path d="M71.1861 64.3354L85.849 66.7799" stroke="#3B3E3C" stroke-width="2"/>
<path d="M132.28 64.384V54.688H126.184V64.384H132.28ZM132.28 53.008V44.32H126.184V53.008H132.28ZM143.128 60.544C143.128 57.856 143.112 55.168 143.08 52.48C143.08 49.76 143.08 47.04 143.08 44.32H135.928V53.008H138.136C138.168 52.592 138.344 52.16 138.664 51.712C139.016 51.232 139.432 50.992 139.912 50.992C140.392 50.992 140.792 51.2 141.112 51.616C141.464 52 141.64 52.416 141.64 52.864C141.64 53.28 141.48 53.696 141.16 54.112C140.872 54.496 140.504 54.688 140.056 54.688H135.928V64.384H139.288C140.408 64.384 141.32 64.032 142.024 63.328C142.76 62.624 143.128 61.696 143.128 60.544ZM120.184 27.424C120.184 27.712 119.96 28.192 119.512 28.864C119.064 29.536 118.52 30.288 117.88 31.12C117.24 31.92 116.632 32.656 116.056 33.328C115.512 34 115.112 34.464 114.856 34.72C115.72 36.384 116.408 38.192 116.92 40.144C117.432 42.064 117.8 44.032 118.024 46.048C118.248 48.032 118.36 49.952 118.36 51.808C118.36 52.704 118.296 53.792 118.168 55.072C118.072 56.352 117.88 57.696 117.592 59.104C117.304 60.48 116.888 61.776 116.344 62.992C115.8 64.208 115.096 65.184 114.232 65.92C113.4 66.688 112.376 67.072 111.16 67.072C110.552 67.072 109.928 66.8 109.288 66.256C108.648 65.712 108.072 65.088 107.56 64.384C107.048 63.712 106.648 63.136 106.36 62.656C106.264 62.56 106.216 62.48 106.216 62.416C106.216 62.32 106.28 62.272 106.408 62.272C106.504 62.272 106.712 62.352 107.032 62.512C107.16 62.576 107.304 62.656 107.464 62.752C107.624 62.848 107.8 62.944 107.992 63.04C108.376 63.232 108.792 63.408 109.24 63.568C109.72 63.696 110.2 63.76 110.68 63.76C111.512 63.76 112.184 63.424 112.696 62.752C113.208 62.08 113.576 61.28 113.8 60.352C114.056 59.424 114.232 58.464 114.328 57.472C114.424 56.48 114.488 55.68 114.52 55.072C114.584 54.048 114.632 53.024 114.664 52C114.728 50.944 114.76 49.904 114.76 48.88V48.064C113.672 49.664 112.424 51.248 111.016 52.816C109.64 54.352 108.12 55.664 106.456 56.752C106.36 56.784 106.216 56.864 106.024 56.992C105.832 57.12 105.64 57.248 105.448 57.376C105.224 57.504 105.016 57.616 104.824 57.712C104.632 57.808 104.472 57.856 104.344 57.856C104.152 57.856 104.056 57.792 104.056 57.664C104.056 57.632 104.088 57.552 104.152 57.424C104.6 56.88 105.064 56.336 105.544 55.792C106.056 55.248 106.536 54.688 106.984 54.112C108.552 52.128 109.976 50.016 111.256 47.776C112.536 45.504 113.512 43.152 114.184 40.72C113.928 39.216 113.528 37.792 112.984 36.448C111.992 37.504 110.856 38.56 109.576 39.616C108.296 40.672 107 41.504 105.688 42.112C105.656 42.112 105.624 42.128 105.592 42.16C105.56 42.16 105.528 42.16 105.496 42.16C105.496 42.16 105.48 42.16 105.448 42.16C105.384 42.16 105.304 42.144 105.208 42.112C105.112 42.08 105.064 42.016 105.064 41.92C105.064 41.856 105.112 41.776 105.208 41.68C106.424 40.496 107.576 39.28 108.664 38.032C109.784 36.784 110.792 35.424 111.688 33.952C111.24 33.248 110.664 32.592 109.96 31.984C109.288 31.376 108.504 31.072 107.608 31.072C107.096 31.072 106.6 31.248 106.12 31.6C105.672 31.92 105.32 32.176 105.064 32.368C104.84 32.528 104.696 32.608 104.632 32.608C104.504 32.608 104.44 32.56 104.44 32.464C104.44 32.4 104.472 32.336 104.536 32.272C104.888 31.536 105.432 30.848 106.168 30.208C106.936 29.536 107.768 29.2 108.664 29.2C109.56 29.2 110.392 29.472 111.16 30.016C111.96 30.56 112.648 31.136 113.224 31.744C113.832 30.72 114.36 29.632 114.808 28.48C115.256 27.328 115.688 26.192 116.104 25.072C116.264 25.136 116.568 25.28 117.016 25.504C117.464 25.728 117.912 25.968 118.36 26.224C118.84 26.448 119.256 26.672 119.608 26.896C119.992 27.12 120.184 27.296 120.184 27.424ZM147.112 59.152C147.112 61.584 146.456 63.344 145.144 64.432C143.864 65.52 142.04 66.064 139.672 66.064H122.536V42.592H147.112V59.152ZM150.088 32.224C150.088 32.864 149.864 33.392 149.416 33.808C149 34.192 148.472 34.384 147.832 34.384H140.2C139.88 35.12 139.512 36.032 139.096 37.12C138.712 38.176 138.312 39.024 137.896 39.664C137.832 39.792 137.736 39.904 137.608 40C137.512 40.096 137.384 40.144 137.224 40.144C137.096 40.144 137 40.096 136.936 40C136.872 39.872 136.84 39.744 136.84 39.616C136.84 38.752 136.888 37.888 136.984 37.024C137.112 36.128 137.208 35.248 137.272 34.384H130.744L131.032 38.944L127.432 39.136L127.096 34.384H119.704V32.848H127L126.424 25.696L130.216 25.504L130.648 32.848H137.464C137.56 31.568 137.672 30.304 137.8 29.056C137.96 27.776 138.104 26.496 138.232 25.216C138.392 25.216 138.696 25.248 139.144 25.312C139.592 25.344 140.088 25.392 140.632 25.456C141.176 25.52 141.656 25.584 142.072 25.648C142.488 25.712 142.728 25.776 142.792 25.84C142.92 25.968 142.984 26.112 142.984 26.272C142.984 26.56 142.888 27.008 142.696 27.616C142.536 28.192 142.328 28.832 142.072 29.536C141.848 30.208 141.624 30.848 141.4 31.456C141.176 32.064 141 32.528 140.872 32.848H146.008C145.976 32.688 145.96 32.48 145.96 32.224C145.96 31.68 146.168 31.2 146.584 30.784C147 30.368 147.496 30.16 148.072 30.16C148.648 30.16 149.128 30.368 149.512 30.784C149.896 31.2 150.088 31.68 150.088 32.224ZM156.232 41.056V45.568H168.088C168.344 44.832 168.488 44.08 168.52 43.312C168.552 42.544 168.584 41.792 168.616 41.056H156.232ZM166.024 33.184H163.768V39.856H165.4C165.656 39.408 165.816 38.96 165.88 38.512C165.976 38.064 166.024 37.584 166.024 37.072V33.184ZM166.024 32.032V27.712H159.496V39.856H161.8V31.984L166.024 32.032ZM190.216 50.848H177.448V55.792L186.856 55.744C187.752 55.744 188.536 55.616 189.208 55.36C189.88 55.104 190.216 54.432 190.216 53.344V50.848ZM179.368 40.72V35.824H176.344V40.72H179.368ZM185.032 40.72V35.824H182.056V40.72H185.032ZM179.368 34.624V30.112H176.344V34.624H179.368ZM185.032 34.624V30.112H182.056V34.624H185.032ZM191.272 30.112H187.768V34.624H188.392C188.456 34.464 188.552 34.304 188.68 34.144C188.808 33.984 188.968 33.904 189.16 33.904C189.416 33.904 189.608 34.032 189.736 34.288C189.896 34.512 189.976 34.72 189.976 34.912C189.976 35.456 189.704 35.76 189.16 35.824C188.936 35.856 188.696 35.872 188.44 35.872C188.216 35.84 187.992 35.824 187.768 35.824V40.72C188.632 40.656 189.432 40.48 190.168 40.192C190.904 39.904 191.272 39.232 191.272 38.176V30.112ZM172.216 39.808C172.024 41.12 171.592 42.416 170.92 43.696C170.28 44.944 169.432 45.968 168.376 46.768V60.736C168.376 61.376 168.344 62.112 168.28 62.944C168.248 63.776 168.104 64.48 167.848 65.056C167.656 65.568 167.32 66.048 166.84 66.496C166.36 66.944 165.816 67.168 165.208 67.168C164.696 67.168 164.184 66.992 163.672 66.64C163.192 66.32 162.744 65.92 162.328 65.44C161.912 64.96 161.56 64.544 161.272 64.192C161.208 64.128 161.176 64.064 161.176 64C161.176 63.936 161.24 63.904 161.368 63.904C161.432 63.904 161.56 63.936 161.752 64C162.008 64.064 162.28 64.16 162.568 64.288C162.856 64.416 163.144 64.48 163.432 64.48C163.944 64.48 164.328 64.304 164.584 63.952C164.872 63.6 165.064 63.184 165.16 62.704C165.256 62.224 165.304 61.776 165.304 61.36V46.768H159.784V50.752H161.656C161.656 50.496 161.752 50.176 161.944 49.792C162.168 49.376 162.456 49.168 162.808 49.168C163.192 49.168 163.464 49.344 163.624 49.696C163.816 50.016 163.912 50.336 163.912 50.656C163.912 51.008 163.784 51.296 163.528 51.52C163.272 51.712 162.968 51.808 162.616 51.808L159.784 51.856V55.888H161.656C161.656 55.568 161.736 55.216 161.896 54.832C162.088 54.448 162.392 54.256 162.808 54.256C163.192 54.256 163.464 54.432 163.624 54.784C163.816 55.104 163.912 55.424 163.912 55.744C163.912 56.064 163.784 56.336 163.528 56.56C163.304 56.784 163.016 56.896 162.664 56.896L159.784 56.944V66.88H156.712V46.672L153.064 46.624V39.76L156.616 39.808V26.32H169.048V35.056C169.048 35.984 168.952 36.832 168.76 37.6C168.6 38.336 168.248 39.088 167.704 39.856L172.216 39.808ZM196.888 64.624C196.888 65.072 196.712 65.488 196.36 65.872C196.04 66.288 195.624 66.496 195.112 66.496L170.632 66.4V64.72H179.704C179.128 63.792 178.536 62.896 177.928 62.032C177.352 61.136 176.76 60.256 176.152 59.392C176.472 59.296 176.888 59.184 177.4 59.056C177.944 58.896 178.488 58.768 179.032 58.672C179.576 58.544 179.992 58.48 180.28 58.48C180.44 58.48 180.552 58.56 180.616 58.72C180.648 58.784 180.664 58.896 180.664 59.056C180.728 59.344 180.744 59.632 180.712 59.92C180.712 60.208 180.728 60.496 180.76 60.784C180.792 61.424 180.84 62.08 180.904 62.752C180.968 63.392 181.032 64.048 181.096 64.72H185.8C186.088 63.696 186.344 62.672 186.568 61.648C186.824 60.592 187.064 59.536 187.288 58.48C187.512 58.544 187.816 58.624 188.2 58.72C188.584 58.816 188.984 58.912 189.4 59.008C189.816 59.104 190.2 59.216 190.552 59.344C190.904 59.44 191.144 59.52 191.272 59.584C191.368 59.616 191.416 59.712 191.416 59.872C191.416 60 191.224 60.288 190.84 60.736C190.488 61.184 190.056 61.68 189.544 62.224C189.032 62.768 188.552 63.28 188.104 63.76C187.656 64.208 187.336 64.528 187.144 64.72H193.384C193.416 64.272 193.576 63.824 193.864 63.376C194.184 62.928 194.6 62.704 195.112 62.704C195.592 62.704 196.008 62.912 196.36 63.328C196.712 63.744 196.888 64.176 196.888 64.624ZM193.48 52.768C193.48 54.176 193.304 55.2 192.952 55.84C192.6 56.48 192.04 56.88 191.272 57.04C190.504 57.2 189.48 57.28 188.2 57.28H174.424V49.216H193.48V52.768ZM197.944 44.608C197.944 45.12 197.752 45.568 197.368 45.952C197.016 46.336 196.568 46.528 196.024 46.528H171.448V45.04L194.104 45.088C194.136 44.544 194.296 43.968 194.584 43.36C194.872 42.752 195.352 42.448 196.024 42.448C196.568 42.448 197.016 42.688 197.368 43.168C197.752 43.616 197.944 44.096 197.944 44.608ZM194.584 37.648C194.584 39.44 194.072 40.624 193.048 41.2C192.056 41.744 190.76 42.016 189.16 42.016H173.512V28.72L179.368 28.768V24.112H182.056V28.768H185.032V24.112H187.768V28.768L194.584 28.72V37.648ZM245.224 61.312C245.224 61.92 244.968 62.48 244.456 62.992C243.976 63.472 243.416 63.712 242.776 63.712H201.784V61.744H220.552V33.616H204.952V31.6H237.496C237.496 30.928 237.736 30.304 238.216 29.728C238.728 29.12 239.368 28.816 240.136 28.816C240.84 28.816 241.416 29.088 241.864 29.632C242.312 30.144 242.536 30.72 242.536 31.36C242.536 31.968 242.28 32.496 241.768 32.944C241.288 33.392 240.728 33.616 240.088 33.616H225.16V61.744H239.848C239.848 60.944 240.072 60.208 240.52 59.536C240.968 58.864 241.656 58.528 242.584 58.528C243.384 58.528 244.024 58.816 244.504 59.392C244.984 59.936 245.224 60.576 245.224 61.312ZM293.032 55.456C293.032 56.192 292.76 56.752 292.216 57.136C291.704 57.488 291.08 57.664 290.344 57.664H273.496C273.496 58.368 273.496 59.088 273.496 59.824C273.496 60.56 273.464 61.296 273.4 62.032C273.336 63.152 273.176 64.192 272.92 65.152C272.696 66.144 272.248 66.928 271.576 67.504C270.936 68.112 269.912 68.416 268.504 68.416C267.928 68.416 267.208 68.272 266.344 67.984C265.512 67.728 264.712 67.392 263.944 66.976C263.176 66.56 262.584 66.176 262.168 65.824C262.04 65.76 261.976 65.664 261.976 65.536C261.976 65.376 262.072 65.296 262.264 65.296C262.328 65.296 262.376 65.296 262.408 65.296C262.44 65.328 262.472 65.344 262.504 65.344C263.016 65.472 263.544 65.568 264.088 65.632C264.632 65.728 265.16 65.776 265.672 65.776C267.08 65.776 268.008 65.456 268.456 64.816C268.936 64.176 269.192 63.216 269.224 61.936L269.368 57.664H250.648V55.888H269.368V55.6C269.368 54.992 269.336 54.4 269.272 53.824C269.208 53.216 269.144 52.608 269.08 52L273.304 52.288C273.848 51.872 274.344 51.44 274.792 50.992C275.272 50.512 275.72 50 276.136 49.456H260.2V47.776H281.56C281.656 47.776 281.72 47.824 281.752 47.92C281.784 48.016 281.8 48.096 281.8 48.16C281.8 48.192 281.768 48.272 281.704 48.4C280.904 49.872 279.72 51.056 278.152 51.952C276.584 52.848 275 53.472 273.4 53.824L273.544 55.888H288.616C288.616 55.824 288.6 55.76 288.568 55.696C288.568 55.6 288.568 55.52 288.568 55.456C288.568 54.88 288.792 54.336 289.24 53.824C289.688 53.28 290.216 53.008 290.824 53.008C291.464 53.008 291.992 53.28 292.408 53.824C292.824 54.336 293.032 54.88 293.032 55.456ZM275.848 41.2C275.848 41.36 275.752 41.44 275.56 41.44C275.496 41.44 275.272 41.36 274.888 41.2C274.536 41.04 274.152 40.848 273.736 40.624C273.32 40.4 272.92 40.192 272.536 40C272.152 39.808 271.88 39.68 271.72 39.616C271.368 39.872 270.792 40.224 269.992 40.672C269.224 41.12 268.44 41.52 267.64 41.872C266.872 42.192 266.28 42.352 265.864 42.352C265.736 42.352 265.672 42.336 265.672 42.304C265.672 42.208 265.704 42.128 265.768 42.064C265.768 42.064 265.8 42.032 265.864 41.968C265.896 41.936 265.928 41.92 265.96 41.92C266.664 41.44 267.368 40.944 268.072 40.432C268.776 39.888 269.416 39.296 269.992 38.656C269.48 38.4 268.968 38.16 268.456 37.936C267.944 37.712 267.416 37.472 266.872 37.216L268.84 35.728C269.224 35.952 269.608 36.192 269.992 36.448C270.376 36.672 270.76 36.896 271.144 37.12C271.496 36.704 271.816 36.272 272.104 35.824C272.392 35.376 272.648 34.912 272.872 34.432L275.752 35.488C275.4 36 275 36.496 274.552 36.976C274.104 37.424 273.64 37.872 273.16 38.32C273.288 38.448 273.496 38.64 273.784 38.896C274.072 39.152 274.36 39.44 274.648 39.76C274.968 40.048 275.24 40.336 275.464 40.624C275.72 40.88 275.848 41.072 275.848 41.2ZM292.12 42.832C291.992 43.76 291.656 44.72 291.112 45.712C290.568 46.704 289.928 47.648 289.192 48.544C288.488 49.408 287.8 50.144 287.128 50.752C287 50.88 286.856 50.992 286.696 51.088C286.536 51.184 286.376 51.232 286.216 51.232C286.024 51.232 285.896 51.152 285.832 50.992C285.8 50.832 285.784 50.688 285.784 50.56C285.784 50.496 285.784 50.432 285.784 50.368C285.816 50.304 285.832 50.24 285.832 50.176C285.992 49.248 286.088 48.32 286.12 47.392C286.184 46.432 286.264 45.488 286.36 44.56H255.928V50.128H251.944V42.784H256.552V26.752L260.152 27.136C261.112 26.752 262.056 26.336 262.984 25.888C263.912 25.44 264.84 24.976 265.768 24.496C265.96 24.56 266.344 24.752 266.92 25.072C267.496 25.36 268.04 25.68 268.552 26.032C269.064 26.352 269.32 26.592 269.32 26.752C269.32 26.912 269.176 27.04 268.888 27.136C268.632 27.2 268.344 27.248 268.024 27.28C267.704 27.312 267.48 27.328 267.352 27.328C266.104 27.456 264.872 27.616 263.656 27.808C262.44 27.968 261.208 28.128 259.96 28.288V32.08H263.608C263.64 31.824 263.752 31.584 263.944 31.36C264.136 31.136 264.392 31.024 264.712 31.024C265.032 31.024 265.288 31.152 265.48 31.408C265.672 31.632 265.768 31.888 265.768 32.176C265.768 32.592 265.64 32.896 265.384 33.088C265.128 33.248 264.808 33.328 264.424 33.328H259.96V37.216H263.608C263.64 36.96 263.752 36.72 263.944 36.496C264.136 36.272 264.392 36.16 264.712 36.16C265.032 36.16 265.288 36.288 265.48 36.544C265.672 36.768 265.768 37.024 265.768 37.312C265.768 37.632 265.656 37.904 265.432 38.128C265.24 38.352 264.968 38.464 264.616 38.464H259.96V42.832H281.032C281.768 42.832 282.248 42.528 282.472 41.92C282.696 41.312 282.808 40.704 282.808 40.096C282.808 39.84 282.792 39.568 282.76 39.28C282.76 38.992 282.76 38.72 282.76 38.464H277.192V37.12H282.76C282.76 36.512 282.76 35.888 282.76 35.248C282.76 34.608 282.776 33.968 282.808 33.328H277.192V31.984H282.808V28H276.904V26.608H286.456V38.944C286.456 39.648 286.408 40.32 286.312 40.96C286.216 41.568 286.008 42.192 285.688 42.832H292.12ZM275.656 33.376C275.656 33.536 275.576 33.616 275.416 33.616C275.32 33.616 275.096 33.536 274.744 33.376C274.392 33.184 273.992 32.976 273.544 32.752C273.128 32.528 272.728 32.32 272.344 32.128C271.96 31.904 271.672 31.76 271.48 31.696C271.288 31.888 270.952 32.16 270.472 32.512C270.024 32.864 269.512 33.248 268.936 33.664C268.392 34.048 267.88 34.384 267.4 34.672C266.92 34.928 266.568 35.056 266.344 35.056C266.088 35.056 265.96 34.96 265.96 34.768C265.96 34.704 266.024 34.608 266.152 34.48C266.824 33.936 267.464 33.376 268.072 32.8C268.712 32.192 269.288 31.536 269.8 30.832C269.288 30.576 268.776 30.336 268.264 30.112C267.752 29.856 267.224 29.616 266.68 29.392L268.6 27.904C268.824 28.032 269.032 28.16 269.224 28.288C269.448 28.384 269.656 28.496 269.848 28.624C270.008 28.752 270.184 28.88 270.376 29.008C270.568 29.104 270.76 29.216 270.952 29.344C271.24 28.8 271.512 28.24 271.768 27.664C272.024 27.088 272.28 26.496 272.536 25.888L275.512 26.992C275.16 27.6 274.76 28.208 274.312 28.816C273.864 29.392 273.4 29.952 272.92 30.496C273.08 30.624 273.304 30.816 273.592 31.072C273.88 31.296 274.184 31.552 274.504 31.84C274.824 32.128 275.096 32.416 275.32 32.704C275.544 32.96 275.656 33.184 275.656 33.376Z" fill="#686868"/>
</svg>
