<svg width="253" height="60" viewBox="0 0 253 60" fill="none" xmlns="http://www.w3.org/2000/svg">
<path d="M38.04 54.512V41.584H29.912V54.512H38.04ZM38.04 39.344V27.76H29.912V39.344H38.04ZM52.504 49.392C52.504 45.808 52.4827 42.224 52.44 38.64C52.44 35.0133 52.44 31.3867 52.44 27.76H42.904V39.344H45.848C45.8907 38.7893 46.1253 38.2133 46.552 37.616C47.0213 36.976 47.576 36.656 48.216 36.656C48.856 36.656 49.3893 36.9333 49.816 37.488C50.2853 38 50.52 38.5547 50.52 39.152C50.52 39.7067 50.3067 40.2613 49.88 40.816C49.496 41.328 49.0053 41.584 48.408 41.584H42.904V54.512H47.384C48.8773 54.512 50.0933 54.0427 51.032 53.104C52.0133 52.1653 52.504 50.928 52.504 49.392ZM21.912 5.232C21.912 5.616 21.6133 6.256 21.016 7.152C20.4187 8.048 19.6933 9.05066 18.84 10.16C17.9867 11.2267 17.176 12.208 16.408 13.104C15.6827 14 15.1493 14.6187 14.808 14.96C15.96 17.1787 16.8773 19.5893 17.56 22.192C18.2427 24.752 18.7333 27.376 19.032 30.064C19.3307 32.7093 19.48 35.2693 19.48 37.744C19.48 38.9387 19.3947 40.3893 19.224 42.096C19.096 43.8027 18.84 45.5947 18.456 47.472C18.072 49.3067 17.5173 51.0347 16.792 52.656C16.0667 54.2773 15.128 55.5787 13.976 56.56C12.8667 57.584 11.5013 58.096 9.88 58.096C9.06933 58.096 8.23733 57.7333 7.384 57.008C6.53067 56.2827 5.76267 55.4507 5.08 54.512C4.39733 53.616 3.864 52.848 3.48 52.208C3.352 52.08 3.288 51.9733 3.288 51.888C3.288 51.76 3.37333 51.696 3.544 51.696C3.672 51.696 3.94933 51.8027 4.376 52.016C4.54667 52.1013 4.73867 52.208 4.952 52.336C5.16533 52.464 5.4 52.592 5.656 52.72C6.168 52.976 6.72267 53.2107 7.32 53.424C7.96 53.5947 8.6 53.68 9.24 53.68C10.3493 53.68 11.2453 53.232 11.928 52.336C12.6107 51.44 13.1013 50.3733 13.4 49.136C13.7413 47.8987 13.976 46.6187 14.104 45.296C14.232 43.9733 14.3173 42.9067 14.36 42.096C14.4453 40.7307 14.5093 39.3653 14.552 38C14.6373 36.592 14.68 35.2053 14.68 33.84V32.752C13.2293 34.8853 11.5653 36.9973 9.688 39.088C7.85333 41.136 5.82667 42.8853 3.608 44.336C3.48 44.3787 3.288 44.4853 3.032 44.656C2.776 44.8267 2.52 44.9973 2.264 45.168C1.96533 45.3387 1.688 45.488 1.432 45.616C1.176 45.744 0.962667 45.808 0.792 45.808C0.536 45.808 0.408 45.7227 0.408 45.552C0.408 45.5093 0.450667 45.4027 0.536 45.232C1.13333 44.5067 1.752 43.7813 2.392 43.056C3.07467 42.3307 3.71467 41.584 4.312 40.816C6.40267 38.1707 8.30133 35.3547 10.008 32.368C11.7147 29.3387 13.016 26.2027 13.912 22.96C13.5707 20.9547 13.0373 19.056 12.312 17.264C10.9893 18.672 9.47467 20.08 7.768 21.488C6.06133 22.896 4.33333 24.0053 2.584 24.816C2.54133 24.816 2.49867 24.8373 2.456 24.88C2.41333 24.88 2.37067 24.88 2.328 24.88C2.328 24.88 2.30667 24.88 2.264 24.88C2.17867 24.88 2.072 24.8587 1.944 24.816C1.816 24.7733 1.752 24.688 1.752 24.56C1.752 24.4747 1.816 24.368 1.944 24.24C3.56533 22.6613 5.10133 21.04 6.552 19.376C8.04533 17.712 9.38933 15.8987 10.584 13.936C9.98667 12.9973 9.21867 12.1227 8.28 11.312C7.384 10.5013 6.33867 10.096 5.144 10.096C4.46133 10.096 3.8 10.3307 3.16 10.8C2.56267 11.2267 2.09333 11.568 1.752 11.824C1.45333 12.0373 1.26133 12.144 1.176 12.144C1.00533 12.144 0.92 12.08 0.92 11.952C0.92 11.8667 0.962667 11.7813 1.048 11.696C1.51733 10.7147 2.24267 9.79733 3.224 8.944C4.248 8.048 5.35733 7.6 6.552 7.6C7.74667 7.6 8.856 7.96267 9.88 8.688C10.9467 9.41333 11.864 10.1813 12.632 10.992C13.4427 9.62666 14.1467 8.176 14.744 6.64C15.3413 5.104 15.9173 3.58933 16.472 2.096C16.6853 2.18133 17.0907 2.37333 17.688 2.672C18.2853 2.97066 18.8827 3.29066 19.48 3.632C20.12 3.93066 20.6747 4.22933 21.144 4.528C21.656 4.82666 21.912 5.06133 21.912 5.232ZM57.816 47.536C57.816 50.7787 56.9413 53.1253 55.192 54.576C53.4853 56.0267 51.0533 56.752 47.896 56.752H25.048V25.456H57.816V47.536ZM61.784 11.632C61.784 12.4853 61.4853 13.1893 60.888 13.744C60.3333 14.256 59.6293 14.512 58.776 14.512H48.6C48.1733 15.4933 47.6827 16.7093 47.128 18.16C46.616 19.568 46.0827 20.6987 45.528 21.552C45.4427 21.7227 45.3147 21.872 45.144 22C45.016 22.128 44.8453 22.192 44.632 22.192C44.4613 22.192 44.3333 22.128 44.248 22C44.1627 21.8293 44.12 21.6587 44.12 21.488C44.12 20.336 44.184 19.184 44.312 18.032C44.4827 16.8373 44.6107 15.664 44.696 14.512H35.992L36.376 20.592L31.576 20.848L31.128 14.512H21.272V12.464H31L30.232 2.928L35.288 2.672L35.864 12.464H44.952C45.08 10.7573 45.2293 9.072 45.4 7.408C45.6133 5.70133 45.8053 3.99467 45.976 2.288C46.1893 2.288 46.5947 2.33066 47.192 2.416C47.7893 2.45866 48.4507 2.52266 49.176 2.608C49.9013 2.69333 50.5413 2.77866 51.096 2.864C51.6507 2.94933 51.9707 3.03466 52.056 3.12C52.2267 3.29067 52.312 3.48267 52.312 3.696C52.312 4.08 52.184 4.67733 51.928 5.488C51.7147 6.256 51.4373 7.10933 51.096 8.048C50.7973 8.944 50.4987 9.79733 50.2 10.608C49.9013 11.4187 49.6667 12.0373 49.496 12.464H56.344C56.3013 12.2507 56.28 11.9733 56.28 11.632C56.28 10.9067 56.5573 10.2667 57.112 9.712C57.6667 9.15733 58.328 8.88 59.096 8.88C59.864 8.88 60.504 9.15733 61.016 9.712C61.528 10.2667 61.784 10.9067 61.784 11.632ZM69.976 23.408V29.424H85.784C86.1253 28.4427 86.3173 27.44 86.36 26.416C86.4027 25.392 86.4453 24.3893 86.488 23.408H69.976ZM83.032 12.912H80.024V21.808H82.2C82.5413 21.2107 82.7547 20.6133 82.84 20.016C82.968 19.4187 83.032 18.7787 83.032 18.096V12.912ZM83.032 11.376V5.616H74.328V21.808H77.4V11.312L83.032 11.376ZM115.288 36.464H98.264V43.056L110.808 42.992C112.003 42.992 113.048 42.8213 113.944 42.48C114.84 42.1387 115.288 41.2427 115.288 39.792V36.464ZM100.824 22.96V16.432H96.792V22.96H100.824ZM108.376 22.96V16.432H104.408V22.96H108.376ZM100.824 14.832V8.816H96.792V14.832H100.824ZM108.376 14.832V8.816H104.408V14.832H108.376ZM116.696 8.816H112.024V14.832H112.856C112.941 14.6187 113.069 14.4053 113.24 14.192C113.411 13.9787 113.624 13.872 113.88 13.872C114.221 13.872 114.477 14.0427 114.648 14.384C114.861 14.6827 114.968 14.96 114.968 15.216C114.968 15.9413 114.605 16.3467 113.88 16.432C113.581 16.4747 113.261 16.496 112.92 16.496C112.621 16.4533 112.323 16.432 112.024 16.432V22.96C113.176 22.8747 114.243 22.64 115.224 22.256C116.205 21.872 116.696 20.976 116.696 19.568V8.816ZM91.288 21.744C91.032 23.4933 90.456 25.2213 89.56 26.928C88.7067 28.592 87.576 29.9573 86.168 31.024V49.648C86.168 50.5013 86.1253 51.4827 86.04 52.592C85.9973 53.7013 85.8053 54.64 85.464 55.408C85.208 56.0907 84.76 56.7307 84.12 57.328C83.48 57.9253 82.7547 58.224 81.944 58.224C81.2613 58.224 80.5787 57.9893 79.896 57.52C79.256 57.0933 78.6587 56.56 78.104 55.92C77.5493 55.28 77.08 54.7253 76.696 54.256C76.6107 54.1707 76.568 54.0853 76.568 54C76.568 53.9147 76.6533 53.872 76.824 53.872C76.9093 53.872 77.08 53.9147 77.336 54C77.6773 54.0853 78.04 54.2133 78.424 54.384C78.808 54.5547 79.192 54.64 79.576 54.64C80.2587 54.64 80.7707 54.4053 81.112 53.936C81.496 53.4667 81.752 52.912 81.88 52.272C82.008 51.632 82.072 51.0347 82.072 50.48V31.024H74.712V36.336H77.208C77.208 35.9947 77.336 35.568 77.592 35.056C77.8907 34.5013 78.2747 34.224 78.744 34.224C79.256 34.224 79.6187 34.4587 79.832 34.928C80.088 35.3547 80.216 35.7813 80.216 36.208C80.216 36.6773 80.0453 37.0613 79.704 37.36C79.3627 37.616 78.9573 37.744 78.488 37.744L74.712 37.808V43.184H77.208C77.208 42.7573 77.3147 42.288 77.528 41.776C77.784 41.264 78.1893 41.008 78.744 41.008C79.256 41.008 79.6187 41.2427 79.832 41.712C80.088 42.1387 80.216 42.5653 80.216 42.992C80.216 43.4187 80.0453 43.7813 79.704 44.08C79.4053 44.3787 79.0213 44.528 78.552 44.528L74.712 44.592V57.84H70.616V30.896L65.752 30.832V21.68L70.488 21.744V3.76H87.064V15.408C87.064 16.6453 86.936 17.776 86.68 18.8C86.4667 19.7813 85.9973 20.784 85.272 21.808L91.288 21.744ZM124.184 54.832C124.184 55.4293 123.949 55.984 123.48 56.496C123.053 57.0507 122.499 57.328 121.816 57.328L89.176 57.2V54.96H101.272C100.504 53.7227 99.7147 52.528 98.904 51.376C98.136 50.1813 97.3467 49.008 96.536 47.856C96.9627 47.728 97.5173 47.5787 98.2 47.408C98.9253 47.1947 99.6507 47.024 100.376 46.896C101.101 46.7253 101.656 46.64 102.04 46.64C102.253 46.64 102.403 46.7467 102.488 46.96C102.531 47.0453 102.552 47.1947 102.552 47.408C102.637 47.792 102.659 48.176 102.616 48.56C102.616 48.944 102.637 49.328 102.68 49.712C102.723 50.5653 102.787 51.44 102.872 52.336C102.957 53.1893 103.043 54.064 103.128 54.96H109.4C109.784 53.5947 110.125 52.2293 110.424 50.864C110.765 49.456 111.085 48.048 111.384 46.64C111.683 46.7253 112.088 46.832 112.6 46.96C113.112 47.088 113.645 47.216 114.2 47.344C114.755 47.472 115.267 47.6213 115.736 47.792C116.205 47.92 116.525 48.0267 116.696 48.112C116.824 48.1547 116.888 48.2827 116.888 48.496C116.888 48.6667 116.632 49.0507 116.12 49.648C115.651 50.2453 115.075 50.9067 114.392 51.632C113.709 52.3573 113.069 53.04 112.472 53.68C111.875 54.2773 111.448 54.704 111.192 54.96H119.512C119.555 54.3627 119.768 53.7653 120.152 53.168C120.579 52.5707 121.133 52.272 121.816 52.272C122.456 52.272 123.011 52.5493 123.48 53.104C123.949 53.6587 124.184 54.2347 124.184 54.832ZM119.64 39.024C119.64 40.9013 119.405 42.2667 118.936 43.12C118.467 43.9733 117.72 44.5067 116.696 44.72C115.672 44.9333 114.307 45.04 112.6 45.04H94.232V34.288H119.64V39.024ZM125.592 28.144C125.592 28.8267 125.336 29.424 124.824 29.936C124.355 30.448 123.757 30.704 123.032 30.704H90.264V28.72L120.472 28.784C120.515 28.0587 120.728 27.2907 121.112 26.48C121.496 25.6693 122.136 25.264 123.032 25.264C123.757 25.264 124.355 25.584 124.824 26.224C125.336 26.8213 125.592 27.4613 125.592 28.144ZM121.112 18.864C121.112 21.2533 120.429 22.832 119.064 23.6C117.741 24.3253 116.013 24.688 113.88 24.688H93.016V6.96L100.824 7.024V0.815998H104.408V7.024H108.376V0.815998H112.024V7.024L121.112 6.96V18.864ZM188.632 50.416C188.632 51.2267 188.291 51.9733 187.608 52.656C186.968 53.296 186.221 53.616 185.368 53.616H130.712V50.992H155.736V13.488H134.936V10.8H178.328C178.328 9.904 178.648 9.072 179.288 8.304C179.971 7.49333 180.824 7.088 181.848 7.088C182.787 7.088 183.555 7.45066 184.152 8.176C184.749 8.85866 185.048 9.62666 185.048 10.48C185.048 11.2907 184.707 11.9947 184.024 12.592C183.384 13.1893 182.637 13.488 181.784 13.488H161.88V50.992H181.464C181.464 49.9253 181.763 48.944 182.36 48.048C182.957 47.152 183.875 46.704 185.112 46.704C186.179 46.704 187.032 47.088 187.672 47.856C188.312 48.5813 188.632 49.4347 188.632 50.416ZM252.376 42.608C252.376 43.5893 252.013 44.336 251.288 44.848C250.605 45.3173 249.773 45.552 248.792 45.552H226.328C226.328 46.4907 226.328 47.4507 226.328 48.432C226.328 49.4133 226.285 50.3947 226.2 51.376C226.115 52.8693 225.901 54.256 225.56 55.536C225.261 56.8587 224.664 57.904 223.768 58.672C222.915 59.4827 221.549 59.888 219.672 59.888C218.904 59.888 217.944 59.696 216.792 59.312C215.683 58.9707 214.616 58.5227 213.592 57.968C212.568 57.4133 211.779 56.9013 211.224 56.432C211.053 56.3467 210.968 56.2187 210.968 56.048C210.968 55.8347 211.096 55.728 211.352 55.728C211.437 55.728 211.501 55.728 211.544 55.728C211.587 55.7707 211.629 55.792 211.672 55.792C212.355 55.9627 213.059 56.0907 213.784 56.176C214.509 56.304 215.213 56.368 215.896 56.368C217.773 56.368 219.011 55.9413 219.608 55.088C220.248 54.2347 220.589 52.9547 220.632 51.248L220.824 45.552H195.864V43.184H220.824V42.8C220.824 41.9893 220.781 41.2 220.696 40.432C220.611 39.6213 220.525 38.8107 220.44 38L226.072 38.384C226.797 37.8293 227.459 37.2533 228.056 36.656C228.696 36.016 229.293 35.3333 229.848 34.608H208.6V32.368H237.08C237.208 32.368 237.293 32.432 237.336 32.56C237.379 32.688 237.4 32.7947 237.4 32.88C237.4 32.9227 237.357 33.0293 237.272 33.2C236.205 35.1627 234.627 36.7413 232.536 37.936C230.445 39.1307 228.333 39.9627 226.2 40.432L226.392 43.184H246.488C246.488 43.0987 246.467 43.0133 246.424 42.928C246.424 42.8 246.424 42.6933 246.424 42.608C246.424 41.84 246.723 41.1147 247.32 40.432C247.917 39.7067 248.621 39.344 249.432 39.344C250.285 39.344 250.989 39.7067 251.544 40.432C252.099 41.1147 252.376 41.84 252.376 42.608ZM229.464 23.6C229.464 23.8133 229.336 23.92 229.08 23.92C228.995 23.92 228.696 23.8133 228.184 23.6C227.715 23.3867 227.203 23.1307 226.648 22.832C226.093 22.5333 225.56 22.256 225.048 22C224.536 21.744 224.173 21.5733 223.96 21.488C223.491 21.8293 222.723 22.2987 221.656 22.896C220.632 23.4933 219.587 24.0267 218.52 24.496C217.496 24.9227 216.707 25.136 216.152 25.136C215.981 25.136 215.896 25.1147 215.896 25.072C215.896 24.944 215.939 24.8373 216.024 24.752C216.024 24.752 216.067 24.7093 216.152 24.624C216.195 24.5813 216.237 24.56 216.28 24.56C217.219 23.92 218.157 23.2587 219.096 22.576C220.035 21.8507 220.888 21.0613 221.656 20.208C220.973 19.8667 220.291 19.5467 219.608 19.248C218.925 18.9493 218.221 18.6293 217.496 18.288L220.12 16.304C220.632 16.6027 221.144 16.9227 221.656 17.264C222.168 17.5627 222.68 17.8613 223.192 18.16C223.661 17.6053 224.088 17.0293 224.472 16.432C224.856 15.8347 225.197 15.216 225.496 14.576L229.336 15.984C228.867 16.6667 228.333 17.328 227.736 17.968C227.139 18.5653 226.52 19.1627 225.88 19.76C226.051 19.9307 226.328 20.1867 226.712 20.528C227.096 20.8693 227.48 21.2533 227.864 21.68C228.291 22.064 228.653 22.448 228.952 22.832C229.293 23.1733 229.464 23.4293 229.464 23.6ZM251.16 25.776C250.989 27.0133 250.541 28.2933 249.816 29.616C249.091 30.9387 248.237 32.1973 247.256 33.392C246.317 34.544 245.4 35.5253 244.504 36.336C244.333 36.5067 244.141 36.656 243.928 36.784C243.715 36.912 243.501 36.976 243.288 36.976C243.032 36.976 242.861 36.8693 242.776 36.656C242.733 36.4427 242.712 36.2507 242.712 36.08C242.712 35.9947 242.712 35.9093 242.712 35.824C242.755 35.7387 242.776 35.6533 242.776 35.568C242.989 34.3307 243.117 33.0933 243.16 31.856C243.245 30.576 243.352 29.3173 243.48 28.08H202.904V35.504H197.592V25.712H203.736V4.336L208.536 4.848C209.816 4.336 211.075 3.78133 212.312 3.184C213.549 2.58666 214.787 1.968 216.024 1.328C216.28 1.41333 216.792 1.66933 217.56 2.096C218.328 2.48 219.053 2.90666 219.736 3.376C220.419 3.80267 220.76 4.12267 220.76 4.336C220.76 4.54933 220.568 4.72 220.184 4.848C219.843 4.93333 219.459 4.99733 219.032 5.04C218.605 5.08266 218.307 5.104 218.136 5.104C216.472 5.27466 214.829 5.488 213.208 5.744C211.587 5.95733 209.944 6.17067 208.28 6.384V11.44H213.144C213.187 11.0987 213.336 10.7787 213.592 10.48C213.848 10.1813 214.189 10.032 214.616 10.032C215.043 10.032 215.384 10.2027 215.64 10.544C215.896 10.8427 216.024 11.184 216.024 11.568C216.024 12.1227 215.853 12.528 215.512 12.784C215.171 12.9973 214.744 13.104 214.232 13.104H208.28V18.288H213.144C213.187 17.9467 213.336 17.6267 213.592 17.328C213.848 17.0293 214.189 16.88 214.616 16.88C215.043 16.88 215.384 17.0507 215.64 17.392C215.896 17.6907 216.024 18.032 216.024 18.416C216.024 18.8427 215.875 19.2053 215.576 19.504C215.32 19.8027 214.957 19.952 214.488 19.952H208.28V25.776H236.376C237.357 25.776 237.997 25.3707 238.296 24.56C238.595 23.7493 238.744 22.9387 238.744 22.128C238.744 21.7867 238.723 21.424 238.68 21.04C238.68 20.656 238.68 20.2933 238.68 19.952H231.256V18.16H238.68C238.68 17.3493 238.68 16.5173 238.68 15.664C238.68 14.8107 238.701 13.9573 238.744 13.104H231.256V11.312H238.744V6H230.872V4.144H243.608V20.592C243.608 21.5307 243.544 22.4267 243.416 23.28C243.288 24.0907 243.011 24.9227 242.584 25.776H251.16ZM229.208 13.168C229.208 13.3813 229.101 13.488 228.888 13.488C228.76 13.488 228.461 13.3813 227.992 13.168C227.523 12.912 226.989 12.6347 226.392 12.336C225.837 12.0373 225.304 11.76 224.792 11.504C224.28 11.2053 223.896 11.0133 223.64 10.928C223.384 11.184 222.936 11.5467 222.296 12.016C221.699 12.4853 221.016 12.9973 220.248 13.552C219.523 14.064 218.84 14.512 218.2 14.896C217.56 15.2373 217.091 15.408 216.792 15.408C216.451 15.408 216.28 15.28 216.28 15.024C216.28 14.9387 216.365 14.8107 216.536 14.64C217.432 13.9147 218.285 13.168 219.096 12.4C219.949 11.5893 220.717 10.7147 221.4 9.776C220.717 9.43466 220.035 9.11466 219.352 8.816C218.669 8.47466 217.965 8.15466 217.24 7.856L219.8 5.872C220.099 6.04266 220.376 6.21333 220.632 6.384C220.931 6.512 221.208 6.66133 221.464 6.832C221.677 7.00266 221.912 7.17333 222.168 7.344C222.424 7.472 222.68 7.62133 222.936 7.792C223.32 7.06666 223.683 6.32 224.024 5.552C224.365 4.784 224.707 3.99466 225.048 3.184L229.016 4.656C228.547 5.46666 228.013 6.27733 227.416 7.088C226.819 7.856 226.2 8.60266 225.56 9.328C225.773 9.49867 226.072 9.75467 226.456 10.096C226.84 10.3947 227.245 10.736 227.672 11.12C228.099 11.504 228.461 11.888 228.76 12.272C229.059 12.6133 229.208 12.912 229.208 13.168Z" fill="#686868"/>
</svg>
