<svg width="89" height="98" viewBox="0 0 89 98" fill="none" xmlns="http://www.w3.org/2000/svg">
<ellipse cx="45.8807" cy="56.3351" rx="36.6573" ry="32.001" stroke="#3B3E3C" stroke-width="2"/>
<path d="M19.1564 34.3344L24.0046 17.6672L28.8528 1M28.8528 1L40.6777 25.4452M28.8528 1H31.2178L46.5902 24.3341L83.011 5.22236M83.011 5.22236L72.3685 34.3344M83.011 5.22236H85.1395L79.4635 36.1123M78.0445 42.5569L79.4635 36.1123M79.4635 36.1123C94.5994 50.3349 89.6329 85.4472 60.5436 87.6695" stroke="#3B3E3C" stroke-width="2"/>
<rect x="33.3463" y="44.3347" width="5.20297" height="8.44472" fill="#3B3E3C"/>
<rect x="47.0632" y="44.3347" width="5.20297" height="8.44472" fill="#3B3E3C"/>
<rect x="37.1303" y="47.8904" width="1.41899" height="1.77784" fill="#FFFEFE"/>
<rect x="50.8472" y="47.8904" width="1.41899" height="1.77784" fill="#FFFEFE"/>
<line y1="-1" x2="4.18081" y2="-1" transform="matrix(0.905082 0.425237 -0.469743 0.882803 35.7113 39.4457)" stroke="#3B3E3C" stroke-width="2"/>
<line y1="-1" x2="4.18081" y2="-1" transform="matrix(0.905082 -0.425237 0.469743 0.882803 46.5902 41.2234)" stroke="#3B3E3C" stroke-width="2"/>
<path d="M32.1638 69.0023C35.0018 71.3727 41.6238 74.4691 45.4077 67.8911C47.9304 71.0764 53.8744 75.3136 57.4692 66.78" stroke="#3B3E3C" stroke-width="2"/>
<ellipse cx="43.7522" cy="87.0028" rx="2.36499" ry="2.66675" fill="#FFE3E3"/>
<path d="M62.1991 87.8916C60.2076 95.0463 57.9638 96.7808 52.7392 96.7808C47.5146 96.7808 45.948 92.6614 43.2792 87.8916C47.2624 84.4227 47.5146 79.0024 52.7392 79.0024C57.9638 79.0024 62.1991 82.9823 62.1991 87.8916Z" fill="#FFC3C3"/>
<path d="M44.2252 86.8829C44.2252 91.8584 39.8567 95.8919 34.468 95.8919C29.0792 95.8919 29.0893 91.7669 27.6703 85.2249C29.0893 79.5443 31.3901 76.3357 36.7789 76.3357C42.1677 76.3357 44.2252 81.9073 44.2252 86.8829Z" fill="#FFCBCB"/>
<path d="M43.9887 85.1736C44.4109 85.7025 44.6815 85.3865 44.8337 85.8916M43.9887 85.1736L44.8337 85.8916M43.9887 85.1736C43.616 85.3663 43.1947 84.8116 42.8063 85.1736M44.8337 85.8916C47.0632 79.8914 56.5232 72.7801 60.5436 85.6694C61.9626 95.003 50.1377 104.337 44.7245 88.3361M44.8337 85.8916C45.0996 86.7738 45.0043 87.6054 44.7245 88.3361M44.7245 88.3361C44.3029 89.4373 44.4617 89.225 43.2793 89.4473C42.3333 89.0028 41.5076 88.7503 41.5012 87.8917M42.8063 85.1736C44.7245 78.1136 33.3463 69.4466 29.0893 84.7804C26.7244 95.4475 39.2588 103.892 41.5012 87.8917M42.8063 85.1736C42.3447 85.6038 41.9294 86.1457 41.6968 86.7805M41.5012 87.8917C41.4983 87.496 41.5707 87.1246 41.6968 86.7805M34.7653 85.1736C34.5288 86.0625 38.8013 88.1139 41.6968 86.7805M45.4077 87.225C46.8267 88.188 51.2729 89.0917 52.9757 86.7805" stroke="#8A1616" stroke-width="2"/>
<path d="M0 59.8909H16.5549" stroke="#3B3E3C" stroke-width="2"/>
<path d="M2.83798 68.1133L15.8454 66.5577" stroke="#3B3E3C" stroke-width="2"/>
<path d="M70.2401 58.1129H85.849" stroke="#3B3E3C" stroke-width="2"/>
<path d="M71.1861 64.3354L85.849 66.7799" stroke="#3B3E3C" stroke-width="2"/>
</svg>
