<svg width="32" height="37" viewBox="0 0 32 37" fill="none" xmlns="http://www.w3.org/2000/svg">
<path d="M11.2361 17.6151C12.2361 20.0146 13.9059 21.9499 15.9734 23.1056C16.126 23.1895 16.2946 23.2259 16.4629 23.211C16.6312 23.1962 16.7932 23.1307 16.9331 23.0209L19.9698 20.6638C20.104 20.5581 20.259 20.4936 20.4205 20.4763C20.5819 20.459 20.7445 20.4895 20.893 20.565L26.5778 23.402C26.7721 23.496 26.9344 23.6616 27.0398 23.8733C27.1452 24.0849 27.1877 24.331 27.1609 24.5735C26.9807 26.2076 26.2943 27.7094 25.23 28.798C24.1658 29.8865 22.7967 30.4871 21.3789 30.4875C16.9975 30.4875 12.7956 28.4651 9.69748 24.8652C6.59938 21.2653 4.85889 16.3828 4.85889 11.2918C4.85921 9.64435 5.37613 8.05348 6.31292 6.81688C7.24972 5.58027 8.54219 4.78266 9.9485 4.5733C10.1572 4.54214 10.369 4.59158 10.5512 4.714C10.7334 4.83642 10.8758 5.02503 10.9567 5.25079L13.3983 11.8705C13.4618 12.0404 13.4883 12.2258 13.4756 12.4104C13.4629 12.595 13.4113 12.7731 13.3254 12.9291L11.2968 16.5142C11.2065 16.6763 11.1535 16.8627 11.1429 17.0554C11.1322 17.2482 11.1643 17.4409 11.2361 17.6151V17.6151Z" stroke="black" stroke-width="1.5" stroke-linecap="round" stroke-linejoin="round"/>
</svg>
